<?xml version="1.0" standalone="no"?>
<!DOCTYPE svg PUBLIC "-//W3C//DTD SVG 1.1//EN" "http://www.w3.org/Graphics/SVG/1.1/DTD/svg11.dtd" >
<svg xmlns="http://www.w3.org/2000/svg" xmlns:xlink="http://www.w3.org/1999/xlink" version="1.1">
<metadata></metadata>
<defs>
<font id="mars_typeregular" horiz-adv-x="1122" >
<font-face units-per-em="2048" ascent="1536" descent="-512" />
<missing-glyph horiz-adv-x="593" />
<glyph unicode=" "  horiz-adv-x="593" />
<glyph unicode="&#x09;" horiz-adv-x="593" />
<glyph unicode="&#xa0;" horiz-adv-x="593" />
<glyph unicode="!" horiz-adv-x="602" d="M164 121q0 57 40 97t97 40t97 -40t40 -97t-40 -97t-97 -40t-97 40t-40 97zM186 1495h232l-43 -1010h-148z" />
<glyph unicode="&#x22;" horiz-adv-x="724" d="M82 1044v451h209l-78 -451h-131zM444 1044v451h209l-78 -451h-131z" />
<glyph unicode="#" horiz-adv-x="1517" d="M41 451l33 149h332l69 322h-338l33 149h336l94 440h160l-94 -440h319l94 440h160l-94 -440h332l-33 -149h-330l-70 -322h336l-32 -149h-334l-96 -451h-160l96 451h-319l-97 -451h-159l96 451h-334zM565 600h320l69 322h-319z" />
<glyph unicode="$" horiz-adv-x="1245" d="M123 135v170q51 -25 84.5 -39.5t103 -40t146.5 -38.5t157 -13q106 0 175.5 22.5t91.5 51.5q37 52 37 165.5t-35 151.5q-26 28 -63.5 45.5t-110.5 36.5q-16 4 -87 21t-119 31.5t-100 35.5q-118 48 -193 139t-75 218q0 70 25 135t73.5 120t128.5 93t181 49v254h172v-252 q192 -17 334 -105v-157q-208 96 -431 96q-99 0 -160.5 -22.5t-84.5 -51.5q-35 -45 -35 -153.5t33 -141.5q47 -47 166 -75q18 -4 70.5 -16t80.5 -19t74 -21.5t86 -31.5q274 -117 274 -363q0 -168 -106.5 -282.5t-300.5 -141.5v-252h-172v248q-215 15 -420 133z" />
<glyph unicode="%" horiz-adv-x="1654" d="M102 1169q0 146 97 242t237 96q139 0 236.5 -96t97.5 -242q0 -148 -97.5 -246t-236.5 -98q-140 0 -237 97.5t-97 246.5zM174 0l1133 1495h174l-1133 -1495h-174zM272 1169q0 -59 10 -105.5t23 -59.5q14 -15 49 -27t82 -12t82 12t49 27q12 16 22.5 61.5t10.5 103.5 t-10.5 102t-22.5 60q-14 15 -49 27t-82 12t-82 -12t-49 -27q-13 -15 -23 -59t-10 -103zM885 332q0 146 97 242t237 96q139 0 236 -96t97 -242q0 -149 -97 -246.5t-236 -97.5q-140 0 -237 97.5t-97 246.5zM1055 332q0 -59 9.5 -106t22.5 -60q14 -15 49.5 -27t82.5 -12t82 12 t49 27q12 15 22 61.5t10 104.5t-10 102t-22 60q-13 15 -48.5 26.5t-82.5 11.5t-83 -11.5t-49 -26.5t-22.5 -58.5t-9.5 -103.5z" />
<glyph unicode="&#x26;" horiz-adv-x="1478" d="M113 412q0 80 27.5 153.5t72.5 127.5t96 92.5t103 58.5l53 20q-61 84 -88 157t-27 155q0 134 99 234.5t241 100.5q144 0 241 -96.5t97 -234.5q0 -244 -311 -373l336 -397q126 146 151 454l172 33q-21 -364 -225 -598l256 -299h-215l-160 188q-207 -204 -454 -204 q-124 0 -230.5 55t-170.5 154t-64 219zM301 410q0 -78 17.5 -130.5t35.5 -70.5q22 -25 76.5 -46.5t151.5 -21.5q81 0 163.5 32t127.5 63.5t67 56.5l-383 452q-93 -30 -137 -54.5t-68 -53.5q-18 -22 -34.5 -84t-16.5 -143zM532 1176q0 -104 39 -179q5 -11 18 -30t23 -32 l11 -13q144 54 186 102q41 46 41 154q0 112 -39 151q-29 29 -121 29t-121 -29q-13 -13 -25 -53.5t-12 -99.5z" />
<glyph unicode="'" horiz-adv-x="362" d="M82 1044v451h209l-74 -451h-135z" />
<glyph unicode="(" horiz-adv-x="663" d="M143 535q0 303 102.5 571.5t246.5 404.5h172q-128 -125 -185 -225q-58 -104 -98.5 -296.5t-40.5 -454.5q0 -261 39.5 -451t97.5 -295q24 -44 71 -101.5t82 -92.5l34 -35h-172q-144 136 -246.5 404t-102.5 571z" />
<glyph unicode=")" horiz-adv-x="663" d="M0 -440q15 14 38 38.5t73.5 85.5t74.5 105q58 106 98 295.5t40 450.5q0 262 -40.5 454.5t-99.5 296.5q-25 44 -71 100.5t-79 90.5l-34 34h172q144 -136 246 -404.5t102 -571.5t-102 -571t-246 -404h-172z" />
<glyph unicode="*" horiz-adv-x="851" d="M82 1022l215 117l-215 116l72 123l208 -129l-8 246h144l-11 -246l211 129l72 -123l-217 -116l217 -117l-72 -123l-211 127l11 -244h-144l8 244l-208 -127z" />
<glyph unicode="+" horiz-adv-x="1224" d="M102 686v152h433v436h157v-436h430v-152h-430v-436h-157v436h-433z" />
<glyph unicode="," horiz-adv-x="503" d="M102 129q0 55 36.5 92t94.5 37q74 0 121 -58t47 -175q0 -53 -12 -104t-34 -94t-37.5 -68t-37.5 -55q-6 -8 -8 -11h-135q26 37 50.5 79.5t50.5 111t26 120.5q-21 -4 -35 -4q-57 0 -92 37t-35 92z" />
<glyph unicode="-" horiz-adv-x="759" d="M123 549v158h514v-158h-514z" />
<glyph unicode="." horiz-adv-x="479" d="M102 121q0 57 40.5 97t97.5 40t97 -40t40 -97t-40 -97t-97 -40t-97.5 40t-40.5 97z" />
<glyph unicode="/" horiz-adv-x="858" d="M-72 -311l848 1822h154l-848 -1822h-154z" />
<glyph unicode="0" horiz-adv-x="1382" d="M129 748q0 164 45 307t121 242.5t179.5 156.5t217.5 57t217 -57t179 -156.5t120.5 -243.5t44.5 -309q0 -164 -44.5 -306.5t-120.5 -241.5t-179 -156t-217 -57t-217.5 57.5t-179.5 157t-121 242.5t-45 307zM338 748q0 -184 32.5 -325t75.5 -187q27 -31 90.5 -56.5 t155.5 -25.5q90 0 154.5 25t89.5 54q45 47 76.5 186.5t31.5 328.5q0 191 -31.5 332t-76.5 188q-75 75 -244 75q-91 0 -155.5 -23t-90.5 -52q-45 -47 -76.5 -188t-31.5 -332z" />
<glyph unicode="1" horiz-adv-x="956" d="M113 0v168h293v1124q-80 -38 -154 -63l-139 -47v164l477 170v-1348h274v-168h-751z" />
<glyph unicode="2" horiz-adv-x="1126" d="M61 0v143q28 29 82 85q178 184 261.5 272.5t176.5 196.5t136 177q41 71 41 222q0 144 -41 192q-47 55 -201 55q-36 0 -71.5 -4t-62.5 -9t-59 -16t-49 -17t-46 -21t-37.5 -19.5t-35.5 -20.5t-28 -17v153q95 66 155 92q109 47 228 47q204 0 329.5 -120t125.5 -295 q0 -152 -114 -317q-76 -110 -282 -327q-22 -24 -71 -74l-84 -89q-27 -28 -59.5 -58t-50.5 -47l-19 -16h719v-168h-943z" />
<glyph unicode="3" horiz-adv-x="1187" d="M92 119v162q4 -2 32 -17.5t44.5 -23.5t50 -24t63 -25t68 -19t80.5 -15t86 -5q196 0 262 61q27 26 47.5 88.5t20.5 159.5q0 180 -68 244q-66 61 -264 61q-51 0 -99 -4t-71 -8l-22 -4v139l317 311q19 20 55.5 52t63.5 54l26 21h-622v168h835v-143q-162 -162 -317 -312 q-24 -24 -60 -54t-60 -48l-23 -18q234 0 376 -126.5t142 -330.5q0 -98 -41.5 -186.5t-113 -153t-173 -102t-215.5 -37.5q-73 0 -139 12.5t-124.5 39t-84.5 40.5t-72 43z" />
<glyph unicode="4" horiz-adv-x="1236" d="M20 418v133l719 954h150v-927h235v-160h-235v-418h-180v418h-689zM221 569q1 0 40 2.5t85.5 4.5t67.5 2h295v454q0 31 3 82.5t6 87.5l3 35z" />
<glyph unicode="5" horiz-adv-x="1196" d="M113 111v161q112 -59 185 -83q117 -37 239 -37q179 0 247 63q28 26 49 92t21 166q0 96 -22.5 163.5t-47.5 92.5q-23 20 -91 38.5t-171 18.5q-184 0 -344 -38l78 747h729v-168h-571l-41 -399q91 16 186 16q233 0 368.5 -133.5t135.5 -337.5q0 -134 -71 -246.5 t-193.5 -177.5t-266.5 -65q-96 0 -187 24.5t-134 46.5t-98 56z" />
<glyph unicode="6" horiz-adv-x="1300" d="M133 694q0 237 72 421.5t210 290t322 105.5q119 0 209.5 -29t130.5 -57v-155q-24 13 -58.5 27t-115.5 30t-168 16q-99 0 -170.5 -24t-97.5 -53q-48 -48 -83.5 -168.5t-45.5 -300.5q134 157 348 157q225 0 363.5 -137t138.5 -340q0 -132 -67 -245t-187 -180.5t-266 -67.5 q-109 0 -205.5 47.5t-170 136t-116.5 224.5t-43 302zM338 610q0 -137 31 -240t67 -145q26 -28 84 -50.5t150 -22.5q173 0 250 67q22 22 40.5 89t18.5 165q0 193 -55 248q-72 72 -252 72q-140 0 -229 -54.5t-105 -128.5z" />
<glyph unicode="7" horiz-adv-x="1036" d="M31 1327v1v1v1v1v1v1v1v1v1v1v1v1v1v1v1v1v1v1v1v1v1v1v1v1v1v1v1v1v1v1v1v1v1v1v1v1v2v1v1v1v1v1v2v1v1v1v2v1v1v1v2v1v1v2v1v1v2v1v1v2v1v1v2v1v2v1v2v1v2v1v2v1v2v1v2v1v2v1v2v1v2v1v2v2v1v2v1v2v2v1v2v2v1v2v2v1v2v2v1v2v2v2v1v2v2v2v1v2v2v2v1v2v2v2v2v2v1v9h944 v-137l-625 -1358h-196l540 1159q15 31 40 73t43 68l18 27h-764z" />
<glyph unicode="8" horiz-adv-x="1345" d="M143 436q0 137 71 233t192 146q-88 46 -138.5 124t-50.5 183q0 158 134 273.5t323 115.5q185 0 319.5 -116t134.5 -273q0 -207 -188 -305q122 -50 192 -145.5t70 -235.5q0 -127 -71.5 -231.5t-192.5 -162.5t-264 -58t-264.5 58t-194 162.5t-72.5 231.5zM350 436 q0 -161 66 -227q22 -22 88 -39.5t170 -17.5q103 0 168.5 16.5t87.5 38.5q65 65 65 229q0 90 -20.5 147t-44.5 81q-22 22 -90 45.5t-166 23.5q-99 0 -167.5 -22.5t-90.5 -44.5q-24 -24 -45 -82.5t-21 -147.5zM422 1122q0 -75 16 -119t33 -61q19 -19 72.5 -36t130.5 -17 t129 16t71 35q10 10 19.5 27.5t20 60t10.5 94.5q0 74 -16.5 119t-33.5 62q-45 45 -200 45q-158 0 -203 -45q-17 -17 -33 -62t-16 -119z" />
<glyph unicode="9" horiz-adv-x="1275" d="M113 1022q0 130 63.5 241.5t180 179.5t259.5 68q108 0 202 -45t167.5 -131t115.5 -225t42 -315q0 -235 -70 -417.5t-207.5 -288t-322.5 -105.5q-196 0 -342 102v160q96 -53 183 -73q78 -19 161 -19q100 0 170.5 23t95.5 52q47 47 82 172.5t45 307.5q-59 -70 -136 -112 t-200 -42q-212 0 -350.5 132t-138.5 335zM319 1026q0 -186 52 -238q71 -71 239 -71q140 0 224.5 52.5t101.5 125.5q0 273 -90 377q-66 71 -230 71t-241 -67q-22 -22 -39 -87t-17 -163z" />
<glyph unicode=":" horiz-adv-x="581" d="M154 121q0 57 40 97t97 40t97 -40t40 -97t-40 -97t-97 -40t-97 40t-40 97zM154 903q0 57 40 97t97 40t97 -40t40 -97t-40 -97t-97 -40t-97 40t-40 97z" />
<glyph unicode=";" horiz-adv-x="585" d="M154 129q0 55 36.5 92t94.5 37q74 0 121 -58t47 -175q0 -53 -12 -104t-34 -94t-37.5 -68t-37.5 -55q-6 -8 -8 -11h-136q26 37 50.5 79.5t50.5 111t26 120.5q-20 -4 -34 -4q-57 0 -92 37t-35 92zM168 903q0 57 40 97t97 40t97 -40t40 -97t-40 -97t-97 -40t-97 40t-40 97z " />
<glyph unicode="&#x3c;" horiz-adv-x="1007" d="M51 719v86l834 465v-189l-504 -270l-115 -49q72 -29 115 -49l504 -271v-188z" />
<glyph unicode="=" horiz-adv-x="1273" d="M123 426v152h1028v-152h-1028zM123 872v152h1028v-152h-1028z" />
<glyph unicode="&#x3e;" horiz-adv-x="1007" d="M123 254v188l504 271l114 49q-71 29 -114 49l-504 270v189l833 -465v-86z" />
<glyph unicode="?" horiz-adv-x="917" d="M33 1219v161q59 47 158 89t227 42q191 0 319.5 -112t128.5 -266q0 -40 -8 -77.5t-17.5 -64.5t-29.5 -55t-31.5 -43t-36 -36.5t-31.5 -26.5t-28 -21q-99 -71 -144.5 -111.5t-72.5 -89.5q-8 -18 -14 -52.5t-7 -59.5l-2 -25h-157q-14 180 108 295q35 33 118 95.5t124 101.5 q25 23 34.5 93t0 139.5t-34.5 92.5q-31 27 -78 42.5t-141 15.5q-86 0 -168 -23.5t-120 -44.5t-85 -51q-8 -6 -12 -8zM229 121q0 57 40.5 97t97.5 40t97 -40t40 -97t-40 -97t-97 -40t-97.5 40t-40.5 97z" />
<glyph unicode="@" horiz-adv-x="2170" d="M143 535q0 203 81.5 386t215 311t309 203.5t359.5 75.5q197 0 370.5 -69t296.5 -189.5t190.5 -293t59.5 -369.5q-5 -106 -42 -200.5t-92 -160t-121 -114.5t-129.5 -72t-116.5 -23q-93 0 -161 47t-95 123q-81 -81 -158.5 -125.5t-175.5 -44.5q-84 0 -158.5 40t-123.5 110 t-70 165t0 206q25 147 105 263t190 177t229 61q65 0 115 -21t77 -47.5t60 -70.5l47 123h154l-119 -641q-20 -120 10 -162q33 -43 111 -43q48 0 86.5 14.5t56.5 30.5q15 10 32.5 29.5t42 60.5t43 113t23.5 162q19 392 -180 586l-6 6q-20 20 -60.5 45.5t-108.5 56.5 t-170.5 51.5t-215.5 20.5q-92 0 -178 -16t-142 -36.5t-107 -49t-73 -44.5t-39 -32q-19 -17 -40 -40.5t-60 -82.5t-67.5 -126t-51 -172.5t-22.5 -221.5q0 -115 19 -218.5t44 -170t59 -125t54 -82.5t39 -43q20 -20 58.5 -46t105.5 -60.5t165 -57.5t203 -23q70 0 134.5 7 t112.5 18t81 21t61 20.5t31 11.5v-143q-2 -1 -34.5 -15t-49 -20t-58 -18.5t-77.5 -19t-90.5 -12t-112.5 -5.5q-183 0 -352 74t-295.5 201.5t-202.5 312t-76 393.5zM770 537q-35 -216 10 -283q17 -26 63 -48t126 -22q63 0 118.5 21.5t87 46t68.5 63.5q2 8 82 447 q-31 39 -57.5 61.5t-74.5 40t-112 17.5q-23 0 -44 -2.5t-36.5 -6t-31 -9.5t-24.5 -10.5t-20 -12t-15.5 -11.5t-13 -11.5t-9.5 -8.5q-84 -76 -117 -272z" />
<glyph unicode="A" horiz-adv-x="1427" d="M41 0l592 1501h162l591 -1501h-200l-166 430h-627l-164 -430h-188zM455 590h503l-215 559q-9 24 -14.5 44.5t-11.5 51.5t-8 39q-17 -77 -39 -135z" />
<glyph unicode="B" horiz-adv-x="1411" d="M229 4v1487q250 10 402 10q265 0 411 -102t146 -293q0 -97 -60.5 -185t-152.5 -122q120 -39 196 -133.5t76 -229.5q0 -209 -160.5 -325.5t-431.5 -116.5q-86 0 -192.5 2.5t-170.5 5.5zM420 166q161 -4 237 -4q107 0 180.5 12.5t91 21.5t38.5 23q71 56 71 215 q0 149 -80 213q-74 55 -301 55l-237 -2v-534zM420 860h223q189 0 260 49q27 19 52.5 70.5t25.5 124.5t-20 119.5t-43 64.5q-62 47 -295 47q-121 0 -203 -4v-471z" />
<glyph unicode="C" horiz-adv-x="1245" d="M113 748q0 164 55.5 307t149.5 242.5t221 156.5t268 57q220 0 362 -69v-156q-146 53 -358 53q-135 0 -226.5 -33t-140.5 -83q-44 -45 -79 -174t-35 -301q0 -166 36.5 -295t79.5 -174q115 -119 367 -119q204 0 361 57v-158q-74 -36 -155 -55.5t-212 -19.5 q-143 0 -270.5 56.5t-221 155.5t-148 242.5t-54.5 309.5z" />
<glyph unicode="D" horiz-adv-x="1490" d="M225 0v1495q207 6 418 6q159 0 294.5 -53.5t233 -149.5t152.5 -237.5t55 -310.5t-57 -312t-155.5 -240.5t-233.5 -152.5t-289 -55q-94 0 -198.5 2.5t-162.5 5.5zM418 164q127 -4 223 -4q278 0 397 119q46 46 85.5 174t39.5 297t-39 292t-86 170q-121 121 -397 121 l-223 -4v-1165z" />
<glyph unicode="E" horiz-adv-x="1220" d="M229 0v1495h858v-168h-665v-471h577v-164h-577v-524h676v-168h-869z" />
<glyph unicode="F" horiz-adv-x="1153" d="M229 0v1495h863v-168h-670v-504h571v-164h-571v-659h-193z" />
<glyph unicode="G" horiz-adv-x="1376" d="M113 748q0 164 56 307t151.5 242.5t225 156.5t273.5 57q234 0 387 -73v-156q-168 59 -383 59q-257 0 -379 -118q-45 -45 -80.5 -174t-35.5 -301q0 -166 37.5 -296.5t80.5 -175.5q50 -51 146.5 -84.5t238.5 -33.5q39 0 68.5 1t58 4.5t39 4.5t42 7t36.5 7v416h-311v160h479 v-674q-5 -2 -26 -13.5t-29.5 -15.5t-31 -14t-38 -15t-41.5 -13t-51.5 -12t-58 -8.5t-69.5 -6.5t-79 -2q-144 0 -273.5 57t-225 156t-151.5 242.5t-56 308.5z" />
<glyph unicode="H" horiz-adv-x="1572" d="M225 0v1495h193v-641h737v641h193v-1495h-193v690h-737v-690h-193z" />
<glyph unicode="I" horiz-adv-x="671" d="M238 0v1495h196v-1495h-196z" />
<glyph unicode="J" horiz-adv-x="921" d="M31 57v162q29 -19 107.5 -41t144.5 -22q115 0 166 51q25 25 38 98t13 252v938h196v-950q0 -275 -109 -418t-298 -143q-77 0 -151.5 24t-106.5 49z" />
<glyph unicode="K" horiz-adv-x="1355" d="M225 0v1495h193v-678q14 -2 26 10l625 668h236l-672 -707l717 -788h-250l-654 731q-5 5 -12 7.5t-12 2.5h-4v-741h-193z" />
<glyph unicode="L" horiz-adv-x="1138" d="M229 0v1495h195v-1327h694v-168h-889z" />
<glyph unicode="M" horiz-adv-x="1873" d="M225 0v1495h174l420 -635q45 -67 131 -217q83 145 131 219l394 633h174v-1495h-193v1014q0 88 6 196q-11 -21 -36 -74t-42.5 -86.5t-33.5 -58.5l-369 -588h-66l-393 592q-12 18 -27.5 46t-26 49.5t-30.5 63t-28 58.5q8 -148 8 -200v-1012h-193z" />
<glyph unicode="N" horiz-adv-x="1581" d="M225 0v1495h148l704 -1001q21 -30 47 -74t42 -72l16 -29q-6 113 -6 181v995h180v-1495h-148l-704 1001q-21 30 -47 75t-42 74l-16 30q7 -133 7 -203v-977h-181z" />
<glyph unicode="O" horiz-adv-x="1583" d="M113 748q0 163 54.5 306.5t147 243t217 156.5t261.5 57t261 -57.5t216 -157.5t146 -243.5t54 -307.5t-54 -306.5t-146 -241.5t-216 -156t-261 -57q-138 0 -262.5 57.5t-216.5 157t-146.5 242.5t-54.5 307zM330 748q0 -168 33 -298.5t73 -173.5q114 -118 359 -118 q129 0 217 33.5t137 82.5q43 43 73.5 171t30.5 303t-31 302t-73 171q-114 118 -354 118q-243 0 -359 -116q-42 -44 -74 -172.5t-32 -302.5z" />
<glyph unicode="P" horiz-adv-x="1261" d="M225 0v1493q226 8 398 8q269 0 428 -121t159 -346q0 -112 -45 -200t-123 -142.5t-177 -83t-212 -28.5q-141 0 -235 6v-586h-193zM418 752q90 -4 203 -4q139 0 203 14t98 39q30 23 53.5 80t23.5 157q0 95 -23.5 155.5t-51.5 82.5q-72 59 -303 59l-203 -4v-579z" />
<glyph unicode="Q" horiz-adv-x="1589" d="M113 748q0 164 54.5 307t146.5 242.5t216.5 156.5t262.5 57q137 0 261 -57.5t216 -157.5t146 -243.5t54 -307.5q0 -274 -141 -470.5t-362 -258.5q61 -65 102 -98q20 -16 72 -33.5t110 -17.5q60 0 110.5 7.5t70.5 14.5l20 7v-158q-7 -5 -21.5 -12.5t-68 -20t-117.5 -12.5 q-163 0 -313 137q-31 28 -54.5 53.5t-53.5 63.5t-36 45q-137 1 -261 57t-215 154t-145 239.5t-54 305.5zM326 748q0 -166 34.5 -292t75.5 -171q121 -125 359 -125q227 0 354 123q44 44 76 168t32 297t-32.5 301t-75.5 172q-124 120 -354 120q-241 0 -359 -118 q-43 -45 -76.5 -173.5t-33.5 -301.5z" />
<glyph unicode="R" horiz-adv-x="1402" d="M229 0v1493q234 8 406 8q176 0 302.5 -45.5t199.5 -146t73 -250.5q0 -165 -98 -270t-256 -146q14 -18 101 -133.5t202.5 -269t181.5 -240.5h-233l-455 625h-233v-625h-191zM420 786h213q96 0 162.5 10.5t86 19t42.5 22.5q27 16 52 72t25 149q0 94 -25 151t-52 74 q-23 15 -42.5 23.5t-85 19t-161.5 10.5l-215 -4v-547z" />
<glyph unicode="S" horiz-adv-x="1253" d="M113 117v170q54 -26 84 -39t100.5 -39t148.5 -38.5t162 -12.5q107 0 183.5 22.5t97.5 50.5q37 52 37 174t-35 160q-26 28 -66.5 46.5t-113.5 37.5q-20 5 -93 22t-125 32t-104 34q-116 44 -192 139.5t-76 223.5q0 77 32 149t92.5 131.5t159.5 95t222 35.5q251 0 426 -108 v-158q-208 96 -432 96q-101 0 -171 -23t-92 -50q-35 -45 -35 -162t33 -150q43 -43 179 -75q14 -3 71.5 -16.5t85.5 -20.5t76 -21t88 -28q122 -44 198 -140.5t76 -232.5q0 -191 -142 -314.5t-386 -123.5q-114 0 -218.5 24.5t-156 48.5t-114.5 60z" />
<glyph unicode="T" horiz-adv-x="1247" d="M41 1327v168h1165v-168h-485v-1327h-195v1327h-485z" />
<glyph unicode="U" horiz-adv-x="1568" d="M217 590v905h197v-838q0 -321 88 -409q33 -33 105 -60.5t177 -27.5q106 0 179 27.5t106 60.5t59.5 130t26.5 279v838h197v-905q0 -174 -77.5 -313.5t-207 -216t-283.5 -76.5q-155 0 -284 76.5t-206 216t-77 313.5z" />
<glyph unicode="V" horiz-adv-x="1370" d="M25 1495h202l435 -1143q11 -29 34 -133q22 98 35 133l428 1143h191l-582 -1501h-162z" />
<glyph unicode="W" horiz-adv-x="2117" d="M94 1495h195l295 -1106q8 -32 16.5 -90.5t9.5 -62.5q20 110 33 153l350 1106h154l340 -1106q24 -79 37 -153q8 94 24 153l295 1106h180l-417 -1501h-176l-340 1108q-7 24 -12 50t-8.5 56.5t-6.5 44.5q-21 -120 -31 -151l-346 -1108h-176z" />
<glyph unicode="X" horiz-adv-x="1343" d="M25 0l534 760l-506 735h230l313 -461q48 -72 88 -139q40 67 88 139l324 461h207l-512 -727l528 -768h-229l-357 524q-28 40 -63 105q-54 -87 -68 -107l-362 -522h-215z" />
<glyph unicode="Y" horiz-adv-x="1267" d="M14 1495h217l326 -561q40 -69 90 -180q47 108 90 180l318 561h200l-516 -901v-594h-196v594z" />
<glyph unicode="Z" horiz-adv-x="1206" d="M51 0v127l744 1057q32 44 116 143h-792v168h1018v-133l-729 -1040q-53 -76 -121 -154h868v-168h-1104z" />
<glyph unicode="[" horiz-adv-x="722" d="M225 -440v1956h437v-158h-252v-1641h252v-157h-437z" />
<glyph unicode="\" horiz-adv-x="858" d="M-72 1511h154l848 -1822h-154z" />
<glyph unicode="]" horiz-adv-x="722" d="M61 -283h252v1641h-252v158h437v-1956h-437v157z" />
<glyph unicode="^" horiz-adv-x="1003" d="M61 922l406 589h72l403 -589h-199l-180 278l-63 119q-48 -92 -64 -119l-182 -278h-193z" />
<glyph unicode="_" horiz-adv-x="909" d="M0 -289h909v-157h-909v157z" />
<glyph unicode="`" horiz-adv-x="651" d="M123 1481v35h205l221 -314h-123z" />
<glyph unicode="a" d="M115 287q0 155 130.5 243t385.5 88h92v41q0 88 -6 123t-25 58q-38 43 -147 43q-167 0 -344 -84v145q169 96 348 96q161 0 258.5 -89.5t97.5 -256.5v-471q0 -56 33 -74q19 -10 50 -10q24 0 56 6v-127q-46 -30 -124 -30q-59 0 -106 32t-73 93q-49 -37 -87.5 -60.5t-102 -45 t-129.5 -21.5q-83 0 -151.5 32.5t-112 102t-43.5 166.5zM307 291q0 -95 43 -129q29 -23 101 -23q75 0 156.5 33t115.5 76v231h-47q-102 0 -148.5 -1.5t-97.5 -12.5t-76 -33q-47 -42 -47 -141z" />
<glyph unicode="b" horiz-adv-x="1218" d="M184 0v1491l183 35v-631q62 69 130.5 107t166.5 38q197 0 326.5 -148.5t129.5 -379.5q0 -230 -131 -379t-325 -149q-56 0 -101.5 12t-82.5 37t-60.5 47t-57.5 59l-22 -139h-156zM367 283q121 -140 290 -140q149 0 207 70q26 34 44 115t18 184q0 107 -17.5 187.5 t-44.5 115.5q-60 68 -207 68q-176 0 -290 -127v-473z" />
<glyph unicode="c" horiz-adv-x="940" d="M98 512q0 151 66.5 272.5t179 188.5t246.5 67q152 0 278 -61v-150q-123 52 -276 52q-171 0 -234 -74q-28 -36 -46.5 -113t-18.5 -182q0 -100 19.5 -175.5t47.5 -111.5q27 -33 87.5 -55.5t144.5 -22.5q162 0 276 54v-150q-104 -67 -278 -67q-134 0 -246.5 67t-179 188.5 t-66.5 272.5z" />
<glyph unicode="d" horiz-adv-x="1222" d="M102 512q0 229 131.5 378.5t325.5 149.5q96 0 165.5 -37.5t131.5 -103.5v592l182 35v-1526h-155l-21 139q-64 -75 -131 -115t-172 -40q-197 0 -327 148.5t-130 379.5zM297 512q0 -103 17.5 -184t43.5 -115q58 -70 207 -70q176 0 291 133v482q-112 125 -291 125 q-147 0 -207 -68q-27 -35 -44 -115.5t-17 -187.5z" />
<glyph unicode="e" horiz-adv-x="1099" d="M106 508q0 230 136 381t338 151q191 0 312.5 -138t121.5 -370l-4 -63h-709q6 -179 61 -248q26 -32 92 -54t152 -22q45 0 86.5 4t69 8.5t60.5 13.5t47.5 14t43.5 16.5t35 13.5v-145l-14 -7q-15 -7 -20.5 -9.5t-23 -10.5t-29 -12t-32.5 -11.5t-38 -11.5t-41 -9t-46.5 -8 t-50 -5t-55.5 -2q-208 0 -350 147.5t-142 376.5zM305 606h524q0 65 -13.5 124.5t-33.5 84.5q-62 70 -211 70q-147 0 -209 -70q-45 -58 -57 -209z" />
<glyph unicode="f" horiz-adv-x="823" d="M63 870v154h205v55q0 223 97.5 335t248.5 112q110 0 193 -45v-148q-85 33 -193 33q-86 0 -125 -45q-21 -26 -29.5 -77.5t-8.5 -166.5v-53h342v-154h-340v-870h-185v870h-205z" />
<glyph unicode="g" horiz-adv-x="1210" d="M102 514q0 229 130.5 377.5t324.5 148.5q52 0 95.5 -12t80.5 -36t60.5 -45.5t56.5 -55.5l20 131h158v-999q0 -114 -36.5 -204.5t-101 -147.5t-148.5 -87t-181 -30q-203 0 -381 98v149q42 -18 66.5 -27.5t78.5 -26.5t113.5 -25.5t122.5 -8.5q170 0 236 66q27 27 38 76.5 t11 167.5v108q-61 -66 -127.5 -102.5t-159.5 -36.5q-195 0 -326 146.5t-131 375.5zM297 514q0 -103 17.5 -181t43.5 -112q57 -69 211 -69q173 0 277 108v496q-110 127 -281 127q-147 0 -207 -68q-27 -35 -44 -114.5t-17 -186.5z" />
<glyph unicode="h" horiz-adv-x="1210" d="M184 0v1491l183 35v-635q149 149 319 149q156 0 256 -110.5t100 -286.5v-643h-184v623q0 167 -47 217q-15 16 -63 28q-36 9 -87 10q-16 0 -34 -1q-87 -6 -157 -46t-103 -90v-741h-183z" />
<glyph unicode="i" horiz-adv-x="561" d="M156 1391q0 53 36 89t89 36t89 -36t36 -89t-36 -89t-89 -36t-89 36t-36 89zM188 0v1024h185v-1024h-185z" />
<glyph unicode="j" horiz-adv-x="604" d="M-109 -248q102 -39 177 -39q43 0 73.5 10t39.5 18.5t20 22.5q26 37 26 236v1024h185v-1026q0 -205 -96 -324.5t-248 -119.5q-85 0 -177 47v151zM195 1391q0 53 36 89t88 36q53 0 89 -36t36 -89t-36 -89t-89 -36q-52 0 -88 36t-36 89z" />
<glyph unicode="k" horiz-adv-x="1071" d="M184 0v1491l181 35v-955q12 3 24 15l422 438h227l-473 -477l486 -547h-230l-430 498q-4 5 -10.5 8t-10.5 4h-5v-510h-181z" />
<glyph unicode="l" horiz-adv-x="606" d="M186 225v1266l185 35v-1301q0 -55 34 -73q20 -10 58 -11q28 0 67 6v-133q-59 -26 -137 -26q-88 0 -147.5 61t-59.5 176z" />
<glyph unicode="m" horiz-adv-x="1775" d="M184 0v1024h160l23 -145q69 74 139.5 117.5t161.5 43.5q186 0 278 -163q72 74 150.5 118.5t181.5 44.5q146 0 237 -110t91 -287v-643h-185v621q0 101 -7.5 149.5t-27.5 69.5q-38 38 -132 38q-15 0 -31 -1q-87 -6 -147 -43.5t-91 -90.5v-743h-180v621q0 99 -8.5 148 t-28.5 71q-38 38 -130 38q-15 0 -30 -1q-87 -5 -148 -47t-91 -95v-735h-185z" />
<glyph unicode="n" horiz-adv-x="1206" d="M180 0v1024h158l24 -141q149 157 320 157q156 0 256 -110.5t100 -286.5v-643h-184v623q0 167 -47 217q-38 38 -145 38q-13 0 -27 -1q-88 -6 -161 -46t-109 -90v-741h-185z" />
<glyph unicode="o" horiz-adv-x="1175" d="M98 512q0 228 141.5 378t348.5 150q209 0 349 -148.5t140 -379.5q0 -228 -141.5 -378t-347.5 -150q-207 0 -348.5 150t-141.5 378zM293 512q0 -103 17.5 -182t43.5 -113q26 -33 87.5 -54.5t146.5 -21.5q83 0 144.5 21.5t88.5 52.5q27 35 44.5 113.5t17.5 183.5 q0 106 -17 184t-45 113q-27 31 -88.5 52.5t-144.5 21.5q-84 0 -146 -20.5t-88 -51.5q-61 -71 -61 -299z" />
<glyph unicode="p" horiz-adv-x="1218" d="M184 -434v1458h156l22 -131q42 45 78.5 73.5t96.5 51t129 22.5q194 0 324 -149t130 -379t-131 -379t-325 -149q-95 0 -163.5 36t-133.5 99v-553h-183zM367 260q121 -117 290 -117q149 0 207 70q26 34 44 115t18 184q0 107 -17.5 187.5t-44.5 115.5q-60 68 -207 68 q-182 0 -290 -125v-498z" />
<glyph unicode="q" horiz-adv-x="1216" d="M98 512q0 230 130.5 379t324.5 149q99 0 167.5 -39t135.5 -110l23 133h155v-1458h-182v565q-64 -69 -133 -108t-164 -39q-194 0 -325.5 149.5t-131.5 378.5zM293 512q0 -103 17.5 -183t43.5 -114q60 -72 207 -72q180 0 291 115v498q-114 127 -291 127q-147 0 -207 -68 q-27 -35 -44 -115.5t-17 -187.5z" />
<glyph unicode="r" horiz-adv-x="794" d="M184 0v1024h158l25 -174q32 42 57.5 69.5t63.5 58.5t84 46.5t100 15.5q41 0 73 -8v-186q-54 12 -114 12q-96 0 -168 -56t-94 -114v-688h-185z" />
<glyph unicode="s" horiz-adv-x="960" d="M121 82v154q1 -1 20.5 -10t26 -11.5t28 -12t33 -13.5t35 -12t40 -12.5t41.5 -10t46 -8.5t47 -5t51 -2q130 0 175 45q22 22 24 94v13q0 62 -18 82q-27 35 -160 59q-68 13 -120.5 28.5t-104 41t-85 57.5t-54.5 78.5t-21 103.5q0 53 22.5 105t65.5 96t114.5 71t159.5 27 q186 0 320 -75v-148q-45 20 -78 31.5t-100 24t-142 12.5q-122 0 -165 -43q-22 -22 -24 -90q0 -5 -1 -10q0 -59 18 -78q28 -28 152 -50q89 -17 155 -39.5t123 -58t87 -90t30 -125.5q0 -137 -105.5 -227t-273.5 -90q-193 0 -362 98z" />
<glyph unicode="t" horiz-adv-x="872" d="M72 870v154h202v291l177 35v-326h331v-154h-333v-469q0 -167 32 -208q40 -46 115 -46q107 0 186 33v-149q-92 -47 -190 -47q-141 0 -234.5 104.5t-93.5 310.5v471h-192z" />
<glyph unicode="u" horiz-adv-x="1202" d="M168 381v643h184v-623q0 -167 47 -217q38 -38 141 -38q12 0 25 1q88 5 161 49t112 95v733h184v-1024h-156l-20 152q-160 -168 -324 -168q-156 0 -255 110.5t-99 286.5z" />
<glyph unicode="v" horiz-adv-x="1009" d="M25 1024h194l254 -686q8 -21 41 -150q33 129 41 150l248 686h182l-401 -1032h-158z" />
<glyph unicode="w" horiz-adv-x="1585" d="M51 1024h193l182 -668q13 -46 33 -166q12 90 39 166l233 668h158l221 -668q28 -86 39 -166q15 90 37 166l182 668h168l-307 -1032h-162l-225 674q-30 93 -41 180q-24 -134 -41 -180l-242 -674h-162z" />
<glyph unicode="x" horiz-adv-x="1005" d="M37 0l366 516l-346 508h209l176 -262l76 -121q47 80 76 121l182 262h189l-353 -500l357 -524h-209l-193 289l-65 108q-43 -69 -70 -108l-199 -289h-196z" />
<glyph unicode="y" horiz-adv-x="1017" d="M25 1024h198l269 -684q20 -52 43 -143q24 95 40 141l238 686h180l-377 -1020q-90 -238 -173.5 -340t-213.5 -102q-92 0 -176 47v155q103 -38 176 -38q70 0 101 26q46 46 119 248z" />
<glyph unicode="z" horiz-adv-x="954" d="M74 0v129l471 602q40 53 121 141h-551v152h753v-133l-465 -600q-79 -96 -118 -139h596v-152h-807z" />
<glyph unicode="{" horiz-adv-x="724" d="M72 461v153q108 0 145 37q31 31 31 209v234q0 215 80.5 318.5t251.5 103.5h84v-158h-84q-86 0 -119 -33q-29 -29 -29 -235v-232q0 -251 -149 -321q149 -67 149 -320v-231q0 -207 29 -236q33 -33 119 -33h84v-157h-84q-171 0 -251.5 103.5t-80.5 318.5v233q0 178 -31 209 q-37 37 -145 37z" />
<glyph unicode="|" horiz-adv-x="598" d="M225 -311v1822h148v-1822h-148z" />
<glyph unicode="}" horiz-adv-x="724" d="M61 -283h84q86 0 119 33q29 29 29 236v231q0 253 149 320q-149 70 -149 321v232q0 206 -29 235q-33 33 -119 33h-84v158h84q171 0 251.5 -103.5t80.5 -318.5v-234q0 -178 31 -209q37 -37 145 -37v-153q-108 0 -145 -37q-31 -31 -31 -209v-233q0 -215 -80.5 -318.5 t-251.5 -103.5h-84v157z" />
<glyph unicode="~" horiz-adv-x="1161" d="M123 584q6 127 86 205.5t201 78.5q51 0 93.5 -15.5t71.5 -38t54.5 -44.5t56.5 -37.5t66 -15.5q61 0 84 20q11 11 18.5 50.5t7.5 80.5h176q-6 -127 -85.5 -205.5t-200.5 -78.5q-51 0 -93 15.5t-71 38t-55 44.5t-57 37.5t-66 15.5q-61 0 -84 -20q-12 -12 -19.5 -51.5 t-7.5 -79.5h-176z" />
<glyph unicode="&#xa1;" horiz-adv-x="602" d="M164 940q0 57 40 97t97 40t97 -40t40 -97t-40 -97t-97 -40t-97 40t-40 97zM186 -434l41 1009h148l43 -1009h-232z" />
<glyph unicode="&#xa2;" horiz-adv-x="954" d="M98 512q0 199 114 338.5t290 169.5v250h162v-246q102 -9 213 -57v-150q-144 53 -285 53q-173 0 -238 -69q-61 -78 -61 -289q0 -98 18 -172t45 -109q27 -30 89.5 -51.5t146.5 -21.5q57 0 119 10.5t88 18.5l78 24v-148q-97 -54 -213 -63v-246h-162v248q-176 31 -290 171 t-114 339z" />
<glyph unicode="&#xa3;" horiz-adv-x="1136" d="M20 0q0 138 91 223q71 67 88 88q59 72 72 195q5 47 5 108h-188v154h188v201q0 262 115.5 402t306.5 140q84 0 160 -24t109 -49v-158q-30 20 -108.5 41.5t-156.5 21.5q-127 0 -180 -53q-17 -17 -27 -40.5t-19 -97.5t-9 -196v-188h403v-154h-407q-6 -159 -39 -223 q-18 -37 -57 -76q57 0 104 -17t80.5 -41t65 -47.5t71.5 -40.5t86 -17q74 0 100 26q33 33 33 129h209q-15 -146 -110 -234.5t-234 -88.5q-58 0 -106 17t-81.5 41.5t-64.5 49t-71 41.5t-87 17q-70 0 -96 -23q-37 -37 -37 -127h-209z" />
<glyph unicode="&#xa4;" horiz-adv-x="1165" d="M82 369l156 155q-74 112 -74 234q0 126 74 235l-156 158l111 111l157 -158q112 74 234 74q119 0 231 -74l158 158l110 -111l-157 -158q75 -105 75 -235q0 -121 -75 -234l157 -155l-110 -111l-158 158q-112 -74 -231 -74q-122 0 -234 74l-157 -158zM344 758 q0 -75 16 -130.5t41 -78.5q64 -60 183 -60q120 0 182 58q24 23 39.5 78.5t15.5 132.5q0 162 -55 213q-63 59 -182 59q-122 0 -183 -57q-25 -23 -41 -79.5t-16 -135.5z" />
<glyph unicode="&#xa5;" horiz-adv-x="1232" d="M16 1495h217l306 -549q38 -65 90 -172q47 101 90 172l297 549h201l-410 -727h319v-154h-405v-165h405v-154h-405v-295h-197v295h-405v154h405v165h-405v154h319z" />
<glyph unicode="&#xa6;" horiz-adv-x="598" d="M225 -311v676h148v-676h-148zM225 836v675h148v-675h-148z" />
<glyph unicode="&#xa7;" horiz-adv-x="1177" d="M123 635q0 105 73 191.5t191 131.5q-172 98 -172 252q0 50 26.5 102.5t73.5 97t122.5 73t164.5 28.5q75 0 138.5 -13t95 -26.5t77.5 -37.5v-152q-6 2 -30 12.5t-34 14.5t-34.5 12.5t-43.5 12.5t-46 9t-58 7t-65 2q-60 0 -100 -7t-62.5 -17t-34 -30.5t-14 -39.5t-2.5 -52 q0 -22 4 -39.5t8.5 -30.5t17.5 -24t22.5 -17.5t31.5 -15.5t35.5 -13.5t45 -14t50.5 -15.5q87 -28 151.5 -55t123.5 -62.5t96 -75.5t58.5 -92.5t21.5 -115.5q0 -115 -75 -199.5t-194 -126.5q183 -104 183 -254q0 -131 -117.5 -224t-286.5 -93q-81 0 -156 18t-113 35.5 t-89 46.5v158q3 -1 30 -14t40 -18.5t43 -18t54.5 -18.5t57.5 -14t68 -11.5t71 -3.5q94 0 140.5 15.5t61.5 46t15 93.5q0 27 -3.5 47t-15 35.5t-20.5 24.5t-33.5 19.5t-39.5 15.5t-53 16t-60 18q-63 22 -104 37.5t-92 38.5t-83 44t-66 51.5t-52.5 63.5t-30.5 76.5t-12 94.5z M307 633q0 -108 19 -127q25 -25 97.5 -58.5t162.5 -58.5q96 0 171 29.5t97 75.5q16 29 16 139q0 100 -18 121q-23 28 -96.5 62t-173.5 63q-93 0 -164.5 -36t-93.5 -83q-17 -34 -17 -127z" />
<glyph unicode="&#xa8;" horiz-adv-x="839" d="M82 1370q0 46 33 79.5t80 33.5q45 0 77.5 -33.5t32.5 -79.5t-32.5 -79.5t-77.5 -33.5q-47 0 -80 33.5t-33 79.5zM532 1370q0 46 33.5 79.5t79.5 33.5q47 0 80 -33.5t33 -79.5t-33 -79.5t-80 -33.5q-46 0 -79.5 33.5t-33.5 79.5z" />
<glyph unicode="&#xa9;" horiz-adv-x="1816" d="M143 748q0 164 61.5 307t165.5 242.5t244 156.5t295 57q154 0 294 -56.5t243.5 -156t165 -243.5t61.5 -310t-61.5 -309.5t-165.5 -241.5t-243.5 -154t-293.5 -56q-207 0 -382 97t-279.5 273t-104.5 394zM326 748q0 -169 49.5 -295.5t101.5 -178.5q60 -54 172.5 -95.5 t261.5 -41.5q145 0 258.5 40.5t171.5 90.5q56 48 103 176.5t47 303.5q0 176 -47.5 302.5t-102.5 176.5q-58 52 -171 91.5t-259 39.5t-260 -40.5t-174 -92.5q-56 -50 -103.5 -176t-47.5 -301zM520 748q0 180 120.5 308t297.5 128q77 0 128.5 -14t111.5 -42v-145 q-104 45 -236 45q-127 0 -182 -59q-51 -65 -51 -221q0 -142 51 -213q60 -64 182 -64q127 0 236 49v-145q-33 -18 -58 -29t-75 -22t-107 -11q-116 0 -212.5 59.5t-151 159t-54.5 216.5z" />
<glyph unicode="&#xaa;" horiz-adv-x="952" d="M102 1130q0 127 107 200t319 73h72v39q0 72 -6 103t-21 46q-33 33 -120 33q-32 0 -65 -4t-55.5 -9t-52 -15t-41 -14.5t-37 -15.5t-26.5 -12v123q136 76 281 76q138 0 218.5 -72.5t80.5 -210.5v-399q0 -43 28 -57.5t86 -3.5v-105q-39 -24 -102 -24q-49 0 -90 26t-62 74 q-40 -30 -71 -48.5t-83 -36t-106 -17.5q-106 0 -180 67t-74 184zM264 1133q0 -83 35 -109q21 -18 86 -18q61 0 124 25.5t91 60.5v194h-35q-83 0 -121 -1.5t-79.5 -9.5t-61.5 -26q-39 -34 -39 -116z" />
<glyph unicode="&#xab;" horiz-adv-x="1077" d="M72 496v71l336 375h186l-371 -410l371 -411h-186zM483 496v71l336 375h187l-371 -410l371 -411h-187z" />
<glyph unicode="&#xac;" horiz-adv-x="1165" d="M123 692v158h909v-459h-158v301h-751z" />
<glyph unicode="&#xad;" horiz-adv-x="759" d="M123 549v158h514v-158h-514z" />
<glyph unicode="&#xae;" horiz-adv-x="1816" d="M143 748q0 164 61.5 307t165.5 242.5t244 156.5t295 57q154 0 294 -56.5t243.5 -156t165 -243.5t61.5 -310t-61.5 -309.5t-165.5 -241.5t-243.5 -154t-293.5 -56q-207 0 -382 97t-279.5 273t-104.5 394zM326 748q0 -169 49.5 -295.5t101.5 -178.5q60 -54 172.5 -95.5 t261.5 -41.5q145 0 258.5 40.5t171.5 90.5q56 48 103 176.5t47 303.5q0 176 -47.5 302.5t-102.5 176.5q-58 52 -171 91.5t-259 39.5t-260 -40.5t-174 -92.5q-56 -50 -103.5 -176t-47.5 -301zM633 332v831q106 8 274 8q159 0 252.5 -66.5t93.5 -193.5q0 -57 -18.5 -101.5 t-50.5 -72t-64.5 -43.5t-70.5 -26q8 -10 50 -66.5t105.5 -142t95.5 -127.5h-192l-231 321q-13 0 -30.5 0.5t-29.5 0.5l-12 1v-323h-172zM805 786h98q105 0 133 23q14 10 25.5 36t11.5 66q0 78 -35 107q-26 22 -133 22l-100 -2v-252z" />
<glyph unicode="&#xb0;" horiz-adv-x="913" d="M123 1169q0 146 97 242t237 96q139 0 236.5 -96t97.5 -242q0 -148 -97.5 -246t-236.5 -98q-140 0 -237 97.5t-97 246.5zM293 1169q0 -59 10 -105.5t23 -59.5q14 -15 49 -27t82 -12t82 12t49 27q12 16 22.5 61.5t10.5 103.5t-10.5 102t-22.5 60q-14 15 -49 27t-82 12 t-82 -12t-49 -27q-13 -15 -23 -59t-10 -103z" />
<glyph unicode="&#xb1;" horiz-adv-x="1273" d="M125 276v152h1024v-152h-1024zM125 872v152h434v434h156v-434h434v-152h-434v-315h-156v315h-434z" />
<glyph unicode="&#xb2;" horiz-adv-x="837" d="M123 889v102q321 317 371 381q26 33 26 113t-26 106q-27 27 -95 27q-115 0 -249 -82v129q127 88 247 88q127 0 203 -78.5t76 -189.5q0 -23 -6 -46.5t-12.5 -42t-25 -45t-30.5 -42.5t-42 -49t-45.5 -49t-57 -57.5t-60.5 -61.5l-75 -68h372v-135h-571z" />
<glyph unicode="&#xb3;" horiz-adv-x="843" d="M123 956v131q135 -73 266 -73q53 0 88.5 9.5t46.5 20.5q29 29 29 115q0 82 -29 111q-11 11 -47.5 20.5t-91.5 9.5q-29 0 -62 -2.5t-51 -5.5l-18 -2v111l154 135q16 15 39.5 33.5t38.5 29.5l16 11h-340v131h512v-117q-57 -49 -170 -147q-16 -14 -37 -30t-34 -25l-13 -9 q123 0 208 -68.5t85 -183.5q0 -117 -91.5 -199.5t-234.5 -82.5q-141 0 -264 77z" />
<glyph unicode="&#xb4;" horiz-adv-x="651" d="M102 1202l222 314h204v-35l-303 -279h-123z" />
<glyph unicode="&#xb5;" horiz-adv-x="1226" d="M184 -434v1458h185v-623q0 -167 47 -217q46 -46 174 -41q88 5 160 47t110 93v741h184v-1024h-159l-21 143q-151 -159 -321 -159q-96 0 -174 43v-461h-185z" />
<glyph unicode="&#xb6;" horiz-adv-x="1132" d="M123 1083q0 98 33.5 177t93 130t138.5 78t171 27h471v-154h-287v-1159q0 -205 -96 -324.5t-248 -119.5q-84 0 -176 47v152q102 -39 176 -39q43 0 73.5 10t39.5 18.5t20 22.5q27 39 27 235v488q-118 0 -215.5 46.5t-159 142t-61.5 222.5z" />
<glyph unicode="&#xb7;" horiz-adv-x="499" d="M113 614q0 57 40 97.5t97 40.5t97 -40.5t40 -97.5t-40 -97t-97 -40t-97 40t-40 97z" />
<glyph unicode="&#xb8;" horiz-adv-x="583" d="M123 -287l227 287h111l-133 -287h-205z" />
<glyph unicode="&#xb9;" horiz-adv-x="763" d="M164 889v135h168v545q-47 -21 -88 -35l-80 -29v131l311 117v-729h156v-135h-467z" />
<glyph unicode="&#xba;" horiz-adv-x="1044" d="M119 1315q0 187 117 312.5t286 125.5q170 0 287 -124t117 -314q0 -186 -117.5 -311t-286.5 -125t-286 125t-117 311zM279 1315q0 -83 15.5 -147t37.5 -93q22 -26 71.5 -43.5t118.5 -17.5q68 0 118.5 17t72.5 42q23 29 38 93.5t15 148.5q0 87 -15 152t-38 94 q-22 25 -72 41t-119 16t-118.5 -16t-71.5 -41q-23 -29 -38 -94t-15 -152z" />
<glyph unicode="&#xbb;" horiz-adv-x="1077" d="M72 121l370 411l-370 410h186l336 -375v-71l-336 -375h-186zM483 121l371 411l-371 410h187l336 -375v-71l-336 -375h-187z" />
<glyph unicode="&#xbc;" horiz-adv-x="1648" d="M102 641v135h168v545q-47 -21 -88 -35l-80 -29v132l312 116v-729h155v-135h-467zM154 0l1132 1495h174l-1132 -1495h-174zM920 215v115l397 528h125v-512h135v-131h-135v-215h-144v215h-378zM1081 340q1 0 25 1.5t52 3t40 1.5h100v178l7 117z" />
<glyph unicode="&#xbd;" horiz-adv-x="1642" d="M102 641v135h168v545q-47 -21 -88 -35l-80 -29v132l312 116v-729h155v-135h-467zM154 0l1132 1495h174l-1132 -1495h-174zM969 0v102q316 312 370 381q27 35 27 113q0 79 -27 106t-94 27q-116 0 -250 -82v129q127 88 248 88q127 0 203 -78.5t76 -189.5q0 -23 -6 -46.5 t-12.5 -42t-25 -45t-30.5 -42.5t-42 -49t-45.5 -49t-57 -57.5t-60.5 -61.5q-16 -16 -35 -33t-30 -26l-11 -9h373v-135h-571z" />
<glyph unicode="&#xbe;" horiz-adv-x="1679" d="M92 711v131q137 -74 266 -74q53 0 88 10t46 21q28 28 28 114q0 83 -28 111q-11 11 -47 21t-91 10q-29 0 -62 -2.5t-51 -5.5l-18 -3v111l152 135q16 15 39.5 33.5t39.5 29.5l15 11h-338v131h518v-117q-55 -49 -166 -147q-16 -14 -38 -30t-36 -25l-14 -9q119 0 202 -69 t83 -183q0 -110 -92 -196t-232 -86t-264 78zM184 0l1133 1495h174l-1133 -1495h-174zM950 215v115l398 528h125v-512h135v-131h-135v-215h-144v215h-379zM1112 340q1 0 25 1.5t52 3t40 1.5h100v178l6 117z" />
<glyph unicode="&#xbf;" horiz-adv-x="917" d="M51 -72q0 40 8 77.5t17.5 64.5t29.5 55t31.5 43t36 36.5t31.5 26.5t28 21q69 50 100.5 74t65 58.5t52.5 68.5q8 18 13.5 52.5t7.5 59.5l1 25h158q14 -180 -109 -295q-35 -33 -117.5 -95.5t-123.5 -101.5q-25 -23 -34.5 -93t0 -139.5t34.5 -92.5q31 -27 78 -42.5 t141 -15.5q86 0 168 23.5t120 44.5t85 51q8 6 12 8v-161q-24 -19 -56 -38.5t-81 -42.5t-114.5 -37t-133.5 -14q-191 0 -320 112.5t-129 266.5zM414 940q0 57 40 97t97 40t97 -40t40 -97t-40 -97t-97 -40t-97 40t-40 97z" />
<glyph unicode="&#xc0;" horiz-adv-x="1427" d="M41 0l592 1501h162l591 -1501h-200l-166 430h-627l-164 -430h-188zM397 1952v35h205l221 -314h-123zM455 590h503l-215 559q-9 24 -14.5 44.5t-11.5 51.5t-8 39q-17 -77 -39 -135z" />
<glyph unicode="&#xc1;" horiz-adv-x="1427" d="M41 0l592 1501h162l591 -1501h-200l-166 430h-627l-164 -430h-188zM455 590h503l-215 559q-9 24 -14.5 44.5t-11.5 51.5t-8 39q-17 -77 -39 -135zM602 1673l221 314h205v-35l-303 -279h-123z" />
<glyph unicode="&#xc2;" horiz-adv-x="1427" d="M41 0l592 1501h162l591 -1501h-200l-166 430h-627l-164 -430h-188zM385 1673l242 314h164l241 -314h-123l-200 185l-201 -185h-123zM455 590h503l-215 559q-9 24 -14.5 44.5t-11.5 51.5t-8 39q-17 -77 -39 -135z" />
<glyph unicode="&#xc3;" horiz-adv-x="1427" d="M41 0l592 1501h162l591 -1501h-200l-166 430h-627l-164 -430h-188zM381 1700q0 100 59 168.5t154 68.5q39 0 72.5 -13.5t53 -30.5t49.5 -30.5t62 -13.5q49 0 66 17q18 18 18 71h121q0 -100 -60 -168.5t-155 -68.5q-40 0 -73.5 14t-53.5 30t-49 30t-61 14q-48 0 -64 -16 q-18 -18 -18 -72h-121zM455 590h503l-215 559q-9 24 -14.5 44.5t-11.5 51.5t-8 39q-17 -77 -39 -135z" />
<glyph unicode="&#xc4;" horiz-adv-x="1427" d="M41 0l592 1501h162l591 -1501h-200l-166 430h-627l-164 -430h-188zM358 1749q0 45 34.5 79t84.5 34q47 0 81 -34t34 -79t-34 -78t-81 -33q-50 0 -84.5 33t-34.5 78zM455 590h503l-215 559q-9 24 -14.5 44.5t-11.5 51.5t-8 39q-17 -77 -39 -135zM829 1749q0 44 36 78.5 t83 34.5q50 0 84.5 -34t34.5 -79t-34.5 -78t-84.5 -33q-47 0 -83 33.5t-36 77.5z" />
<glyph unicode="&#xc5;" horiz-adv-x="1427" d="M41 0l592 1501h162l591 -1501h-200l-166 430h-627l-164 -430h-188zM455 590h503l-215 559q-9 24 -14.5 44.5t-11.5 51.5t-8 39q-17 -77 -39 -135zM537 1804q0 72 53 122t125 50q70 0 123 -50t53 -122q0 -75 -52.5 -125.5t-123.5 -50.5q-72 0 -125 50.5t-53 125.5z M641 1804q0 -53 16 -69q17 -17 58 -17q40 0 57 17q16 16 16 69q0 50 -16 66t-57 16q-42 0 -58 -16t-16 -66z" />
<glyph unicode="&#xc6;" horiz-adv-x="1849" d="M8 0l803 1495h905v-168h-643v-471h557v-164h-557v-524h653v-168h-843v430h-449l-225 -430h-201zM518 590h365v723q-24 -71 -80 -180z" />
<glyph unicode="&#xc7;" horiz-adv-x="1245" d="M113 748q0 164 55.5 307t149.5 242.5t221 156.5t268 57q220 0 362 -69v-156q-146 53 -358 53q-135 0 -226.5 -33t-140.5 -83q-44 -45 -79 -174t-35 -301q0 -166 36.5 -295t79.5 -174q115 -119 367 -119q204 0 361 57v-158q-127 -64 -300 -73l-124 -273h-205l213 273 q-135 9 -253.5 68.5t-205 158t-136.5 237.5t-50 298z" />
<glyph unicode="&#xc8;" horiz-adv-x="1220" d="M229 0v1495h858v-168h-665v-471h577v-164h-577v-524h676v-168h-869zM418 1911v35h205l221 -314h-123z" />
<glyph unicode="&#xc9;" horiz-adv-x="1220" d="M229 0v1495h858v-168h-665v-471h577v-164h-577v-524h676v-168h-869zM596 1632l221 314h205v-35l-303 -279h-123z" />
<glyph unicode="&#xca;" horiz-adv-x="1220" d="M229 0v1495h858v-168h-665v-471h577v-164h-577v-524h676v-168h-869zM346 1632l242 314h164l241 -314h-123l-200 185l-201 -185h-123z" />
<glyph unicode="&#xcb;" horiz-adv-x="1220" d="M229 0v1495h858v-168h-665v-471h577v-164h-577v-524h676v-168h-869zM356 1749q0 45 34.5 79t84.5 34q47 0 81 -34t34 -79t-34 -78t-81 -33q-50 0 -84.5 33t-34.5 78zM827 1749q0 44 36 78.5t83 34.5q50 0 84.5 -34t34.5 -79t-34.5 -78t-84.5 -33q-47 0 -83 33.5t-36 77.5 z" />
<glyph unicode="&#xcc;" horiz-adv-x="671" d="M25 1952v35h204l222 -314h-123zM238 0v1495h196v-1495h-196z" />
<glyph unicode="&#xcd;" horiz-adv-x="671" d="M221 1673l221 314h205v-35l-303 -279h-123zM238 0v1495h196v-1495h-196z" />
<glyph unicode="&#xce;" horiz-adv-x="671" d="M12 1673l242 314h164l241 -314h-122l-201 185l-201 -185h-123zM238 0v1495h196v-1495h-196z" />
<glyph unicode="&#xcf;" horiz-adv-x="671" d="M2 1749q0 45 34.5 79t84.5 34q47 0 81 -34t34 -79t-34 -78t-81 -33q-50 0 -84.5 33t-34.5 78zM238 0v1495h196v-1495h-196zM432 1749q0 44 36 78.5t83 34.5q50 0 84.5 -34t34.5 -79t-34.5 -78t-84.5 -33q-47 0 -83 33.5t-36 77.5z" />
<glyph unicode="&#xd0;" horiz-adv-x="1511" d="M53 690v154h193v651q207 6 418 6q159 0 294.5 -53.5t233 -149.5t152.5 -237.5t55 -310.5t-57 -312t-155.5 -240.5t-233.5 -152.5t-289 -55q-94 0 -198.5 2.5t-161.5 5.5l-58 2v690h-193zM438 164q128 -4 224 -4q278 0 397 119q46 46 85.5 174t39.5 297t-39 292t-86 170 q-121 121 -397 121l-224 -4v-485h361v-154h-361v-526z" />
<glyph unicode="&#xd1;" horiz-adv-x="1581" d="M225 0v1495h148l704 -1001q21 -30 47 -74t42 -72l16 -29q-6 113 -6 181v995h180v-1495h-148l-704 1001q-21 30 -47 75t-42 74l-16 30q7 -133 7 -203v-977h-181zM483 1638q0 101 59 169.5t154 68.5q39 0 72.5 -14t53.5 -30t50 -30t62 -14q49 0 65 16q19 19 19 72h121 q0 -100 -60 -169t-155 -69q-40 0 -74 14t-54 30t-49 30t-61 14q-47 0 -63 -16q-19 -19 -19 -72h-121z" />
<glyph unicode="&#xd2;" horiz-adv-x="1583" d="M113 748q0 163 54.5 306.5t147 243t217 156.5t261.5 57t261 -57.5t216 -157.5t146 -243.5t54 -307.5t-54 -306.5t-146 -241.5t-216 -156t-261 -57q-138 0 -262.5 57.5t-216.5 157t-146.5 242.5t-54.5 307zM330 748q0 -168 33 -298.5t73 -173.5q114 -118 359 -118 q129 0 217 33.5t137 82.5q43 43 73.5 171t30.5 303t-31 302t-73 171q-114 118 -354 118q-243 0 -359 -116q-42 -44 -74 -172.5t-32 -302.5zM492 1911v35h204l222 -314h-123z" />
<glyph unicode="&#xd3;" horiz-adv-x="1583" d="M113 748q0 163 54.5 306.5t147 243t217 156.5t261.5 57t261 -57.5t216 -157.5t146 -243.5t54 -307.5t-54 -306.5t-146 -241.5t-216 -156t-261 -57q-138 0 -262.5 57.5t-216.5 157t-146.5 242.5t-54.5 307zM330 748q0 -168 33 -298.5t73 -173.5q114 -118 359 -118 q129 0 217 33.5t137 82.5q43 43 73.5 171t30.5 303t-31 302t-73 171q-114 118 -354 118q-243 0 -359 -116q-42 -44 -74 -172.5t-32 -302.5zM664 1632l221 314h205v-35l-304 -279h-122z" />
<glyph unicode="&#xd4;" horiz-adv-x="1583" d="M113 748q0 163 54.5 306.5t147 243t217 156.5t261.5 57t261 -57.5t216 -157.5t146 -243.5t54 -307.5t-54 -306.5t-146 -241.5t-216 -156t-261 -57q-138 0 -262.5 57.5t-216.5 157t-146.5 242.5t-54.5 307zM330 748q0 -168 33 -298.5t73 -173.5q114 -118 359 -118 q129 0 217 33.5t137 82.5q43 43 73.5 171t30.5 303t-31 302t-73 171q-114 118 -354 118q-243 0 -359 -116q-42 -44 -74 -172.5t-32 -302.5zM467 1632l242 314h163l242 -314h-123l-200 185l-201 -185h-123z" />
<glyph unicode="&#xd5;" horiz-adv-x="1583" d="M113 748q0 163 54.5 306.5t147 243t217 156.5t261.5 57t261 -57.5t216 -157.5t146 -243.5t54 -307.5t-54 -306.5t-146 -241.5t-216 -156t-261 -57q-138 0 -262.5 57.5t-216.5 157t-146.5 242.5t-54.5 307zM330 748q0 -168 33 -298.5t73 -173.5q114 -118 359 -118 q129 0 217 33.5t137 82.5q43 43 73.5 171t30.5 303t-31 302t-73 171q-114 118 -354 118q-243 0 -359 -116q-42 -44 -74 -172.5t-32 -302.5zM479 1638q0 101 59 169.5t154 68.5q39 0 72.5 -14t53.5 -30t50 -30t62 -14q49 0 65 16q19 19 19 72h121q0 -100 -60 -169t-155 -69 q-40 0 -74 14t-54 30t-49 30t-61 14q-48 0 -64 -16q-18 -18 -18 -72h-121z" />
<glyph unicode="&#xd6;" horiz-adv-x="1583" d="M113 748q0 163 54.5 306.5t147 243t217 156.5t261.5 57t261 -57.5t216 -157.5t146 -243.5t54 -307.5t-54 -306.5t-146 -241.5t-216 -156t-261 -57q-138 0 -262.5 57.5t-216.5 157t-146.5 242.5t-54.5 307zM330 748q0 -168 33 -298.5t73 -173.5q114 -118 359 -118 q129 0 217 33.5t137 82.5q43 43 73.5 171t30.5 303t-31 302t-73 171q-114 118 -354 118q-243 0 -359 -116q-42 -44 -74 -172.5t-32 -302.5zM436 1749q0 45 34.5 79t84.5 34q47 0 81 -34t34 -79t-34 -78t-81 -33q-50 0 -84.5 33t-34.5 78zM907 1749q0 44 36 78.5t83 34.5 q50 0 84.5 -34t34.5 -79t-34.5 -78t-84.5 -33q-47 0 -83 33.5t-36 77.5z" />
<glyph unicode="&#xd7;" horiz-adv-x="1183" d="M174 451l309 309l-309 309l111 111l307 -308l307 308l111 -111l-310 -309l310 -309l-111 -111l-307 307l-307 -307z" />
<glyph unicode="&#xd8;" horiz-adv-x="1603" d="M123 748q0 163 54.5 306.5t147 243t217 156.5t261.5 57q213 0 391 -139l92 123h166l-162 -213q90 -104 140.5 -242t50.5 -295q0 -164 -54.5 -306.5t-146 -241.5t-216 -156t-261.5 -57q-216 0 -393 135l-91 -119h-165l159 211q-190 219 -190 537zM340 748q0 -255 70 -410 l700 924q-113 77 -305 77q-243 0 -359 -116q-42 -44 -74 -172.5t-32 -302.5zM498 233q115 -75 307 -75q129 0 217 33.5t137 82.5q43 43 74 171t31 303q0 260 -68 411z" />
<glyph unicode="&#xd9;" horiz-adv-x="1568" d="M217 590v905h197v-838q0 -321 88 -409q33 -33 105 -60.5t177 -27.5q106 0 179 27.5t106 60.5t59.5 130t26.5 279v838h197v-905q0 -174 -77.5 -313.5t-207 -216t-283.5 -76.5q-155 0 -284 76.5t-206 216t-77 313.5zM489 1911v35h205l221 -314h-122z" />
<glyph unicode="&#xda;" horiz-adv-x="1568" d="M217 590v905h197v-838q0 -321 88 -409q33 -33 105 -60.5t177 -27.5q106 0 179 27.5t106 60.5t59.5 130t26.5 279v838h197v-905q0 -174 -77.5 -313.5t-207 -216t-283.5 -76.5q-155 0 -284 76.5t-206 216t-77 313.5zM674 1632l221 314h205v-35l-303 -279h-123z" />
<glyph unicode="&#xdb;" horiz-adv-x="1568" d="M217 590v905h197v-838q0 -321 88 -409q33 -33 105 -60.5t177 -27.5q106 0 179 27.5t106 60.5t59.5 130t26.5 279v838h197v-905q0 -174 -77.5 -313.5t-207 -216t-283.5 -76.5q-155 0 -284 76.5t-206 216t-77 313.5zM461 1632l241 314h164l242 -314h-123l-201 185 l-200 -185h-123z" />
<glyph unicode="&#xdc;" horiz-adv-x="1568" d="M217 590v905h197v-838q0 -321 88 -409q33 -33 105 -60.5t177 -27.5q106 0 179 27.5t106 60.5t59.5 130t26.5 279v838h197v-905q0 -174 -77.5 -313.5t-207 -216t-283.5 -76.5q-155 0 -284 76.5t-206 216t-77 313.5zM432 1749q0 45 34.5 79t84.5 34q47 0 81 -34t34 -79 t-34 -78t-81 -33q-50 0 -84.5 33t-34.5 78zM903 1749q0 44 36 78.5t83 34.5q50 0 84.5 -34t34.5 -79t-34.5 -78t-84.5 -33q-47 0 -83 33.5t-36 77.5z" />
<glyph unicode="&#xdd;" horiz-adv-x="1267" d="M14 1495h217l326 -561q40 -69 90 -180q47 108 90 180l318 561h200l-516 -901v-594h-196v594zM524 1632l221 314h205v-35l-303 -279h-123z" />
<glyph unicode="&#xde;" horiz-adv-x="1259" d="M225 0v1516h193v-283q139 4 205 4q268 0 426.5 -119t158.5 -336q0 -86 -29.5 -159t-81 -124.5t-121.5 -87.5t-152 -53.5t-171 -17.5q-141 0 -235 6v-346h-193zM418 512q90 -4 203 -4q140 0 204 13.5t97 37.5q29 19 52 75t23 152q0 91 -23 150t-50 78q-70 57 -303 57 l-203 -4v-555z" />
<glyph unicode="&#xdf;" horiz-adv-x="1310" d="M66 870v154h204q0 228 119 365t330 137q156 0 272.5 -98.5t116.5 -206.5q0 -39 -9.5 -72t-23 -56t-40.5 -48.5t-47.5 -41t-59.5 -42.5q-88 -63 -105 -80q-12 -13 -12 -65t12 -64q25 -28 125 -74q77 -36 125.5 -65t92 -71t63.5 -96.5t20 -126.5q0 -137 -101.5 -236 t-250.5 -99q-93 0 -159.5 23t-131.5 61v151l22 -11q21 -11 27 -13.5t28.5 -12.5t35 -13.5t37 -11t43.5 -10.5t44.5 -5.5t51.5 -2.5q115 0 164 49q18 18 19 120.5t-15 119.5q-35 36 -121 76q-130 60 -164 81q-110 67 -130 166q-5 25 -5 54q0 84 35 136.5t110 105.5 q91 64 119 92q22 22 22 88t-22 88q-53 53 -188 53q-156 0 -213 -57q-53 -53 -53 -287l2 -1024h-185v870h-204z" />
<glyph unicode="&#xe0;" d="M115 287q0 155 130.5 243t385.5 88h92v41q0 88 -6 123t-25 58q-38 43 -147 43q-167 0 -344 -84v145q169 96 348 96q161 0 258.5 -89.5t97.5 -256.5v-471q0 -56 33 -74t106 -4v-127q-46 -30 -124 -30q-59 0 -106 32t-73 93q-49 -37 -87.5 -60.5t-102 -45t-129.5 -21.5 q-83 0 -151.5 32.5t-112 102t-43.5 166.5zM268 1481v35h205l221 -314h-123zM307 291q0 -95 43 -129q29 -23 101 -23q75 0 156.5 33t115.5 76v231h-47q-102 0 -148.5 -1.5t-97.5 -12.5t-76 -33q-47 -42 -47 -141z" />
<glyph unicode="&#xe1;" d="M115 287q0 155 130.5 243t385.5 88h92v41q0 88 -6 123t-25 58q-38 43 -147 43q-167 0 -344 -84v145q169 96 348 96q161 0 258.5 -89.5t97.5 -256.5v-471q0 -56 33 -74t106 -4v-127q-46 -30 -124 -30q-59 0 -106 32t-73 93q-49 -37 -87.5 -60.5t-102 -45t-129.5 -21.5 q-83 0 -151.5 32.5t-112 102t-43.5 166.5zM307 291q0 -95 43 -129q29 -23 101 -23q75 0 156.5 33t115.5 76v231h-47q-102 0 -148.5 -1.5t-97.5 -12.5t-76 -33q-47 -42 -47 -141zM440 1202l222 314h204v-35l-303 -279h-123z" />
<glyph unicode="&#xe2;" d="M115 287q0 155 130.5 243t385.5 88h92v41q0 88 -6 123t-25 58q-38 43 -147 43q-167 0 -344 -84v145q169 96 348 96q161 0 258.5 -89.5t97.5 -256.5v-471q0 -56 33 -74t106 -4v-127q-46 -30 -124 -30q-59 0 -106 32t-73 93q-49 -37 -87.5 -60.5t-102 -45t-129.5 -21.5 q-83 0 -151.5 32.5t-112 102t-43.5 166.5zM233 1202l242 314h164l242 -314h-123l-201 184l-201 -184h-123zM307 291q0 -95 43 -129q29 -23 101 -23q75 0 156.5 33t115.5 76v231h-47q-102 0 -148.5 -1.5t-97.5 -12.5t-76 -33q-47 -42 -47 -141z" />
<glyph unicode="&#xe3;" d="M115 287q0 155 130.5 243t385.5 88h92v41q0 88 -6 123t-25 58q-38 43 -147 43q-167 0 -344 -84v145q169 96 348 96q161 0 258.5 -89.5t97.5 -256.5v-471q0 -56 33 -74t106 -4v-127q-46 -30 -124 -30q-59 0 -106 32t-73 93q-49 -37 -87.5 -60.5t-102 -45t-129.5 -21.5 q-83 0 -151.5 32.5t-112 102t-43.5 166.5zM225 1249q0 101 59 169.5t154 68.5q39 0 72.5 -13.5t53.5 -30.5t50 -30.5t62 -13.5q49 0 65 16q19 19 19 72h121q0 -100 -60 -169t-155 -69q-40 0 -74 13.5t-54 30.5t-49 30.5t-61 13.5q-47 0 -63 -16q-19 -19 -19 -72h-121z M307 291q0 -95 43 -129q29 -23 101 -23q75 0 156.5 33t115.5 76v231h-47q-102 0 -148.5 -1.5t-97.5 -12.5t-76 -33q-47 -42 -47 -141z" />
<glyph unicode="&#xe4;" d="M115 287q0 155 130.5 243t385.5 88h92v41q0 88 -6 123t-25 58q-38 43 -147 43q-167 0 -344 -84v145q169 96 348 96q161 0 258.5 -89.5t97.5 -256.5v-471q0 -56 33 -74t106 -4v-127q-46 -30 -124 -30q-59 0 -106 32t-73 93q-49 -37 -87.5 -60.5t-102 -45t-129.5 -21.5 q-83 0 -151.5 32.5t-112 102t-43.5 166.5zM223 1370q0 46 33 79.5t80 33.5q45 0 77.5 -33.5t32.5 -79.5t-32.5 -79.5t-77.5 -33.5q-47 0 -80 33.5t-33 79.5zM307 291q0 -95 43 -129q29 -23 101 -23q75 0 156.5 33t115.5 76v231h-47q-102 0 -148.5 -1.5t-97.5 -12.5t-76 -33 q-47 -42 -47 -141zM674 1370q0 46 33 79.5t79 33.5q47 0 80 -33.5t33 -79.5t-33 -79.5t-80 -33.5q-46 0 -79 33.5t-33 79.5z" />
<glyph unicode="&#xe5;" d="M115 287q0 155 130.5 243t385.5 88h92v41q0 88 -6 123t-25 58q-38 43 -147 43q-167 0 -344 -84v145q169 96 348 96q161 0 258.5 -89.5t97.5 -256.5v-471q0 -56 33 -74t106 -4v-127q-46 -30 -124 -30q-59 0 -106 32t-73 93q-49 -37 -87.5 -60.5t-102 -45t-129.5 -21.5 q-83 0 -151.5 32.5t-112 102t-43.5 166.5zM307 291q0 -95 43 -129q29 -23 101 -23q75 0 156.5 33t115.5 76v231h-47q-102 0 -148.5 -1.5t-97.5 -12.5t-76 -33q-47 -42 -47 -141zM379 1378q0 72 53 122t125 50q70 0 123 -50t53 -122q0 -75 -52.5 -125.5t-123.5 -50.5 q-72 0 -125 50.5t-53 125.5zM483 1378q0 -52 17 -69t57 -17t57 17t17 69q0 49 -17 66q-16 16 -57 16t-57 -16q-17 -17 -17 -66z" />
<glyph unicode="&#xe6;" horiz-adv-x="1695" d="M113 287q0 154 131 240.5t387 86.5h94v45q0 87 -6.5 121t-26.5 60q-38 43 -147 43q-169 0 -346 -84v145q169 96 350 96q97 0 174.5 -43.5t124.5 -117.5q59 73 146.5 117t187.5 44q193 0 307.5 -136.5t114.5 -371.5l-5 -63h-694q6 -175 64 -248q26 -33 89 -54.5t148 -21.5 q53 0 97.5 4t83.5 14t58.5 16t55.5 20t41 16v-145q-1 0 -18.5 -9t-26 -13t-31.5 -13.5t-40.5 -15t-45.5 -13t-54 -12t-60 -7.5t-68 -3q-115 0 -209 46t-158 130q-167 -174 -411 -174q-83 0 -151.5 32.5t-112 102t-43.5 166.5zM305 291q0 -95 43 -129q29 -23 103 -23 q81 0 164.5 33.5t144.5 95.5q-36 88 -39 207h-66q-96 0 -134.5 -1t-91 -11.5t-77.5 -32.5q-47 -42 -47 -139zM905 606h514q0 68 -11 126.5t-30 82.5q-62 70 -207 70q-142 0 -204 -70q-57 -73 -62 -209z" />
<glyph unicode="&#xe7;" horiz-adv-x="940" d="M98 512q0 151 66.5 272.5t179 188.5t246.5 67q152 0 278 -61v-150q-123 52 -276 52q-171 0 -234 -74q-28 -36 -46.5 -113t-18.5 -182q0 -100 19.5 -175.5t47.5 -111.5q27 -33 87.5 -55.5t144.5 -22.5q162 0 276 54v-150q-82 -53 -221 -63l-127 -275h-205l217 275 q-187 22 -310.5 167t-123.5 357z" />
<glyph unicode="&#xe8;" horiz-adv-x="1099" d="M106 508q0 230 136 381t338 151q191 0 312.5 -138t121.5 -370l-4 -63h-709q6 -179 61 -248q26 -32 92 -54t152 -22q45 0 86.5 4t69 8.5t60.5 13.5t47.5 14t43.5 16.5t35 13.5v-145l-14 -7q-15 -7 -20.5 -9.5t-23 -10.5t-29 -12t-32.5 -11.5t-38 -11.5t-41 -9t-46.5 -8 t-50 -5t-55.5 -2q-208 0 -350 147.5t-142 376.5zM279 1481v35h204l222 -314h-123zM305 606h524q0 65 -13.5 124.5t-33.5 84.5q-62 70 -211 70q-147 0 -209 -70q-45 -58 -57 -209z" />
<glyph unicode="&#xe9;" horiz-adv-x="1099" d="M106 508q0 230 136 381t338 151q191 0 312.5 -138t121.5 -370l-4 -63h-709q6 -179 61 -248q26 -32 92 -54t152 -22q45 0 86.5 4t69 8.5t60.5 13.5t47.5 14t43.5 16.5t35 13.5v-145l-14 -7q-15 -7 -20.5 -9.5t-23 -10.5t-29 -12t-32.5 -11.5t-38 -11.5t-41 -9t-46.5 -8 t-50 -5t-55.5 -2q-208 0 -350 147.5t-142 376.5zM305 606h524q0 65 -13.5 124.5t-33.5 84.5q-62 70 -211 70q-147 0 -209 -70q-45 -58 -57 -209zM453 1202l221 314h205v-35l-304 -279h-122z" />
<glyph unicode="&#xea;" horiz-adv-x="1099" d="M106 508q0 230 136 381t338 151q191 0 312.5 -138t121.5 -370l-4 -63h-709q6 -179 61 -248q26 -32 92 -54t152 -22q45 0 86.5 4t69 8.5t60.5 13.5t47.5 14t43.5 16.5t35 13.5v-145l-14 -7q-15 -7 -20.5 -9.5t-23 -10.5t-29 -12t-32.5 -11.5t-38 -11.5t-41 -9t-46.5 -8 t-50 -5t-55.5 -2q-208 0 -350 147.5t-142 376.5zM256 1202l242 314h164l241 -314h-123l-200 184l-201 -184h-123zM305 606h524q0 65 -13.5 124.5t-33.5 84.5q-62 70 -211 70q-147 0 -209 -70q-45 -58 -57 -209z" />
<glyph unicode="&#xeb;" horiz-adv-x="1099" d="M106 508q0 230 136 381t338 151q191 0 312.5 -138t121.5 -370l-4 -63h-709q6 -179 61 -248q26 -32 92 -54t152 -22q45 0 86.5 4t69 8.5t60.5 13.5t47.5 14t43.5 16.5t35 13.5v-145l-14 -7q-15 -7 -20.5 -9.5t-23 -10.5t-29 -12t-32.5 -11.5t-38 -11.5t-41 -9t-46.5 -8 t-50 -5t-55.5 -2q-208 0 -350 147.5t-142 376.5zM250 1370q0 46 32.5 79.5t79.5 33.5q46 0 78.5 -33.5t32.5 -79.5t-32.5 -79.5t-78.5 -33.5q-47 0 -79.5 33.5t-32.5 79.5zM305 606h524q0 65 -13.5 124.5t-33.5 84.5q-62 70 -211 70q-147 0 -209 -70q-45 -58 -57 -209z M700 1370q0 46 33.5 79.5t79.5 33.5q47 0 80 -33.5t33 -79.5t-33 -79.5t-80 -33.5q-46 0 -79.5 33.5t-33.5 79.5z" />
<glyph unicode="&#xec;" horiz-adv-x="561" d="M-31 1481v35h205l221 -314h-123zM188 0v1024h185v-1024h-185z" />
<glyph unicode="&#xed;" horiz-adv-x="561" d="M170 1202l221 314h205v-35l-303 -279h-123zM188 0v1024h185v-1024h-185z" />
<glyph unicode="&#xee;" horiz-adv-x="561" d="M-43 1202l242 314h163l242 -314h-123l-200 184l-201 -184h-123zM188 0v1024h185v-1024h-185z" />
<glyph unicode="&#xef;" horiz-adv-x="561" d="M-57 1370q0 46 32.5 79.5t79.5 33.5q46 0 78.5 -33.5t32.5 -79.5t-32.5 -79.5t-78.5 -33.5q-47 0 -79.5 33.5t-32.5 79.5zM188 0v1024h185v-1024h-185zM393 1370q0 46 33.5 79.5t79.5 33.5q47 0 79.5 -33.5t32.5 -79.5t-32.5 -79.5t-79.5 -33.5q-46 0 -79.5 33.5 t-33.5 79.5z" />
<glyph unicode="&#xf0;" horiz-adv-x="1177" d="M98 504q0 153 62 272.5t166.5 183.5t232.5 64q106 0 183.5 -50.5t119.5 -129.5q-15 187 -88 342l-338 -96l-53 122l324 93q-42 48 -110 71t-216 23l74 157q243 -15 393 -210l166 47l53 -123l-145 -41q140 -261 143 -611q0 -136 -39 -255t-105 -201.5t-156 -130 t-190 -47.5q-199 0 -338 150t-139 370zM293 504q0 -221 59 -287q28 -32 85.5 -54t137.5 -22t137 26.5t81 55.5q30 36 47.5 118.5t17.5 174.5q0 197 -78 275q-21 21 -40 35t-66 28t-107 14q-153 0 -215 -69q-26 -30 -42.5 -109t-16.5 -186z" />
<glyph unicode="&#xf1;" horiz-adv-x="1206" d="M180 0v1024h158l24 -141q149 157 320 157q156 0 256 -110.5t100 -286.5v-643h-184v623q0 167 -47 217q-42 42 -172 37q-88 -6 -161 -46t-109 -90v-741h-185zM291 1249q0 101 59 169.5t154 68.5q39 0 72.5 -13.5t53 -30.5t49.5 -30.5t62 -13.5q50 0 66 16q18 18 18 72h121 q0 -100 -60 -169t-155 -69q-40 0 -73.5 13.5t-53.5 30.5t-49 30.5t-61 13.5q-48 0 -64 -16q-18 -18 -18 -72h-121z" />
<glyph unicode="&#xf2;" horiz-adv-x="1175" d="M98 512q0 228 141.5 378t348.5 150q209 0 349 -148.5t140 -379.5q0 -228 -141.5 -378t-347.5 -150q-207 0 -348.5 150t-141.5 378zM293 512q0 -103 17.5 -182t43.5 -113q26 -33 87.5 -54.5t146.5 -21.5q83 0 144.5 21.5t88.5 52.5q27 35 44.5 113.5t17.5 183.5 q0 106 -17 184t-45 113q-27 31 -88.5 52.5t-144.5 21.5q-84 0 -146 -20.5t-88 -51.5q-61 -71 -61 -299zM299 1481v35h205l221 -314h-123z" />
<glyph unicode="&#xf3;" horiz-adv-x="1175" d="M98 512q0 228 141.5 378t348.5 150q209 0 349 -148.5t140 -379.5q0 -228 -141.5 -378t-347.5 -150q-207 0 -348.5 150t-141.5 378zM293 512q0 -103 17.5 -182t43.5 -113q26 -33 87.5 -54.5t146.5 -21.5q83 0 144.5 21.5t88.5 52.5q27 35 44.5 113.5t17.5 183.5 q0 106 -17 184t-45 113q-27 31 -88.5 52.5t-144.5 21.5q-84 0 -146 -20.5t-88 -51.5q-61 -71 -61 -299zM463 1202l221 314h205v-35l-303 -279h-123z" />
<glyph unicode="&#xf4;" horiz-adv-x="1175" d="M98 512q0 228 141.5 378t348.5 150q209 0 349 -148.5t140 -379.5q0 -228 -141.5 -378t-347.5 -150q-207 0 -348.5 150t-141.5 378zM264 1202l242 314h164l241 -314h-123l-200 184l-201 -184h-123zM293 512q0 -103 17.5 -182t43.5 -113q26 -33 87.5 -54.5t146.5 -21.5 q83 0 144.5 21.5t88.5 52.5q27 35 44.5 113.5t17.5 183.5q0 106 -17 184t-45 113q-27 31 -88.5 52.5t-144.5 21.5q-84 0 -146 -20.5t-88 -51.5q-61 -71 -61 -299z" />
<glyph unicode="&#xf5;" horiz-adv-x="1175" d="M98 512q0 228 141.5 378t348.5 150q209 0 349 -148.5t140 -379.5q0 -228 -141.5 -378t-347.5 -150q-207 0 -348.5 150t-141.5 378zM264 1249q0 101 59 169.5t154 68.5q39 0 72.5 -13.5t53.5 -30.5t50 -30.5t62 -13.5q49 0 65 16q19 19 19 72h121q0 -100 -60 -169 t-155 -69q-40 0 -74 13.5t-54 30.5t-49 30.5t-61 13.5q-48 0 -64 -16q-18 -18 -18 -72h-121zM293 512q0 -103 17.5 -182t43.5 -113q26 -33 87.5 -54.5t146.5 -21.5q83 0 144.5 21.5t88.5 52.5q27 35 44.5 113.5t17.5 183.5q0 106 -17 184t-45 113q-27 31 -88.5 52.5 t-144.5 21.5q-84 0 -146 -20.5t-88 -51.5q-61 -71 -61 -299z" />
<glyph unicode="&#xf6;" horiz-adv-x="1175" d="M98 512q0 228 141.5 378t348.5 150q209 0 349 -148.5t140 -379.5q0 -228 -141.5 -378t-347.5 -150q-207 0 -348.5 150t-141.5 378zM250 1370q0 46 32.5 79.5t79.5 33.5q46 0 78.5 -33.5t32.5 -79.5t-32.5 -79.5t-78.5 -33.5q-47 0 -79.5 33.5t-32.5 79.5zM293 512 q0 -103 17.5 -182t43.5 -113q26 -33 87.5 -54.5t146.5 -21.5q83 0 144.5 21.5t88.5 52.5q27 35 44.5 113.5t17.5 183.5q0 106 -17 184t-45 113q-27 31 -88.5 52.5t-144.5 21.5q-84 0 -146 -20.5t-88 -51.5q-61 -71 -61 -299zM700 1370q0 46 33.5 79.5t79.5 33.5 q47 0 80 -33.5t33 -79.5t-33 -79.5t-80 -33.5q-46 0 -79.5 33.5t-33.5 79.5z" />
<glyph unicode="&#xf7;" horiz-adv-x="1093" d="M92 688v154h909v-154h-909zM410 371q0 57 40 97t97 40t97 -40t40 -97t-40 -97.5t-97 -40.5t-97 40.5t-40 97.5zM410 1161q0 57 40 97t97 40t97 -40t40 -97t-40 -97t-97 -40t-97 40t-40 97z" />
<glyph unicode="&#xf8;" horiz-adv-x="1191" d="M106 512q0 228 141.5 378t348.5 150q139 0 258 -77l47 61h166l-113 -150q131 -147 131 -362q0 -228 -141.5 -378t-347.5 -150q-142 0 -258 77l-47 -61h-166l113 150q-132 148 -132 362zM301 512q0 -145 33 -236l436 576q-74 31 -174 31q-84 0 -146 -20.5t-88 -51.5 q-27 -35 -44 -113.5t-17 -185.5zM422 172q74 -31 174 -31q83 0 144.5 21.5t88.5 52.5q27 35 44.5 113.5t17.5 183.5q0 140 -31 238z" />
<glyph unicode="&#xf9;" horiz-adv-x="1210" d="M168 381v643h184v-623q0 -167 47 -217q42 -42 166 -37q88 5 161 49t112 95v733h184v-1024h-156l-20 152q-160 -168 -324 -168q-156 0 -255 110.5t-99 286.5zM299 1481v35h205l221 -314h-123z" />
<glyph unicode="&#xfa;" horiz-adv-x="1210" d="M168 381v643h184v-623q0 -167 47 -217q42 -42 166 -37q88 5 161 49t112 95v733h184v-1024h-156l-20 152q-160 -168 -324 -168q-156 0 -255 110.5t-99 286.5zM479 1202l221 314h205v-35l-303 -279h-123z" />
<glyph unicode="&#xfb;" horiz-adv-x="1210" d="M168 381v643h184v-623q0 -167 47 -217q42 -42 166 -37q88 5 161 49t112 95v733h184v-1024h-156l-20 152q-160 -168 -324 -168q-156 0 -255 110.5t-99 286.5zM272 1202l242 314h164l242 -314h-123l-201 184l-201 -184h-123z" />
<glyph unicode="&#xfc;" horiz-adv-x="1210" d="M168 381v643h184v-623q0 -167 47 -217q42 -42 166 -37q88 5 161 49t112 95v733h184v-1024h-156l-20 152q-160 -168 -324 -168q-156 0 -255 110.5t-99 286.5zM266 1370q0 46 33 79.5t80 33.5q45 0 77.5 -33.5t32.5 -79.5t-32.5 -79.5t-77.5 -33.5q-47 0 -80 33.5t-33 79.5 zM717 1370q0 46 33 79.5t79 33.5q47 0 80 -33.5t33 -79.5t-33 -79.5t-80 -33.5q-46 0 -79 33.5t-33 79.5z" />
<glyph unicode="&#xfd;" horiz-adv-x="1009" d="M20 1024h199l268 -684q20 -52 43 -143q21 83 41 141l238 686h180l-377 -1020q-90 -238 -173.5 -340t-213.5 -102q-92 0 -176 47v155q103 -38 176 -38q70 0 101 26q45 45 118 248zM401 1202l222 314h204v-35l-303 -279h-123z" />
<glyph unicode="&#xfe;" horiz-adv-x="1218" d="M184 -434v1925l183 35v-629q64 67 132 105t167 38q194 0 324 -149t130 -379t-131 -379t-325 -149q-95 0 -163.5 36t-133.5 99v-553h-183zM367 260q121 -117 290 -117q149 0 207 70q26 34 44 115t18 184q0 107 -17.5 187.5t-44.5 115.5q-60 68 -207 68q-182 0 -290 -125 v-498z" />
<glyph unicode="&#xff;" horiz-adv-x="1009" d="M20 1024h199l268 -684q20 -52 43 -143q21 83 41 141l238 686h180l-377 -1020q-90 -238 -173.5 -340t-213.5 -102q-92 0 -176 47v155q103 -38 176 -38q70 0 101 26q45 45 118 248zM166 1370q0 46 33 79.5t80 33.5q45 0 77.5 -33.5t32.5 -79.5t-32.5 -79.5t-77.5 -33.5 q-47 0 -80 33.5t-33 79.5zM616 1370q0 46 33.5 79.5t79.5 33.5q47 0 80 -33.5t33 -79.5t-33 -79.5t-80 -33.5q-46 0 -79.5 33.5t-33.5 79.5z" />
<glyph unicode="&#x106;" horiz-adv-x="1245" d="M113 748q0 164 55.5 307t149.5 242.5t221 156.5t268 57q220 0 362 -69v-156q-146 53 -358 53q-135 0 -226.5 -33t-140.5 -83q-44 -45 -79 -174t-35 -301q0 -166 36.5 -295t79.5 -174q115 -119 367 -119q204 0 361 57v-158q-74 -36 -155 -55.5t-212 -19.5 q-143 0 -270.5 56.5t-221 155.5t-148 242.5t-54.5 309.5zM592 1632l221 314h205v-35l-303 -279h-123z" />
<glyph unicode="&#x107;" horiz-adv-x="940" d="M98 512q0 151 66.5 272.5t179 188.5t246.5 67q152 0 278 -61v-150q-123 52 -276 52q-171 0 -234 -74q-28 -36 -46.5 -113t-18.5 -182q0 -100 19.5 -175.5t47.5 -111.5q27 -33 87.5 -55.5t144.5 -22.5q162 0 276 54v-150q-104 -67 -278 -67q-134 0 -246.5 67t-179 188.5 t-66.5 272.5zM397 1202l221 314h205v-35l-303 -279h-123z" />
<glyph unicode="&#x139;" d="M229 0v1495h195v-1327h694v-168h-889zM301 1632l221 314h205v-35l-303 -279h-123z" />
<glyph unicode="&#x13a;" horiz-adv-x="606" d="M186 225v1266l185 35v-1301q0 -56 34 -73.5t125 -4.5v-133q-59 -26 -137 -26q-88 0 -147.5 61t-59.5 176zM188 1632l222 314h204v-35l-303 -279h-123z" />
<glyph unicode="&#x143;" horiz-adv-x="1581" d="M225 0v1495h148l704 -1001q21 -30 47 -74t42 -72l16 -29q-6 113 -6 181v995h180v-1495h-148l-704 1001q-21 30 -47 75t-42 74l-16 30q7 -133 7 -203v-977h-181zM686 1632l221 314h205v-35l-303 -279h-123z" />
<glyph unicode="&#x144;" horiz-adv-x="1206" d="M180 0v1024h158l24 -141q149 157 320 157q156 0 256 -110.5t100 -286.5v-643h-184v623q0 167 -47 217q-42 42 -172 37q-88 -6 -161 -46t-109 -90v-741h-185zM487 1202l222 314h204v-35l-303 -279h-123z" />
<glyph unicode="&#x152;" horiz-adv-x="1943" d="M113 748q0 164 55.5 307t149.5 242.5t221 156.5t268 57q104 0 192 -16h811v-168h-624v-471h536v-164h-536v-524h635v-168h-822q-82 -16 -192 -16q-143 0 -270.5 56.5t-221 155.5t-148 242.5t-54.5 309.5zM330 748q0 -166 36.5 -295t79.5 -174q115 -119 367 -119 q95 0 180 10v1157q-106 12 -182 12q-135 0 -226.5 -33t-140.5 -83q-44 -45 -79 -174t-35 -301z" />
<glyph unicode="&#x153;" horiz-adv-x="1855" d="M102 512q0 229 139.5 378.5t346.5 149.5q118 0 217 -52.5t166 -147.5q65 94 159 147t209 53q191 0 310.5 -137.5t119.5 -370.5l-4 -63h-698q6 -181 59 -248q26 -33 90.5 -54.5t149.5 -21.5q53 0 97.5 4t84.5 14t58.5 15.5t56.5 20.5t41 16v-145q-1 -1 -16 -8t-23 -11 t-26.5 -12t-33.5 -13l-37.5 -12.5t-45 -12t-48.5 -9t-55.5 -6.5t-60.5 -2q-120 0 -220 53.5t-167 150.5q-67 -97 -166 -150.5t-217 -53.5q-207 0 -346.5 149.5t-139.5 378.5zM297 512q0 -103 17.5 -182t43.5 -113q27 -33 86.5 -54.5t143.5 -21.5q83 0 142.5 21t86.5 53 q57 73 57 295q0 228 -57 301q-27 31 -86.5 51.5t-142.5 20.5t-143 -20.5t-87 -51.5q-27 -35 -44 -113.5t-17 -185.5zM1069 606h516q0 65 -13.5 124.5t-33.5 84.5q-62 70 -207 70q-143 0 -205 -70q-45 -58 -57 -209z" />
<glyph unicode="&#x154;" horiz-adv-x="1402" d="M229 0v1493q234 8 406 8q176 0 302.5 -45.5t199.5 -146t73 -250.5q0 -165 -98 -270t-256 -146q14 -18 101 -133.5t202.5 -269t181.5 -240.5h-233l-455 625h-233v-625h-191zM420 786h213q96 0 162.5 10.5t86 19t42.5 22.5q27 16 52 72t25 149q0 94 -25 151t-52 74 q-23 15 -42.5 23.5t-85 19t-161.5 10.5l-215 -4v-547zM586 1632l221 314h205v-35l-303 -279h-123z" />
<glyph unicode="&#x155;" horiz-adv-x="794" d="M184 0v1024h158l25 -174q32 42 57.5 69.5t63.5 58.5t84 46.5t100 15.5q41 0 73 -8v-186q-54 12 -114 12q-96 0 -168 -56t-94 -114v-688h-185zM326 1202l221 314h205v-35l-303 -279h-123z" />
<glyph unicode="&#x15a;" horiz-adv-x="1253" d="M113 117v170q54 -26 84 -39t100.5 -39t148.5 -38.5t162 -12.5q107 0 183.5 22.5t97.5 50.5q37 52 37 174t-35 160q-26 28 -66.5 46.5t-113.5 37.5q-20 5 -93 22t-125 32t-104 34q-116 44 -192 139.5t-76 223.5q0 77 32 149t92.5 131.5t159.5 95t222 35.5q251 0 426 -108 v-158q-208 96 -432 96q-101 0 -171 -23t-92 -50q-35 -45 -35 -162t33 -150q43 -43 179 -75q14 -3 71.5 -16.5t85.5 -20.5t76 -21t88 -28q122 -44 198 -140.5t76 -232.5q0 -191 -142 -314.5t-386 -123.5q-114 0 -218.5 24.5t-156 48.5t-114.5 60zM504 1632l221 314h205v-35 l-303 -279h-123z" />
<glyph unicode="&#x15b;" horiz-adv-x="960" d="M121 82v154q1 -1 20.5 -10t26 -11.5t28 -12t33 -13.5t35 -12t40 -12.5t41.5 -10t46 -8.5t47 -5t51 -2q130 0 175 45q22 22 24 94.5t-18 94.5q-27 35 -160 59q-68 13 -120.5 28.5t-104 41t-85 57.5t-54.5 78.5t-21 103.5q0 53 22.5 105t65.5 96t114.5 71t159.5 27 q186 0 320 -75v-148q-45 20 -78 31.5t-100 24t-142 12.5q-122 0 -165 -43q-23 -23 -24.5 -90.5t17.5 -87.5q28 -28 152 -50q89 -17 155 -39.5t123 -58t87 -90t30 -125.5q0 -137 -105.5 -227t-273.5 -90q-193 0 -362 98zM354 1202l221 314h205v-35l-303 -279h-123z" />
<glyph unicode="&#x160;" horiz-adv-x="1253" d="M113 117v170q54 -26 84 -39t100.5 -39t148.5 -38.5t162 -12.5q107 0 183.5 22.5t97.5 50.5q37 52 37 174t-35 160q-26 28 -66.5 46.5t-113.5 37.5q-20 5 -93 22t-125 32t-104 34q-116 44 -192 139.5t-76 223.5q0 77 32 149t92.5 131.5t159.5 95t222 35.5q251 0 426 -108 v-158q-208 96 -432 96q-101 0 -171 -23t-92 -50q-35 -45 -35 -162t33 -150q43 -43 179 -75q14 -3 71.5 -16.5t85.5 -20.5t76 -21t88 -28q122 -44 198 -140.5t76 -232.5q0 -191 -142 -314.5t-386 -123.5q-114 0 -218.5 24.5t-156 48.5t-114.5 60zM303 1946h123l201 -185 l200 185h123l-241 -314h-164z" />
<glyph unicode="&#x161;" horiz-adv-x="960" d="M121 82v154q1 -1 20.5 -10t26 -11.5t28 -12t33 -13.5t35 -12t40 -12.5t41.5 -10t46 -8.5t47 -5t51 -2q130 0 175 45q22 22 24 94.5t-18 94.5q-27 35 -160 59q-68 13 -120.5 28.5t-104 41t-85 57.5t-54.5 78.5t-21 103.5q0 53 22.5 105t65.5 96t114.5 71t159.5 27 q186 0 320 -75v-148q-45 20 -78 31.5t-100 24t-142 12.5q-122 0 -165 -43q-23 -23 -24.5 -90.5t17.5 -87.5q28 -28 152 -50q89 -17 155 -39.5t123 -58t87 -90t30 -125.5q0 -137 -105.5 -227t-273.5 -90q-193 0 -362 98zM168 1516h123l201 -185l200 185h123l-242 -314h-163z " />
<glyph unicode="&#x178;" horiz-adv-x="1267" d="M14 1495h217l326 -561q40 -69 90 -180q47 108 90 180l318 561h200l-516 -901v-594h-196v594zM287 1749q0 45 34.5 79t84.5 34q47 0 80.5 -34t33.5 -79t-33.5 -78t-80.5 -33q-50 0 -84.5 33t-34.5 78zM758 1749q0 44 36 78.5t83 34.5q50 0 84 -34t34 -79t-34 -78t-84 -33 q-47 0 -83 33.5t-36 77.5z" />
<glyph unicode="&#x179;" horiz-adv-x="1206" d="M51 0v127l744 1057q32 44 116 143h-792v168h1018v-133l-729 -1040q-53 -76 -121 -154h868v-168h-1104zM498 1632l221 314h205v-35l-303 -279h-123z" />
<glyph unicode="&#x17a;" horiz-adv-x="937" d="M66 0v129l471 602q45 59 120 141h-551v152h754v-133l-465 -600q-71 -86 -119 -139h596v-152h-806zM348 1202l221 314h205v-35l-303 -279h-123z" />
<glyph unicode="&#x17d;" horiz-adv-x="1206" d="M51 0v127l744 1057q32 44 116 143h-792v168h1018v-133l-729 -1040q-53 -76 -121 -154h868v-168h-1104zM305 1946h123l201 -185l200 185h123l-241 -314h-164z" />
<glyph unicode="&#x17e;" horiz-adv-x="937" d="M66 0v129l471 602q45 59 120 141h-551v152h754v-133l-465 -600q-71 -86 -119 -139h596v-152h-806zM168 1516h123l201 -185l200 185h123l-242 -314h-163z" />
<glyph unicode="&#x192;" horiz-adv-x="1298" d="M20 -248q93 -39 187 -39q104 0 153 49q38 38 80 238l154 727h-215v154h248l43 198q24 114 69.5 202t103.5 140.5t122 78.5t131 26q112 0 186 -45v-150q-85 35 -186 35q-55 0 -96.5 -14.5t-57.5 -30.5q-27 -26 -48 -78t-46 -166l-39 -196h309v-154h-340l-153 -729 q-45 -212 -156 -328t-262 -116q-105 0 -187 47v151z" />
<glyph unicode="&#x2c6;" horiz-adv-x="851" d="M102 1202l242 314h164l242 -314h-123l-201 184l-201 -184h-123z" />
<glyph unicode="&#x2dc;" horiz-adv-x="925" d="M135 1257q0 101 59 169.5t154 68.5q39 0 72.5 -13.5t53.5 -30.5t50 -30.5t62 -13.5q49 0 65 16q19 19 19 72h121q0 -100 -60.5 -169t-155.5 -69q-40 0 -73.5 14t-53.5 30.5t-49 30.5t-61 14q-47 0 -64 -17q-18 -18 -18 -72h-121z" />
<glyph unicode="&#x401;" horiz-adv-x="1220" d="M229 0v1495h858v-168h-665v-471h577v-164h-577v-524h676v-168h-869zM313 1749q0 45 34.5 79t84.5 34q47 0 81 -34t34 -79t-34 -78t-81 -33q-50 0 -84.5 33t-34.5 78zM784 1749q0 44 36 78.5t83 34.5q50 0 84.5 -34t34.5 -79t-34.5 -78t-84.5 -33q-47 0 -83 33.5t-36 77.5 z" />
<glyph unicode="&#x402;" horiz-adv-x="1439" d="M-31 1327v168h1047v-168h-488v-473q148 72 332 72q202 0 334.5 -135t132.5 -338q0 -198 -126.5 -331.5t-297.5 -133.5q-126 0 -203 55v164q27 -16 88 -31.5t117 -15.5q113 0 156 43q55 60 55 250q0 192 -57 249q-21 21 -76 38.5t-133 17.5q-199 0 -322 -60v-698h-192 v1327h-367z" />
<glyph unicode="&#x403;" horiz-adv-x="1107" d="M229 0v1495h858v-168h-663v-1327h-195zM551 1632l221 314h205v-35l-303 -279h-123z" />
<glyph unicode="&#x404;" horiz-adv-x="1265" d="M113 748q0 164 55.5 307t149.5 242.5t221 156.5t268 57q220 0 362 -69v-156q-151 55 -358 55q-135 0 -226.5 -33.5t-140.5 -84.5q-39 -41 -73.5 -141t-44.5 -240h630v-164h-630q8 -146 44 -252.5t76 -146.5q117 -121 367 -121q199 0 361 59v-158q-74 -36 -155 -55.5 t-212 -19.5q-141 0 -268 56.5t-221 155t-149.5 242.5t-55.5 310z" />
<glyph unicode="&#x405;" horiz-adv-x="1253" d="M113 117v170q54 -26 84 -39t100.5 -39t148.5 -38.5t162 -12.5q107 0 183.5 22.5t97.5 50.5q37 52 37 174t-35 160q-26 28 -66.5 46.5t-113.5 37.5q-20 5 -93 22t-125 32t-104 34q-116 44 -192 139.5t-76 223.5q0 77 32 149t92.5 131.5t159.5 95t222 35.5q251 0 426 -108 v-158q-208 96 -432 96q-101 0 -171 -23t-92 -50q-35 -45 -35 -162t33 -150q43 -43 179 -75q14 -3 71.5 -16.5t85.5 -20.5t76 -21t88 -28q122 -44 198 -140.5t76 -232.5q0 -191 -142 -314.5t-386 -123.5q-114 0 -218.5 24.5t-156 48.5t-114.5 60z" />
<glyph unicode="&#x406;" horiz-adv-x="671" d="M238 0v1495h196v-1495h-196z" />
<glyph unicode="&#x407;" horiz-adv-x="675" d="M51 1751q0 46 33 79.5t80 33.5q45 0 77.5 -33.5t32.5 -79.5t-32.5 -79.5t-77.5 -33.5q-47 0 -80 33.5t-33 79.5zM240 0v1495h196v-1495h-196zM399 1751q0 46 33.5 79.5t79.5 33.5q47 0 80 -33.5t33 -79.5t-33 -79.5t-80 -33.5q-46 0 -79.5 33.5t-33.5 79.5z" />
<glyph unicode="&#x408;" horiz-adv-x="929" d="M31 57v162q29 -19 107.5 -41t144.5 -22q115 0 166 51q25 25 38 98t13 252v938h196v-950q0 -275 -109 -418t-298 -143q-77 0 -151.5 24t-106.5 49z" />
<glyph unicode="&#x409;" horiz-adv-x="2031" d="M41 -16v184q145 0 219 74q84 84 84 792v461h864v-618q129 6 240 6q112 0 207.5 -27.5t168.5 -80.5t114.5 -138t41.5 -193q0 -216 -150.5 -333t-416.5 -117l-397 6v1327h-481v-293q0 -402 -41 -614q-21 -108 -58.5 -188.5t-80.5 -126.5t-97.5 -74.5t-102.5 -37.5t-104 -9 h-10zM1208 164q127 -4 203 -4q95 0 159.5 10t88.5 21t45 28q26 23 45.5 78.5t19.5 144.5q0 168 -67 222q-31 26 -91 39.5t-200 13.5q-113 0 -203 -4v-549z" />
<glyph unicode="&#x40a;" horiz-adv-x="2109" d="M225 0v1495h193v-618h676v618h192v-618q129 6 240 6q112 0 207.5 -27.5t168.5 -80.5t114.5 -138t41.5 -193q0 -216 -150.5 -333t-416.5 -117l-397 6v713h-676v-713h-193zM1286 164q127 -4 203 -4q95 0 159.5 10t88.5 21t45 28q26 23 45.5 78.5t19.5 144.5q0 168 -67 222 q-31 26 -91 39.5t-200 13.5q-113 0 -203 -4v-549z" />
<glyph unicode="&#x40b;" horiz-adv-x="1429" d="M-31 1327v168h1047v-168h-488v-473q47 22 82 35t99.5 25t140.5 12q208 0 332.5 -133.5t124.5 -362.5v-430h-193v434q0 89 -11 149t-22.5 80.5t-29.5 38.5q-56 56 -211 56q-189 0 -312 -60v-698h-192v1327h-367z" />
<glyph unicode="&#x40c;" horiz-adv-x="1355" d="M225 0v1495h193v-678q14 -2 26 10l625 668h236l-672 -707l717 -788h-250l-654 731q-5 5 -12 7.5t-12 2.5h-4v-741h-193zM641 1632l221 314h205v-35l-303 -279h-123z" />
<glyph unicode="&#x40e;" horiz-adv-x="1288" d="M31 1495h209l395 -782q15 -29 31 -66t25 -59l9 -23q38 93 58 146l325 784h193l-459 -1067q-101 -236 -195.5 -340t-234.5 -104q-88 0 -190 49v155q113 -41 190 -41q80 0 111 31q49 45 112 197zM332 1884h170q4 -93 30 -119q39 -39 134 -39q94 0 133 39q26 26 30 119h170 q-7 -135 -104.5 -216t-228.5 -81t-229 81t-105 216z" />
<glyph unicode="&#x40f;" horiz-adv-x="1538" d="M225 0v1495h195v-1327h698v1327h195v-1495h-451v-352h-186v352h-451z" />
<glyph unicode="&#x410;" horiz-adv-x="1427" d="M41 0l592 1501h162l591 -1501h-200l-166 430h-627l-164 -430h-188zM455 590h503l-215 559q-9 24 -14.5 44.5t-11.5 51.5t-8 39q-17 -77 -39 -135z" />
<glyph unicode="&#x411;" horiz-adv-x="1335" d="M225 4v1491h889v-168h-696v-430q94 6 231 6q156 0 280.5 -49t201.5 -151.5t77 -245.5q0 -221 -160.5 -342t-429.5 -121q-76 0 -174.5 2.5t-158.5 5.5zM418 164q122 -4 198 -4q236 0 308 59q28 22 50.5 80.5t22.5 153.5q0 166 -73 229q-65 53 -308 53q-108 0 -198 -4v-567 z" />
<glyph unicode="&#x412;" horiz-adv-x="1411" d="M229 4v1487q250 10 402 10q265 0 411 -102t146 -293q0 -97 -60.5 -185t-152.5 -122q120 -39 196 -133.5t76 -229.5q0 -209 -160.5 -325.5t-431.5 -116.5q-86 0 -192.5 2.5t-170.5 5.5zM420 166q161 -4 237 -4q107 0 180.5 12.5t91 21.5t38.5 23q71 56 71 215 q0 149 -80 213q-74 55 -301 55l-237 -2v-534zM420 860h223q189 0 260 49q27 19 52.5 70.5t25.5 124.5t-20 119.5t-43 64.5q-62 47 -295 47q-121 0 -203 -4v-471z" />
<glyph unicode="&#x413;" horiz-adv-x="1107" d="M229 0v1495h858v-168h-663v-1327h-195z" />
<glyph unicode="&#x414;" horiz-adv-x="1515" d="M41 168h98q49 24 86 70q23 27 39.5 67t38 136t33.5 288t12 465v301h905v-1327h209v-479h-172v311h-1077v-311h-172v479zM369 168h692v1159h-522v-133q0 -525 -47 -733q-44 -199 -123 -293z" />
<glyph unicode="&#x415;" horiz-adv-x="1220" d="M229 0v1495h858v-168h-665v-471h577v-164h-577v-524h676v-168h-869z" />
<glyph unicode="&#x416;" horiz-adv-x="1994" d="M-6 0l694 788l-653 707h233l602 -668q5 -5 13 -7.5t13 -2.5h5v678h193v-678q18 -2 30 10l602 668h234l-653 -707l694 -788h-246l-629 731q-5 5 -13 7.5t-13 2.5h-6v-741h-193v741q-21 2 -33 -10l-628 -731h-246z" />
<glyph unicode="&#x417;" horiz-adv-x="1232" d="M72 119v168q243 -129 454 -129q110 0 178.5 18.5t90.5 40.5q61 61 61 213q0 136 -65 201q-23 23 -97.5 41t-212.5 18h-129v164h129q73 0 128.5 8.5t88.5 25t47 26t29 24.5q47 47 47 176q0 125 -45 170q-23 23 -81 40t-150 17q-97 0 -187 -19.5t-128.5 -35.5t-94.5 -43 v158q67 42 174 76t236 34q109 0 201 -32.5t153 -87.5t95 -126.5t34 -150.5q0 -110 -67.5 -200.5t-163.5 -125.5q121 -39 196.5 -131t75.5 -227q0 -196 -154 -321t-393 -125q-232 0 -450 135z" />
<glyph unicode="&#x418;" horiz-adv-x="1589" d="M225 0v1495h193v-1014q0 -54 -8 -198q11 20 30.5 58.5t31.5 62t28.5 52.5t29.5 48l670 991h164v-1495h-193v1014q0 62 11 194q-89 -170 -121 -217l-670 -991h-166z" />
<glyph unicode="&#x419;" horiz-adv-x="1589" d="M225 0v1495h193v-1014q0 -54 -8 -198q11 20 30.5 58.5t31.5 62t28.5 52.5t29.5 48l670 991h164v-1495h-193v1014q0 62 11 194q-89 -170 -121 -217l-670 -991h-166zM461 1884h170q4 -92 31 -119q39 -39 133 -39t133 39q26 26 30 119h170q-7 -135 -104.5 -216t-228.5 -81 t-229 81t-105 216z" />
<glyph unicode="&#x41a;" horiz-adv-x="1355" d="M225 0v1495h193v-678q14 -2 26 10l625 668h240l-676 -707l717 -788h-250l-654 731q-5 5 -12 7.5t-12 2.5h-4v-741h-193z" />
<glyph unicode="&#x41b;" horiz-adv-x="1474" d="M41 -16v184q145 0 219 74q84 84 84 792v461h905v-1495h-192v1327h-522v-293q0 -402 -41 -614q-21 -108 -58.5 -188.5t-80.5 -126.5t-97.5 -74.5t-102.5 -37.5t-104 -9h-10z" />
<glyph unicode="&#x41c;" horiz-adv-x="1873" d="M225 0v1495h174l420 -635q45 -67 131 -217q83 145 131 219l394 633h174v-1495h-193v1014q0 88 6 196q-11 -21 -36 -74t-42.5 -86.5t-33.5 -58.5l-369 -588h-66l-393 592q-12 18 -27.5 46t-26 49.5t-30.5 63t-28 58.5q8 -148 8 -200v-1012h-193z" />
<glyph unicode="&#x41d;" horiz-adv-x="1572" d="M225 0v1495h193v-641h737v641h193v-1495h-193v690h-737v-690h-193z" />
<glyph unicode="&#x41e;" horiz-adv-x="1583" d="M113 748q0 163 54.5 306.5t147 243t217 156.5t261.5 57t261 -57.5t216 -157.5t146 -243.5t54 -307.5t-54 -306.5t-146 -241.5t-216 -156t-261 -57q-138 0 -262.5 57.5t-216.5 157t-146.5 242.5t-54.5 307zM330 748q0 -168 33 -298.5t73 -173.5q114 -118 359 -118 q129 0 217 33.5t137 82.5q43 43 73.5 171t30.5 303t-31 302t-73 171q-114 118 -354 118q-243 0 -359 -116q-42 -44 -74 -172.5t-32 -302.5z" />
<glyph unicode="&#x41f;" horiz-adv-x="1542" d="M225 0v1495h1092v-1495h-195v1327h-702v-1327h-195z" />
<glyph unicode="&#x420;" horiz-adv-x="1261" d="M225 0v1493q226 8 398 8q269 0 428 -121t159 -346q0 -112 -45 -200t-123 -142.5t-177 -83t-212 -28.5q-141 0 -235 6v-586h-193zM418 752q90 -4 203 -4q139 0 203 14t98 39q30 23 53.5 80t23.5 157q0 95 -23.5 155.5t-51.5 82.5q-72 59 -303 59l-203 -4v-579z" />
<glyph unicode="&#x421;" horiz-adv-x="1245" d="M113 748q0 164 55.5 307t149.5 242.5t221 156.5t268 57q220 0 362 -69v-156q-146 53 -358 53q-135 0 -226.5 -33t-140.5 -83q-44 -45 -79 -174t-35 -301q0 -166 36.5 -295t79.5 -174q115 -119 367 -119q204 0 361 57v-158q-74 -36 -155 -55.5t-212 -19.5 q-143 0 -270.5 56.5t-221 155.5t-148 242.5t-54.5 309.5z" />
<glyph unicode="&#x422;" horiz-adv-x="1247" d="M41 1327v168h1165v-168h-485v-1327h-195v1327h-485z" />
<glyph unicode="&#x423;" horiz-adv-x="1288" d="M31 1495h209l395 -782q15 -29 31 -66t25 -59l9 -23q38 93 58 146l325 784h193l-459 -1067q-101 -236 -195.5 -340t-234.5 -104q-88 0 -190 49v155q113 -41 190 -41q80 0 111 31q49 45 112 197z" />
<glyph unicode="&#x424;" horiz-adv-x="1703" d="M113 758q0 172 83.5 308t230.5 211.5t331 78.5v160h188v-160q182 -3 328.5 -78.5t231.5 -211.5t85 -308t-85 -308t-231.5 -210.5t-328.5 -77.5v-178h-188v178q-184 3 -331 78t-230.5 210.5t-83.5 307.5zM317 760q0 -120 29.5 -215t67.5 -129q42 -39 134 -68t212 -29v879 q-120 0 -213 -26.5t-133 -63.5q-38 -34 -67.5 -129.5t-29.5 -218.5zM944 319q116 0 210.5 28.5t135.5 66.5q38 34 67 128.5t29 217.5t-29 217.5t-67 128.5q-40 37 -134.5 64.5t-211.5 27.5v-879z" />
<glyph unicode="&#x425;" horiz-adv-x="1335" d="M20 0l535 760l-506 735h230l313 -461q48 -72 88 -139q40 67 88 139l324 461h206l-512 -727l529 -768h-230l-356 524q-28 40 -63 105q-54 -87 -68 -107l-362 -522h-216z" />
<glyph unicode="&#x426;" horiz-adv-x="1564" d="M225 0v1495h193v-1327h692v1327h193v-1327h208v-479h-172v311h-1114z" />
<glyph unicode="&#x427;" horiz-adv-x="1294" d="M66 1085v410h192v-414q0 -217 72 -278q22 -19 80 -37t135 -18q211 0 332 59v688h192v-1495h-192v651q-145 -71 -342 -71q-212 0 -340.5 139.5t-128.5 365.5z" />
<glyph unicode="&#x428;" horiz-adv-x="2011" d="M229 0v1495h193v-1327h487v1327h193v-1327h487v1327h193v-1495h-1553z" />
<glyph unicode="&#x429;" horiz-adv-x="2045" d="M229 0v1495h193v-1327h487v1327h193v-1327h487v1327h193v-1327h209v-479h-172v311h-1590z" />
<glyph unicode="&#x42a;" horiz-adv-x="1370" d="M-31 1327v168h557v-586q94 4 240 4q90 0 171 -17.5t151 -53.5t121.5 -89t80.5 -127.5t29 -164.5q0 -225 -159.5 -346t-428.5 -121l-397 6v1327h-365zM526 164q127 -4 203 -4q231 0 303 59q28 22 52 83t24 155q0 179 -78 237q-35 25 -98.5 39.5t-202.5 14.5q-91 0 -203 -5 v-579z" />
<glyph unicode="&#x42b;" horiz-adv-x="1837" d="M225 0v1495h193v-586q86 4 239 4q113 0 209 -28t170 -82.5t116 -142t42 -199.5q0 -227 -152 -347t-419 -120zM418 164q127 -4 203 -4q95 0 158 10t85 20.5t43 28.5q28 22 52 83t24 155q0 179 -78 237q-24 17 -45 26.5t-82 18.5t-157 9q-91 0 -203 -5v-579zM1415 0v1495 h197v-1495h-197z" />
<glyph unicode="&#x42c;" horiz-adv-x="1261" d="M225 0v1495h193v-586q86 4 239 4q90 0 171 -17.5t151 -53.5t121.5 -89t80.5 -127.5t29 -164.5q0 -225 -159 -346t-428 -121zM418 164q127 -4 203 -4q231 0 303 59q28 22 51.5 82.5t23.5 155.5q0 100 -23.5 157t-53.5 80q-35 25 -98.5 39.5t-202.5 14.5q-91 0 -203 -5 v-579z" />
<glyph unicode="&#x42d;" horiz-adv-x="1265" d="M92 59v158q162 -59 361 -59q249 0 366 121q39 41 76 147.5t45 251.5h-631v164h631q-10 140 -45 240t-74 141q-114 118 -366 118q-208 0 -359 -55v156q142 69 363 69q197 0 355 -97t248.5 -272t90.5 -394q0 -166 -56 -310t-151 -242.5t-221.5 -155t-265.5 -56.5 q-131 0 -212 19.5t-155 55.5z" />
<glyph unicode="&#x42e;" horiz-adv-x="2113" d="M225 0v1495h193v-641h293q18 188 106 337.5t228 234.5t307 85q137 0 257 -57.5t206 -158t136 -243.5t50 -307q0 -219 -85 -393.5t-233 -271t-331 -96.5q-129 0 -243.5 51.5t-199.5 143t-138 224t-60 287.5h-293v-690h-193zM913 748q0 -166 33.5 -298.5t71.5 -175.5 q44 -50 128.5 -84t207.5 -34q118 0 203.5 34.5t128.5 81.5q40 42 71 172.5t31 303.5q0 172 -32.5 303t-72.5 174q-44 47 -128.5 81.5t-202.5 34.5q-123 0 -207.5 -34t-128.5 -84q-40 -45 -71.5 -174t-31.5 -301z" />
<glyph unicode="&#x42f;" horiz-adv-x="1402" d="M61 0q66 87 177 234t193.5 256.5t96.5 127.5q-156 42 -254 154.5t-98 278.5q0 213 157.5 331.5t424.5 118.5q76 0 180 -2.5t170 -4.5l66 -3v-1491h-191v602q-1 0 -13 -0.5t-33.5 -1.5t-50 -2t-70 -1.5t-85.5 -0.5l-434 -596h-236zM385 1051q0 -93 28.5 -158.5t55.5 -81.5 q23 -14 42.5 -22.5t86.5 -19.5t162 -11l223 6v569q-149 4 -225 4q-96 0 -161.5 -10.5t-85 -19t-42.5 -23.5q-27 -18 -55.5 -78.5t-28.5 -154.5z" />
<glyph unicode="&#x430;" d="M113 287q0 155 131.5 243t386.5 88h92v41q0 88 -6 123t-25 58q-38 43 -147 43q-169 0 -346 -84v145q169 96 350 96q161 0 258.5 -89.5t97.5 -256.5v-471q0 -56 33 -74t106 -4v-127q-46 -30 -124 -30q-59 0 -106 32t-73 93q-76 -58 -151.5 -92.5t-169.5 -34.5 q-83 0 -151.5 32.5t-112 102t-43.5 166.5zM305 291q0 -95 43 -129q29 -23 103 -23q75 0 156.5 33t115.5 76v231h-47q-102 0 -149 -1.5t-98.5 -12.5t-76.5 -33q-47 -42 -47 -141z" />
<glyph unicode="&#x431;" horiz-adv-x="1177" d="M113 680q0 187 43.5 340.5t118.5 254t173 157.5t209 63q101 6 167 16t91.5 19t63.5 26v-157q-50 -32 -117 -51t-203 -27q-60 -4 -105 -13.5t-72.5 -25t-39 -24t-26.5 -23.5q-101 -101 -123 -395q41 77 129 130.5t196 53.5q128 0 232.5 -64t166.5 -183.5t62 -272.5 q0 -220 -139 -370t-338 -150q-103 0 -191 44.5t-155 129t-105 219t-38 303.5zM309 516q1 -89 23 -172.5t53 -120.5q25 -29 81 -55.5t136 -26.5t137.5 21.5t85.5 52.5q27 30 43.5 106.5t16.5 182.5t-17 185t-43 110q-62 69 -215 69q-147 0 -227 -80q-41 -41 -58 -95.5 t-16 -176.5z" />
<glyph unicode="&#x432;" horiz-adv-x="1105" d="M184 0v1024q240 8 346 8q194 0 304 -73t110 -201q0 -67 -42.5 -126t-104.5 -83q83 -28 136.5 -93t53.5 -155q0 -145 -118 -227t-318 -82zM367 141q129 -2 182 -2q108 0 150.5 11.5t68.5 37.5q27 27 27 115q0 86 -27 113q-25 25 -69 38t-140 13h-192v-326zM367 604h178 q61 0 101.5 7.5t55.5 16.5t29 23q23 23 23 97q0 71 -23 94t-70 33t-141 10q-18 0 -78.5 -1t-74.5 -1v-279z" />
<glyph unicode="&#x433;" horiz-adv-x="862" d="M184 0v1024h658v-154h-473v-870h-185z" />
<glyph unicode="&#x434;" horiz-adv-x="1177" d="M31 152h82q46 21 75 57q17 22 29 51t26.5 94.5t22.5 190.5t8 303v176h687v-872h163v-439h-155v287h-783v-287h-155v439zM326 152h450v722h-319v-45q0 -341 -43 -499q-27 -101 -88 -178z" />
<glyph unicode="&#x435;" horiz-adv-x="1099" d="M106 508q0 230 136 381t338 151q191 0 312.5 -138t121.5 -370l-4 -63h-709q6 -179 61 -248q26 -32 92 -54t152 -22q45 0 86.5 4t69 8.5t60.5 13.5t47.5 14t43.5 16.5t35 13.5v-145l-14 -7q-15 -7 -20.5 -9.5t-23 -10.5t-29 -12t-32.5 -11.5t-38 -11.5t-41 -9t-46.5 -8 t-50 -5t-55.5 -2q-208 0 -350 147.5t-142 376.5zM305 606h524q0 65 -13.5 124.5t-33.5 84.5q-62 70 -211 70q-147 0 -209 -70q-45 -58 -57 -209z" />
<glyph unicode="&#x436;" horiz-adv-x="1536" d="M23 0l460 545l-448 479h223l395 -440q5 -5 11.5 -9t9.5 -5l4 -1v455h180v-455q13 3 25 15l395 440h223l-448 -479l460 -545h-225l-403 498q-4 5 -11 8t-12 4h-4v-510h-180v510q-17 0 -27 -12l-403 -498h-225z" />
<glyph unicode="&#x437;" horiz-adv-x="958" d="M74 80v149q34 -17 77 -34.5t123.5 -36.5t153.5 -19q148 0 193 45q26 26 26 115t-26 115q-53 53 -207 53h-135v137h135q135 0 188 53q21 21 22 94t-22 97q-37 37 -158 37q-170 0 -321 -68v148q42 26 136 50.5t185 24.5q171 0 271 -81.5t100 -196.5q0 -75 -48 -135.5 t-116 -85.5q81 -25 135 -89.5t54 -156.5q0 -132 -112 -221.5t-302 -89.5q-102 0 -202 32t-150 64z" />
<glyph unicode="&#x438;" horiz-adv-x="1206" d="M178 0v1024h182v-623q0 -16 -1 -40.5t-2.5 -57.5t-2.5 -49q61 112 92 154l418 616h164v-1024h-182v625q0 45 8 143q-50 -91 -92 -152l-418 -616h-166z" />
<glyph unicode="&#x439;" horiz-adv-x="1206" d="M178 0v1024h182v-623q0 -16 -1 -40.5t-2.5 -57.5t-2.5 -49q61 112 92 154l418 616h164v-1024h-182v625q0 45 8 143q-50 -91 -92 -152l-418 -616h-166zM313 1495h168q4 -102 27 -125q31 -31 102 -31q70 0 101 31q22 22 26 125h168q-6 -136 -90 -214.5t-205 -78.5 q-120 0 -205.5 80t-91.5 213z" />
<glyph unicode="&#x43a;" horiz-adv-x="1075" d="M184 0v1024h185v-453q12 3 24 15l422 438h227l-473 -477l486 -547h-230l-430 498q-4 5 -10.5 8t-10.5 4h-5v-510h-185z" />
<glyph unicode="&#x43b;" horiz-adv-x="1118" d="M25 -16v176q69 0 102.5 14t60.5 41q22 22 34.5 64.5t22 177.5t9.5 370v197h686v-1024h-184v870h-320v-41q0 -354 -37 -499q-22 -88 -59 -153.5t-75 -101t-84 -57.5t-79 -28t-67 -6h-10z" />
<glyph unicode="&#x43c;" horiz-adv-x="1458" d="M180 0v1024h166l303 -434q32 -47 90 -150q7 11 37.5 65t52.5 87l283 432h166v-1024h-182v627q0 70 8 135q-43 -85 -84 -148l-258 -399h-53l-273 401q-41 60 -82 146q8 -94 8 -137v-625h-182z" />
<glyph unicode="&#x43d;" horiz-adv-x="1189" d="M178 0v1024h184v-412h465v412h185v-1024h-185v459h-465v-459h-184z" />
<glyph unicode="&#x43e;" horiz-adv-x="1175" d="M98 512q0 228 141.5 378t348.5 150q209 0 349 -148.5t140 -379.5q0 -228 -141.5 -378t-347.5 -150q-207 0 -348.5 150t-141.5 378zM293 512q0 -103 17.5 -182t43.5 -113q26 -33 87.5 -54.5t146.5 -21.5q83 0 144.5 21.5t88.5 52.5q27 35 44.5 113.5t17.5 183.5 q0 106 -17 184t-45 113q-27 31 -88.5 52.5t-144.5 21.5q-84 0 -146 -20.5t-88 -51.5q-27 -35 -44 -113.5t-17 -185.5z" />
<glyph unicode="&#x43f;" horiz-adv-x="1185" d="M178 0v1024h830v-1024h-185v870h-461v-870h-184z" />
<glyph unicode="&#x440;" horiz-adv-x="1218" d="M184 -434v1458h156l22 -131q42 45 78.5 73.5t96.5 51t129 22.5q194 0 324 -149t130 -379t-131 -379t-325 -149q-95 0 -163.5 36t-133.5 99v-553h-183zM367 260q121 -117 290 -117q149 0 207 70q26 34 44 115t18 184q0 107 -17.5 187.5t-44.5 115.5q-60 68 -207 68 q-182 0 -290 -125v-498z" />
<glyph unicode="&#x441;" horiz-adv-x="940" d="M98 512q0 151 66.5 272.5t179 188.5t246.5 67q152 0 278 -61v-150q-123 52 -276 52q-171 0 -234 -74q-28 -36 -46.5 -113t-18.5 -182q0 -100 19.5 -175.5t47.5 -111.5q27 -33 87.5 -55.5t144.5 -22.5q162 0 276 54v-150q-104 -67 -278 -67q-134 0 -246.5 67t-179 188.5 t-66.5 272.5z" />
<glyph unicode="&#x442;" horiz-adv-x="876" d="M20 870v154h836v-154h-326v-870h-184v870h-326z" />
<glyph unicode="&#x443;" horiz-adv-x="1017" d="M25 1024h198l269 -684q20 -52 43 -143q24 95 40 141l238 686h180l-377 -1020q-90 -238 -173.5 -340t-213.5 -102q-92 0 -176 47v155q103 -38 176 -38q70 0 101 26q46 46 119 248z" />
<glyph unicode="&#x444;" horiz-adv-x="1409" d="M102 512q0 114 41.5 212.5t111.5 165.5t163.5 104.5t195.5 37.5v459l181 35v-494q137 0 253 -62.5t187.5 -182.5t71.5 -275q0 -152 -71.5 -272.5t-188 -184t-252.5 -63.5v-426h-181v426q-102 0 -195.5 37.5t-163.5 104.5t-111.5 165.5t-41.5 212.5zM291 512 q0 -100 20 -183t47 -116q25 -31 97 -50.5t161 -19.5v738q-87 0 -160 -19.5t-98 -48.5q-28 -34 -47.5 -115.5t-19.5 -185.5zM793 143q87 0 160 20t98 50q28 34 47.5 115.5t19.5 183.5q0 104 -19.5 185.5t-47.5 115.5q-25 29 -98 48.5t-160 19.5v-738z" />
<glyph unicode="&#x445;" horiz-adv-x="1005" d="M37 0l366 516l-346 508h209l176 -262l76 -121q47 80 76 121l182 262h189l-353 -500l357 -524h-211l-191 289l-65 108q-43 -69 -70 -108l-199 -289h-196z" />
<glyph unicode="&#x446;" horiz-adv-x="1206" d="M178 0v1024h184v-870h445v870h184v-870h166v-441h-156v287h-823z" />
<glyph unicode="&#x447;" horiz-adv-x="1058" d="M78 748v276h184v-270q0 -144 41 -185q30 -30 131 -30q83 0 153.5 10t98.5 22v453h184v-1024h-184v434q-107 -59 -260 -59q-157 0 -252.5 107t-95.5 266z" />
<glyph unicode="&#x448;" horiz-adv-x="1632" d="M180 0v1024h185v-870h360v870h182v-870h361v870h184v-1024h-1272z" />
<glyph unicode="&#x449;" horiz-adv-x="1669" d="M180 0v1024h185v-870h360v870h182v-870h361v870h184v-870h166v-441h-156v287h-1282z" />
<glyph unicode="&#x44a;" horiz-adv-x="1114" d="M10 870v154h471v-381q136 4 156 4q205 0 315.5 -84.5t110.5 -236.5q0 -158 -115 -246t-315 -88l-336 8v870h-287zM481 141q97 -2 150 -2q104 0 144 10t65 35q12 12 21 54t9 88q0 44 -9 80.5t-21 48.5q-24 24 -66.5 34.5t-142.5 10.5q-18 0 -76 -1t-74 -1v-357z" />
<glyph unicode="&#x44b;" horiz-adv-x="1454" d="M178 0v1024h184v-381l136 4q205 0 314.5 -84.5t109.5 -236.5q0 -158 -114 -246t-314 -88zM362 141q77 -2 130 -2q104 0 143.5 10t64.5 35q12 12 21.5 54.5t9.5 87.5q0 44 -9 80t-22 49q-24 24 -66 34.5t-142 10.5q-18 0 -66 -1t-64 -1v-357zM1092 0v1024h184v-1024h-184z " />
<glyph unicode="&#x44c;" horiz-adv-x="995" d="M178 0v1024h184v-381q136 4 156 4q205 0 315.5 -84.5t110.5 -236.5q0 -158 -115 -246t-315 -88zM362 141q97 -2 150 -2q104 0 144 10t65 35q12 12 21.5 54.5t9.5 87.5q0 44 -9 80t-22 49q-24 24 -66.5 34.5t-142.5 10.5q-18 0 -76 -1t-74 -1v-357z" />
<glyph unicode="&#x44d;" horiz-adv-x="970" d="M82 55v148q141 -56 289 -56q84 0 146 22.5t89 55.5q56 71 64 226h-418v139h418q-8 149 -62 217q-63 74 -237 74q-147 0 -283 -50v148q72 30 134 45.5t151 15.5q213 0 352 -146t139 -380q0 -111 -39 -210t-105.5 -169t-157 -110.5t-189.5 -40.5q-164 0 -291 71z" />
<glyph unicode="&#x44e;" horiz-adv-x="1613" d="M180 0v1024h182v-412h230q28 190 156 309t301 119q128 0 234 -66t169.5 -187.5t63.5 -274.5q0 -227 -136 -377.5t-331 -150.5q-185 0 -314.5 132.5t-144.5 342.5h-228v-459h-182zM774 512q0 -104 15.5 -184t39.5 -113q25 -33 82 -53.5t138 -20.5q79 0 136.5 21t82.5 53 q55 75 55 297q0 224 -55 299q-25 31 -82.5 51.5t-136.5 20.5t-137 -20.5t-83 -51.5q-55 -75 -55 -299z" />
<glyph unicode="&#x44f;" horiz-adv-x="1120" d="M92 0l314 426q-106 25 -177 101t-71 192q0 146 117.5 229.5t306.5 83.5l360 -8v-1024h-182v412q-1 0 -11.5 -0.5t-28 -1t-39 -1t-49 -1t-52.5 -0.5l-287 -408h-201zM350 719q0 -37 8.5 -72t20.5 -47q26 -26 69.5 -40.5t135.5 -14.5l176 4v334q-113 2 -166 2 q-108 0 -148 -11t-67 -38q-12 -12 -20.5 -46t-8.5 -71z" />
<glyph unicode="&#x451;" horiz-adv-x="1095" d="M102 508q0 230 135.5 381t337.5 151q191 0 313 -138t122 -370l-4 -61h-709q6 -181 61 -250q26 -32 92 -54t152 -22q45 0 86.5 4t69 8.5t60.5 13.5t47.5 14t43.5 16.5t35 13.5v-145l-14 -7q-15 -7 -20.5 -9.5t-23 -10.5t-29 -12t-32.5 -11.5t-38 -11.5t-41 -9t-46.5 -8 t-50 -5t-55.5 -2q-208 0 -350 147.5t-142 376.5zM250 1370q0 46 32.5 79.5t79.5 33.5q46 0 78.5 -33.5t32.5 -79.5t-32.5 -79.5t-78.5 -33.5q-47 0 -79.5 33.5t-32.5 79.5zM301 606h524q0 65 -13.5 124.5t-33.5 84.5q-62 70 -211 70q-147 0 -209 -70q-45 -58 -57 -209z M700 1370q0 46 33.5 79.5t79.5 33.5q47 0 80 -33.5t33 -79.5t-33 -79.5t-80 -33.5q-46 0 -79.5 33.5t-33.5 79.5z" />
<glyph unicode="&#x452;" horiz-adv-x="1228" d="M10 1100v153h185v238l182 35v-273h366v-153h-366v-303q149 149 319 149q156 0 256.5 -110.5t100.5 -286.5v-508q0 -241 -93 -364t-245 -123q-89 0 -172 45v151q95 -37 172 -37q33 0 56.5 4.5t38.5 15.5t18.5 14.5t13.5 16.5q26 37 26 277v487q0 167 -47 217 q-17 17 -64.5 31t-119.5 10q-87 -6 -157 -47.5t-103 -91.5v-647h-182v1100h-185z" />
<glyph unicode="&#x453;" horiz-adv-x="862" d="M184 0v1024h658v-154h-473v-870h-185zM406 1202l221 314h204v-35l-303 -279h-122z" />
<glyph unicode="&#x454;" horiz-adv-x="966" d="M106 512q0 229 142 378.5t350 149.5q89 0 152.5 -15.5t134.5 -45.5v-148q-136 50 -285 50q-175 0 -238 -74q-53 -67 -61 -217h418v-139h-418q8 -155 64 -226q27 -33 89 -55.5t146 -22.5q149 0 285 54v-148q-123 -69 -287 -69q-208 0 -350 149.5t-142 378.5z" />
<glyph unicode="&#x455;" horiz-adv-x="960" d="M121 82v154q1 -1 20.5 -10t26 -11.5t28 -12t33 -13.5t35 -12t40 -12.5t41.5 -10t46 -8.5t47 -5t51 -2q130 0 175 45q22 22 24 94.5t-18 94.5q-27 35 -160 59q-68 13 -120.5 28.5t-104 41t-85 57.5t-54.5 78.5t-21 103.5q0 53 22.5 105t65.5 96t114.5 71t159.5 27 q186 0 320 -75v-148q-45 20 -78 31.5t-100 24t-142 12.5q-122 0 -165 -43q-23 -23 -24.5 -90.5t17.5 -87.5q28 -28 152 -50q89 -17 155 -39.5t123 -58t87 -90t30 -125.5q0 -137 -105.5 -227t-273.5 -90q-193 0 -362 98z" />
<glyph unicode="&#x456;" horiz-adv-x="561" d="M156 1391q0 53 36 89t89 36t89 -36t36 -89t-36 -89t-89 -36t-89 36t-36 89zM188 0v1024h185v-1024h-185z" />
<glyph unicode="&#x457;" horiz-adv-x="610" d="M20 1370q0 46 33 79.5t80 33.5q46 0 78.5 -33.5t32.5 -79.5t-32.5 -79.5t-78.5 -33.5q-47 0 -80 33.5t-33 79.5zM213 0v1024h184v-1024h-184zM365 1370q0 46 33 79.5t79 33.5q47 0 80 -33.5t33 -79.5t-33 -79.5t-80 -33.5q-46 0 -79 33.5t-33 79.5z" />
<glyph unicode="&#x458;" horiz-adv-x="604" d="M-109 -248q102 -39 177 -39q43 0 73.5 10t39.5 18.5t20 22.5q26 37 26 236v1024h185v-1026q0 -205 -96 -324.5t-248 -119.5q-85 0 -177 47v151zM195 1391q0 53 36 89t88 36q53 0 89 -36t36 -89t-36 -89t-89 -36q-52 0 -88 36t-36 89z" />
<glyph unicode="&#x459;" horiz-adv-x="1529" d="M25 -16v176q69 0 102.5 14t60.5 41q22 22 34.5 64.5t22 177.5t9.5 370v197h666v-381q25 1 52 2t44.5 1.5t38.5 0.5q203 0 310.5 -86t107.5 -235q0 -156 -112 -245t-310 -89l-316 8v870h-299v-41q0 -354 -37 -499q-22 -88 -59 -153.5t-75 -101t-84 -57.5t-79 -28t-67 -6 h-10zM920 141q76 -2 129 -2q96 0 137 10.5t65 34.5q12 12 21.5 54.5t9.5 87.5q0 44 -9 80t-22 49q-24 24 -66.5 34.5t-135.5 10.5q-18 0 -65.5 -1t-63.5 -1v-357z" />
<glyph unicode="&#x45a;" horiz-adv-x="1601" d="M178 0v1024h182v-412h449v412h182v-381q25 1 52 2t44.5 1.5t38.5 0.5q203 0 310.5 -86t107.5 -235q0 -156 -112 -245t-310 -89q-59 0 -137.5 2t-126.5 4l-49 2v459h-449v-459h-182zM991 141q76 -2 129 -2q96 0 137.5 10.5t65.5 34.5q12 12 21.5 54.5t9.5 87.5q0 44 -9 80 t-22 49q-24 24 -67 34.5t-136 10.5q-18 0 -65.5 -1t-63.5 -1v-357z" />
<glyph unicode="&#x45b;" horiz-adv-x="1220" d="M10 1100v153h185v238l182 35v-273h366v-153h-366v-303q149 149 319 149q156 0 256.5 -110.5t100.5 -286.5v-549h-185v528q0 167 -47 217q-17 17 -64.5 31t-119.5 10q-87 -6 -157 -47.5t-103 -91.5v-647h-182v1100h-185z" />
<glyph unicode="&#x45c;" horiz-adv-x="1075" d="M184 0v1024h185v-453q12 3 24 15l422 438h227l-473 -477l486 -547h-230l-430 498q-4 5 -10.5 8t-10.5 4h-5v-510h-185zM508 1202l221 314h205v-35l-303 -279h-123z" />
<glyph unicode="&#x45e;" horiz-adv-x="1009" d="M20 1024h199l268 -684q20 -52 43 -143q21 83 41 141l238 686h180l-377 -1020q-90 -238 -173.5 -340t-213.5 -102q-92 0 -176 47v155q103 -38 176 -38q70 0 101 26q45 45 118 248zM221 1495h168q4 -99 27 -125q35 -31 102 -31q65 0 100 31q23 26 27 125h168 q-6 -136 -90 -214.5t-205 -78.5q-120 0 -205.5 80t-91.5 213z" />
<glyph unicode="&#x45f;" horiz-adv-x="1185" d="M178 0v1024h184v-870h461v870h185v-1024h-328v-307h-174v307h-328z" />
<glyph unicode="&#x490;" horiz-adv-x="1107" d="M229 0v1495h686v291h172v-459h-663v-1327h-195z" />
<glyph unicode="&#x491;" horiz-adv-x="862" d="M184 0v1024h502v266h156v-420h-473v-870h-185z" />
<glyph unicode="&#x1e9e;" horiz-adv-x="1466" d="M217 0v903q0 131 44.5 245t120 193t178.5 124.5t218 45.5q140 0 265.5 -63.5t203.5 -175.5l-262 -254q-17 -17 -51 -46t-59 -49l-25 -20q140 -5 253 -66t176.5 -162.5t63.5 -223.5t-66.5 -230t-181.5 -172.5t-249 -64.5q-55 0 -106 10.5t-81 21.5t-73 31v160 q122 -55 262 -55q139 0 221 59q27 22 46.5 82.5t19.5 157.5q0 174 -66 227q-39 32 -130 46.5t-294 14.5v140l404 393q-38 26 -112 46.5t-159 20.5q-105 0 -172.5 -27t-101.5 -61t-62 -132.5t-28 -280.5v-838h-197z" />
<glyph unicode="&#x2000;" horiz-adv-x="993" />
<glyph unicode="&#x2001;" horiz-adv-x="1987" />
<glyph unicode="&#x2002;" horiz-adv-x="993" />
<glyph unicode="&#x2003;" horiz-adv-x="1987" />
<glyph unicode="&#x2004;" horiz-adv-x="662" />
<glyph unicode="&#x2005;" horiz-adv-x="496" />
<glyph unicode="&#x2006;" horiz-adv-x="331" />
<glyph unicode="&#x2007;" horiz-adv-x="331" />
<glyph unicode="&#x2008;" horiz-adv-x="248" />
<glyph unicode="&#x2009;" horiz-adv-x="397" />
<glyph unicode="&#x200a;" horiz-adv-x="110" />
<glyph unicode="&#x2010;" horiz-adv-x="759" d="M123 549v158h514v-158h-514z" />
<glyph unicode="&#x2011;" horiz-adv-x="759" d="M123 549v158h514v-158h-514z" />
<glyph unicode="&#x2012;" horiz-adv-x="759" d="M123 549v158h514v-158h-514z" />
<glyph unicode="&#x2013;" horiz-adv-x="1196" d="M143 549v158h910v-158h-910z" />
<glyph unicode="&#x2014;" horiz-adv-x="1574" d="M123 549v158h1329v-158h-1329z" />
<glyph unicode="&#x2018;" horiz-adv-x="430" d="M82 1245q0 24 4 47.5t8.5 41.5t14.5 37.5t16.5 32t19 29t18.5 23.5t19 21.5t15 17.5h120q-1 -1 -18.5 -23.5t-24 -31.5t-21.5 -32.5t-21.5 -41t-12.5 -43t-6 -49.5h20q53 0 84 -32t31 -83q0 -48 -33 -81.5t-84 -33.5q-68 0 -108.5 49t-40.5 152z" />
<glyph unicode="&#x2019;" horiz-adv-x="430" d="M82 1380q0 48 33 81.5t84 33.5q68 0 108.5 -49t40.5 -152q0 -24 -4 -47.5t-8.5 -41.5t-14.5 -37.5t-16.5 -32t-19 -29t-18.5 -23.5t-19 -21.5t-15 -17.5h-120q3 3 16 20t19.5 26t19 27t19.5 33t15 34.5t11.5 40t3.5 41.5h-20q-53 0 -84 32t-31 82z" />
<glyph unicode="&#x201a;" horiz-adv-x="481" d="M102 115q0 48 32.5 81t84.5 33q67 0 108.5 -51t41.5 -155q0 -30 -4 -57t-13 -50.5t-17 -41t-22 -36.5l-21 -28.5t-22 -26t-18 -19.5h-119q3 4 16 22t19.5 28t19 30t20 36t15.5 36.5t11.5 41.5t3.5 42h-21q-53 0 -84 32t-31 83z" />
<glyph unicode="&#x201c;" horiz-adv-x="790" d="M82 1245q0 24 4 47.5t8.5 41.5t14.5 37.5t16.5 32t19 29t18.5 23.5t19 21.5t15 17.5h120q-1 -1 -18.5 -23.5t-24 -31.5t-21.5 -32.5t-21.5 -41t-12.5 -43t-6 -49.5h20q53 0 84 -32t31 -83q0 -48 -33 -81.5t-84 -33.5q-68 0 -108.5 49t-40.5 152zM442 1245q0 24 4 47.5 t8.5 41.5t14.5 37.5t16.5 32t19 29t18.5 23.5t19 21.5t15 17.5h121q-2 -3 -18.5 -23.5t-24 -30.5t-22 -33.5t-21.5 -41t-13 -43t-6 -49.5h21q53 0 84 -32t31 -83q0 -48 -33 -81.5t-84 -33.5q-68 0 -109 49t-41 152z" />
<glyph unicode="&#x201d;" horiz-adv-x="790" d="M82 1380q0 48 33 81.5t84 33.5q68 0 108.5 -49t40.5 -152q0 -24 -4 -47.5t-8.5 -41.5t-14.5 -37.5t-16.5 -32t-19 -29t-18.5 -23.5t-19 -21.5t-15 -17.5h-120q3 3 16 20t19.5 26t19 27t19.5 33t15 34.5t11.5 40t3.5 41.5h-20q-53 0 -84 32t-31 82zM442 1380q0 48 33 81.5 t84 33.5q68 0 109 -49t41 -152q0 -24 -4 -47.5t-8.5 -41.5t-14.5 -37.5t-16.5 -32t-19 -29t-18.5 -23.5t-19 -21.5t-15 -17.5h-121q1 2 18.5 23.5t24 31t21.5 33.5t22 41.5t13 43t6 49.5h-21q-53 0 -84 32t-31 82z" />
<glyph unicode="&#x201e;" horiz-adv-x="790" d="M82 115q0 48 32.5 81t84.5 33q68 0 108.5 -48.5t40.5 -151.5q0 -24 -4 -47.5t-8.5 -41.5t-14.5 -37.5t-16.5 -32t-19 -29t-18.5 -23.5t-19 -21.5t-15 -17.5h-120q1 1 18.5 23.5t24 31.5t21.5 32.5t21.5 41t12.5 43t6 49.5h-20q-53 0 -84 32t-31 83zM442 115q0 48 32.5 81 t84.5 33q68 0 109 -48.5t41 -151.5q0 -24 -4 -47.5t-8.5 -41.5t-14.5 -37.5t-16.5 -32t-19 -29t-18.5 -23.5t-19 -21.5t-15 -17.5h-121q2 3 18.5 23.5t24 30.5t22 33.5t21.5 41t13 43t6 49.5h-21q-53 0 -84 32t-31 83z" />
<glyph unicode="&#x2020;" horiz-adv-x="1050" d="M82 924v151h371v436h147v-436h369v-151h-369v-1235h-147v1235h-371z" />
<glyph unicode="&#x2021;" horiz-adv-x="1091" d="M102 125v151h371v648h-371v151h371v436h148v-436h368v-151h-368v-648h368v-151h-368v-436h-148v436h-371z" />
<glyph unicode="&#x2022;" horiz-adv-x="876" d="M164 614q0 114 80 194.5t194 80.5t194.5 -80.5t80.5 -194.5t-80.5 -194t-194.5 -80t-194 80t-80 194z" />
<glyph unicode="&#x2026;" horiz-adv-x="1724" d="M154 121q0 57 40 97t97 40t97 -40t40 -97t-40 -97t-97 -40t-97 40t-40 97zM715 121q0 57 40 97t97 40t97 -40t40 -97t-40 -97t-97 -40t-97 40t-40 97zM1296 121q0 57 40.5 97t97.5 40t97 -40t40 -97t-40 -97t-97 -40t-97.5 40t-40.5 97z" />
<glyph unicode="&#x202f;" horiz-adv-x="397" />
<glyph unicode="&#x2030;" horiz-adv-x="2392" d="M102 1169q0 146 97 242t237 96q139 0 236.5 -96t97.5 -242q0 -148 -97.5 -246t-236.5 -98q-140 0 -237 97.5t-97 246.5zM174 0l1133 1495h174l-1133 -1495h-174zM272 1169q0 -59 10 -105.5t23 -59.5q14 -15 49 -27t82 -12t82 12t49 27q12 16 22.5 61.5t10.5 103.5 t-10.5 102t-22.5 60q-14 15 -49 27t-82 12t-82 -12t-49 -27q-13 -15 -23 -59t-10 -103zM885 332q0 146 97 242t237 96q139 0 236 -96t97 -242q0 -149 -97 -246.5t-236 -97.5q-140 0 -237 97.5t-97 246.5zM1055 332q0 -59 9.5 -106t22.5 -60q14 -15 49.5 -27t82.5 -12t82 12 t49 27q12 15 22 61.5t10 104.5t-10 102t-22 60q-13 15 -48.5 26.5t-82.5 11.5t-83 -11.5t-49 -26.5t-22.5 -58.5t-9.5 -103.5zM1663 332q0 146 97 242t237 96q139 0 236.5 -96t97.5 -242q0 -148 -97.5 -246t-236.5 -98q-140 0 -237 97.5t-97 246.5zM1833 332q0 -59 10 -106 t23 -60q14 -15 49 -27t82 -12t82 12t49 27q12 16 22.5 62t10.5 104t-10.5 102t-22.5 60q-13 15 -48.5 26.5t-82.5 11.5t-82.5 -11.5t-48.5 -26.5t-23 -59t-10 -103z" />
<glyph unicode="&#x2039;" horiz-adv-x="665" d="M72 496v71l336 375h186l-371 -410l371 -411h-186z" />
<glyph unicode="&#x203a;" horiz-adv-x="665" d="M72 121l370 411l-370 410h186l336 -375v-71l-336 -375h-186z" />
<glyph unicode="&#x205f;" horiz-adv-x="496" />
<glyph unicode="&#x2081;" horiz-adv-x="733" d="M143 -111h168v545q-47 -21 -88 -35l-80 -28v131l312 116v-729h155v-135h-467v135z" />
<glyph unicode="&#x2082;" horiz-adv-x="837" d="M123 -143q321 317 371 381q26 33 26 112q0 81 -26 107t-95 26q-115 0 -249 -82v129q127 88 247 88q127 0 203 -78.5t76 -189.5q0 -23 -6 -46.5t-12.5 -42t-25 -45t-30.5 -42.5t-42 -49t-45.5 -49t-57 -57.5t-60.5 -61.5l-75 -68h372v-135h-571v103z" />
<glyph unicode="&#x2083;" horiz-adv-x="843" d="M123 -49q137 -74 266 -74q53 0 87.5 10t45.5 21q29 29 29 115q0 81 -29 110q-31 31 -137 31q-29 0 -62 -2.5t-51 -5.5l-18 -2v110l152 135q16 15 39.5 33.5t38.5 29.5l16 11h-338v131h518v-117q-55 -49 -166 -147q-16 -14 -38 -30t-36 -25l-14 -9q119 0 202 -68.5 t83 -182.5q0 -110 -92 -196.5t-232 -86.5t-264 78v131z" />
<glyph unicode="&#x2084;" horiz-adv-x="841" d="M82 -35v115l397 528h125v-512h135v-131h-135v-215h-143v215h-379zM244 90q1 0 24.5 1.5t51.5 3t40 1.5h101v178l6 117z" />
<glyph unicode="&#x20a1;" horiz-adv-x="1245" d="M123 748q0 201 79 364t215 259.5t306 117.5l86 254h145l-84 -250q76 -2 168 -25l95 275h145l-109 -320v-153q-32 11 -47 14l-377 -1106q20 -2 68 -2q204 0 361 57v-157q-74 -36 -155 -56t-212 -20q-54 0 -119 10l-86 -256h-145l98 291q-77 29 -149 82l-127 -373h-146 l162 477q-172 204 -172 517zM340 748q0 -156 35 -285l287 846q-129 -25 -207 -103q-45 -47 -80 -167.5t-35 -290.5zM461 291q59 -59 147 -88l377 1108q-98 12 -174 12z" />
<glyph unicode="&#x20a4;" horiz-adv-x="1136" d="M20 0q0 138 91 223q5 5 25 23.5t25 23t21 21t21 23.5t17.5 23.5t16.5 27.5t12.5 29.5t12 36l8 40t6.5 47.5h-188v154h188v172h-188v153h188q1 241 119 377.5t303 136.5q84 0 160 -24t109 -49v-158q-30 20 -108.5 41.5t-156.5 21.5q-127 0 -180 -53q-17 -17 -27 -38.5 t-19 -86t-9 -168.5h403v-153h-403v-172h403v-154h-407q-10 -76 -39 -127q-26 -45 -57 -76q57 0 104 -17t80.5 -41t65 -47.5t71.5 -40.5t86 -17q74 0 100 26q33 33 33 129h209q-15 -146 -110 -234.5t-234 -88.5q-58 0 -106 17t-81.5 41.5t-64.5 49t-71 41.5t-87 17 q-70 0 -96 -23q-37 -37 -37 -127h-209z" />
<glyph unicode="&#x20ac;" horiz-adv-x="1146" d="M-41 498l70 153h114q-6 55 -6 99q0 77 6 122h-184l70 154h145q70 216 229.5 350.5t354.5 134.5q215 0 368 -88l-65 -139q-134 57 -299 57q-216 0 -324 -116q-21 -22 -44 -76.5t-40 -122.5h590l-72 -154h-536q-6 -67 -6 -122q0 -64 4 -99h438l-72 -153h-354 q18 -76 45 -138t49 -84q109 -118 322 -118q170 0 315 59v-158q-45 -24 -78 -37.5t-97 -25.5t-146 -12q-204 0 -365.5 142t-224.5 372h-207z" />
<glyph unicode="&#x20b4;" horiz-adv-x="1273" d="M102 518v154h250q37 31 87.5 61t118.5 64t91 47h-547v153h738q25 23 36.5 81t5.5 115t-26 79q-64 69 -223 69q-213 0 -410 -96v158q165 108 404 108q103 0 191.5 -32.5t145 -85t88 -116t31.5 -128.5q0 -80 -39 -152h127v-153h-247q-57 -44 -113 -76.5t-117.5 -61 t-72.5 -34.5h550v-154h-745q-37 -39 -40.5 -137t32.5 -150q51 -73 227 -73q42 0 83.5 4t73.5 9.5t68.5 16.5t58 18t53.5 21.5t44 20t40 20.5t32 17v-168q-52 -32 -77.5 -45.5t-86 -39t-130.5 -37t-153 -11.5q-201 0 -335 115t-134 272q0 63 39 147h-119z" />
<glyph unicode="&#x20bd;" horiz-adv-x="1241" d="M51 295v154h185v165h-185v154h185v727q225 6 397 6q268 0 417.5 -115.5t149.5 -341.5q0 -112 -41 -196t-115 -134.5t-169 -75t-211 -24.5h-236v-165h479v-154h-479v-295h-192v295h-185zM428 768h203q96 0 156 8.5t80 17.5t44 27q78 58 78 228q0 94 -23.5 149t-52.5 78 q-22 18 -42.5 28.5t-82.5 20.5t-157 10l-203 -4v-563z" />
<glyph unicode="&#x2116;" horiz-adv-x="2308" d="M225 0v1495h146l690 -1001q20 -30 45.5 -74t41.5 -72l15 -29q-6 113 -6 181v995h176v-1495h-145l-690 1001q-20 30 -45.5 75t-41.5 74l-16 30q6 -133 6 -203v-977h-176zM1528 1169q0 146 97 242t237 96q139 0 236 -96t97 -242q0 -149 -97 -246.5t-236 -97.5 q-140 0 -237 97.5t-97 246.5zM1556 539v147h596v-147h-596zM1698 1169q0 -59 10 -105.5t23 -59.5q14 -15 49 -27t82 -12t82 12t49 27q12 15 22 61t10 104t-10 102t-22 60q-14 15 -49 27t-82 12t-82 -12t-49 -27q-13 -15 -23 -59t-10 -103z" />
<glyph unicode="&#x2122;" horiz-adv-x="1927" d="M45 1341v154h711v-154h-271v-604h-170v604h-270zM870 737h168v402q0 26 -8 104q32 -57 66 -108l223 -301h39l209 301q25 40 63 108q-1 -13 -3.5 -50.5t-2.5 -51.5v-404h168v758h-156l-223 -326q-16 -23 -33.5 -51.5t-27.5 -45.5l-9 -17q-34 59 -75 112l-240 328h-158 v-758z" />
<glyph unicode="&#x25fc;" horiz-adv-x="1024" d="M0 0v1024h1024v-1024h-1024z" />
<glyph unicode="&#xf6cb;" horiz-adv-x="1077" d="M184 1749q0 45 34.5 79t84.5 34q47 0 81 -34t34 -79t-34 -78t-81 -33q-50 0 -84.5 33t-34.5 78zM655 1749q0 44 36 78.5t83 34.5q50 0 84.5 -34t34.5 -79t-34.5 -78t-84.5 -33q-47 0 -83 33.5t-36 77.5z" />
<glyph horiz-adv-x="573" />
<glyph horiz-adv-x="1024" />
<glyph horiz-adv-x="1046" />
<glyph horiz-adv-x="2078" d="M225 0v260q39 6 72 6q38 0 64 -18.5t26 -54.5q0 -56 -55 -76l10 -13l70 -104h-43l-74 113h-33v-113h-37zM231 440v1028l27 27h1546l29 -27v-778l-6 -18l-254 -252l-21 -10h-1294zM262 141h27q59 0 59 49q0 46 -51 46l-35 -3v-92zM428 94q0 47 22 73t64 26q33 0 54.5 -20 t21.5 -54q0 -21 -2 -31h-125q0 -61 57 -61q32 0 49 14l15 -25q-26 -20 -68 -20q-43 0 -65.5 27.5t-22.5 70.5zM457 1016l6 -8h125l6 8v172h143v-447h-135l-8 -8v-121l8 -8h418l8 8v121l-8 8h-133v447h141v-172l8 -8h123l6 8v291l-8 8h-692l-8 -8v-291zM465 115h90 q0 49 -41 49q-49 0 -49 -49zM633 0v188h26l5 -22q27 27 61 27q26 0 44.5 -18t18.5 -62v-113h-34v106q0 18 -2 29.5t-10.5 20t-24.5 8.5q-18 0 -32 -11t-17 -26v-127h-35zM817 160v28h31v37l35 8v-45h51v-28h-51v-101q0 -19 5.5 -25.5t16.5 -6.5q7 0 15 2t12 4l4 2l8 -27 q-24 -12 -47 -12q-49 0 -49 57v107h-31zM965 53q0 37 26.5 49.5t85.5 12.5q1 31 -6 40t-29 9q-24 0 -57 -19l-12 25q41 23 76 23q38 0 50.5 -21.5t12.5 -60.5q0 -74 2 -88l4 -25h-31q-4 17 -6 25q-22 -27 -59 -27q-26 0 -41.5 16t-15.5 41zM997 55q0 -28 33 -28q13 0 27 7 t20 17v37q-45 0 -62.5 -6t-17.5 -27zM1155 147h27v-147h51v147h43v41h-43v6.5v6.5v5.5t0.5 5t1 4.5t2 4t3 3t3.5 2.5t5 1t7 0.5q16 0 31 -6l10 39q-28 8 -49 8q-65 0 -65 -67v-13h-27v-41zM1294 94q0 -53 27.5 -76.5t67.5 -23.5q43 0 68.5 26t25.5 74q0 46 -25.5 73.5 t-68.5 27.5t-69 -27.5t-26 -73.5zM1348 94q0 60 41 60t41 -60q0 -31 -9 -45t-32 -14q-41 0 -41 59zM1518 0h51v123q12 29 39 29q18 0 24 -10t6 -36v-106h52v117q0 78 -60 78q-41 0 -63 -31l-8 24h-41v-188zM1716 147h27v-96q0 -57 51 -57q36 0 57 12l-10 39q-18 -6 -31 -6 q-16 0 -16 33v75h49v41h-49v50l-51 -13v-37h-27v-41z" />
<glyph horiz-adv-x="1091" />
</font>
</defs>
</svg>
