<svg width="275" height="194" viewBox="0 0 275 194" fill="none" xmlns="http://www.w3.org/2000/svg">
<path d="M112.146 31.001C106.455 30.782 104.484 27.4436 104.211 25.8017C103.663 30.7273 109.547 34.1479 112.557 35.2424V32.2324H129.523V36.2002L137.458 30.5905C136.592 31.001 134.065 31.7672 130.891 31.5482C124.652 31.1104 122.91 23.4302 122.818 19.6448H121.313C120.629 23.5214 117.838 31.2199 112.146 31.001Z" fill="black"/>
<path d="M173.716 84.4979C172.512 83.1845 171.208 83.9507 170.706 84.4979C170.615 84.8628 170.432 85.7567 170.432 86.4135C169.557 87.2891 169.338 89.4235 169.338 90.3813V106.526C170.524 110.084 173.114 117.39 173.99 118.156C175.084 119.114 175.221 118.977 176.589 118.43C175.823 118.539 175.358 117.381 175.221 116.788L173.716 107.758C173.853 102.65 174.127 91.859 174.127 89.5604C174.127 87.2618 173.853 86.5959 173.716 86.5503V84.4979Z" fill="black"/>
<path d="M185.073 92.4337C183.759 91.7769 182.519 92.16 182.062 92.4337V96.2647C181.625 96.2647 181.242 97.5417 181.105 98.1802V109.673L182.062 110.494L182.61 114.051H184.525L185.073 110.494L186.03 109.673V98.1802C186.03 96.9761 185.392 96.4015 185.073 96.2647V92.4337Z" fill="black"/>
<path d="M15.4137 82.9929H13.9086C13.7718 84.3611 13.5529 87.3712 13.7718 88.4658C14.0455 89.834 15.6873 95.3069 16.6451 97.3592C17.6028 99.4115 18.0133 101.601 18.2869 103.106C18.5059 104.31 19.9288 106.617 20.6129 107.621L31.6954 120.756C31.0569 119.479 30.081 116.706 31.285 115.83C32.79 114.736 33.0637 113.641 33.0637 111.999C31.8323 111.041 16.7819 89.4235 15.961 87.6449C15.3042 86.2219 15.3225 83.9507 15.4137 82.9929Z" fill="black"/>
<path d="M119.261 10.8879C119.124 12.6666 119.891 16.0324 124.05 15.2662C126.786 14.5821 128.018 11.572 128.291 8.97241" stroke="black" stroke-width="0.3"/>
<path d="M171.801 31.6851C177.638 38.8454 189.56 53.3849 190.545 54.2606C191.53 55.1363 197.25 55.1728 199.986 55.0815" stroke="black" stroke-width="0.3"/>
<path d="M174.948 115.557L265.934 126.913C267.211 126.776 270.011 126.119 270.996 124.587C272.228 122.671 275.648 112.41 273.049 102.558C270.996 97.4961 271.544 97.6329 267.439 94.3492C264.155 91.7222 242.72 76.2888 232.413 68.9004L206.554 67.2585" stroke="black" stroke-width="0.3"/>
<path d="M232.823 94.3491L231.455 116.651" stroke="black" stroke-width="0.3"/>
<path d="M234.328 119.661L263.061 122.945C263.973 123.173 265.879 122.972 266.208 120.345C266.536 117.718 267.257 105.477 267.576 99.6853C267.85 98.4539 267.768 95.9637 265.25 95.8542" stroke="black" stroke-width="0.3"/>
<path d="M236.928 93.2544L260.461 95.1699" stroke="black" stroke-width="0.3"/>
<path d="M262.24 120.072L263.745 98.1802L236.654 95.5806L235.012 116.925L262.24 120.072Z" stroke="black" stroke-width="0.3"/>
<path d="M102.706 6.09923C102.98 5.05027 104.293 2.73342 107.358 1.85776C111.189 0.763192 114.473 2.54187 116.935 4.45737C118.906 5.98977 119.216 9.38296 119.125 10.888C118.896 12.4843 117.838 16.0599 115.43 17.5923C112.42 19.5078 108.589 18.2764 106.4 17.5923C104.211 16.9082 101.475 12.5299 101.885 8.69886" stroke="black" stroke-width="0.3"/>
<path d="M128.428 11.5721C128.748 13.7613 130.919 18.249 137.048 18.6868C143.178 19.1247 145.166 13.214 145.394 10.2039C145.577 7.6043 144.354 2.13144 138.006 1.03687" stroke="black" stroke-width="0.3"/>
<path d="M128.292 10.2039C128.292 7.23944 129.988 1.25578 136.775 1.03687" stroke="black" stroke-width="0.3"/>
<path d="M101.885 8.69873L103.527 23.3386C103.162 23.1106 102.377 22.9008 102.159 23.8859C101.94 24.871 102.432 29.3132 102.706 31.4111C103.527 31.9584 105.47 33.2171 106.674 33.8739C108.179 34.6948 107.631 34.9685 108.316 35.2421C108.863 35.461 110.915 35.6982 111.873 35.7894V37.1576L106.263 36.4735C106.354 35.8806 106.4 34.6675 105.853 34.558C105.305 34.4485 104.074 34.5124 103.527 34.558L103.39 35.6526L101.064 35.3789C100.608 35.1509 99.4769 34.6948 98.6012 34.6948C98.6012 33.8739 98.6012 33.8739 97.6435 33.8739C96.8773 33.8739 92.9459 33.8739 91.076 33.8739V34.6948C90.5744 34.8316 89.1879 35.0232 87.6555 34.6948C86.1231 34.3664 79.4462 34.0107 76.2993 33.8739C75.6608 33.6915 74.0554 33.354 72.7419 33.4634C71.4284 33.5729 70.644 33.7827 70.416 33.8739L68.7741 34.0107V35.9262C68.2268 36.4279 67.187 38.1154 67.4059 40.8518C67.6248 43.5882 69.4126 45.1845 70.2791 45.6405L70.416 47.6929H82.1826C82.5018 50.2469 83.1951 55.437 83.414 55.7653C83.6329 56.0937 83.6876 57.4528 83.6876 58.0913C83.3228 58.3649 82.5931 59.049 82.5931 59.5963C82.5931 60.1436 82.5931 61.1926 82.5931 61.6487L75.3415 86.4133L56.3233 87.5079C56.597 86.8238 57.4179 85.1546 58.5125 83.9506C59.607 82.7465 62.2523 80.6212 63.438 79.7091C62.7995 79.2986 61.03 78.5324 59.0598 78.7513C56.597 79.025 53.4501 84.2242 53.0396 85.3188C52.7112 86.1944 52.2643 87.4167 52.0819 87.9184L33.8846 89.013C31.9235 88.9673 27.5634 89.1771 25.8121 90.3812C24.0608 91.5852 21.1602 93.8929 19.9288 94.8963C18.971 93.2088 16.8914 89.5602 16.2346 88.4657C15.5779 87.3711 15.14 84.7259 15.0032 83.5401H13.9087C13.7262 84.9083 13.4708 87.9184 13.9087 89.013C14.3465 90.1075 15.9154 95.3067 16.6451 97.7695C15.4137 98.9553 12.4857 101.518 10.625 102.285C8.299 103.242 4.87846 105.842 3.64706 107.347C2.41567 108.852 1.3211 114.325 1.04746 117.472C0.773812 120.619 1.73156 123.629 2.68931 124.587C3.45551 125.353 14.8664 124.45 20.4761 123.902C21.5707 123.811 23.8693 123.601 24.3071 123.492C24.7449 123.383 28.3205 120.436 30.0536 118.977C27.1347 115.465 21.1328 108.223 20.4761 107.347C19.6552 106.252 18.2869 104.2 18.1501 102.285C18.0407 100.752 17.3748 99.0009 17.0556 98.3168" stroke="black" stroke-width="0.3"/>
<path d="M20.2026 95.5806L32.927 112.136C32.7902 113.048 32.2977 114.982 31.422 115.42C30.3274 115.967 30.7379 118.156 30.7379 118.43C30.7379 118.649 31.8325 121.531 32.3798 122.945L37.579 122.534C39.0384 121.44 41.9846 118.813 42.0941 117.062C42.2035 115.31 43.5991 115.237 44.2832 115.42" stroke="black" stroke-width="0.3"/>
<path d="M41.1362 111.588C42.1852 110.767 44.5294 109.618 45.5145 111.588C46.7459 114.051 44.2831 113.23 44.2831 116.24C44.2831 118.648 45.1041 120.983 45.5145 121.85L50.3033 121.576L54.4079 117.061" stroke="black" stroke-width="0.3"/>
<path d="M51.8084 88.6025C51.4891 91.2478 50.8506 97.0855 50.8506 99.2746C50.8506 101.464 50.4858 105.568 50.3033 107.347C49.8473 107.894 49.1267 109.263 49.8929 110.357C50.6591 111.452 51.4891 111.725 51.8084 111.725C51.9908 112.227 52.4104 113.449 52.6293 114.325C52.8482 115.201 53.4502 115.784 53.7239 115.967" stroke="black" stroke-width="0.3"/>
<path d="M55.9129 89.2869C55.7305 91.8865 55.4203 97.4688 55.6393 99.0012C55.9129 100.917 56.3234 104.611 56.7338 106.663C57.0622 108.305 57.7828 110.449 58.102 111.315L56.7338 114.462C56.9163 116.195 57.4453 119.771 58.102 120.209C58.7588 120.646 62.2067 120.209 63.8485 119.935L67.6796 115.283C67.2691 114.781 66.3113 113.45 65.764 112.136C65.2168 110.823 65.3536 110.129 65.4904 109.947C64.9431 109.4 63.8485 108.114 63.8485 107.347C63.8485 106.581 63.8485 104.839 63.8485 104.064C62.2523 102.194 58.8682 98.235 58.102 97.3594C57.1443 96.2648 55.9129 94.3493 57.6916 92.4338C59.4703 90.5183 70.6896 86.5505 71.1001 86.6873C71.4285 86.7967 71.5106 87.5538 71.5106 87.9187L67.6796 89.971L67.1323 89.2869C64.7151 90.1534 59.7713 92.1602 59.3334 93.2547C58.7862 94.623 57.9652 94.8966 59.6071 96.6753C61.2489 98.454 64.3958 101.19 65.764 102.832C66.8586 104.146 68.1356 105.934 68.6373 106.663L68.9109 108.852C69.2758 109.217 70.0329 110.029 70.1423 110.357C70.2518 110.686 69.367 112.319 68.9109 113.094C68.8653 113.778 68.9109 115.338 69.4582 116.104C70.0055 116.87 70.9633 118.795 71.3737 119.661C76.4817 136.445 86.0684 170.723 83.5508 173.569C81.0333 176.415 72.7419 144.38 68.9109 128.007" stroke="black" stroke-width="0.3"/>
<path d="M65.7643 112.136C66.3115 113.45 67.2693 114.781 67.6798 115.283L69.4584 116.104C68.9111 115.338 68.8655 113.778 68.9111 113.094C69.3672 112.319 70.252 110.686 70.1425 110.357C70.0331 110.029 69.276 109.217 68.9111 108.852L68.6375 106.663C68.1358 105.934 66.8588 104.146 65.7643 102.832C64.396 101.19 61.2491 98.454 59.6073 96.6753C57.9654 94.8966 58.7864 94.623 59.3336 93.2547C59.7715 92.1602 64.7153 90.1534 67.1325 89.2869L67.6798 89.971L71.5108 87.9187C71.5108 87.5538 71.4287 86.7967 71.1003 86.6873C70.6898 86.5505 59.4705 90.5183 57.6918 92.4338C55.9131 94.3493 57.1445 96.2648 58.1022 97.3594C58.8684 98.235 62.2525 102.194 63.8487 104.064V107.347C63.8487 108.114 64.9433 109.4 65.4906 109.947C65.3538 110.129 65.217 110.823 65.7643 112.136Z" fill="black"/>
<path d="M78.2149 145.247C80.5865 154.688 84.9191 173.432 83.2773 172.885C81.6354 172.337 77.6676 159.522 75.8889 153.182" stroke="black" stroke-width="0.3"/>
<path d="M74.6577 127.186C76.1171 127.004 79.2276 125.626 79.9938 121.577C80.9515 116.514 82.4565 117.746 82.7302 113.915C83.0038 110.084 82.7302 108.442 82.7302 105.842C82.7302 103.762 87.747 79.8916 90.2554 68.2161C90.7114 67.2128 91.6236 64.8777 91.6236 63.5642C91.6236 62.2507 91.1675 57.1792 90.9395 54.8076L110.642 53.1658L112.147 75.6045C112.329 78.7058 112.721 84.9905 112.831 85.3188C112.968 85.7293 114.473 85.8661 115.841 85.7293C117.209 85.5925 118.441 86.687 122.408 86.8239C122.408 89.3414 122.408 92.1599 122.408 93.2545C121.724 93.7105 120.411 95.1426 120.63 97.2223C118.441 96.7845 117.62 97.4959 117.483 97.9064L116.936 104.063C116.799 104.793 116.388 106.253 115.841 106.253C115.157 106.253 110.368 105.842 108.863 105.842C107.358 105.842 106.674 106.937 105.99 107.894C105.443 108.661 102.752 114.143 101.475 116.788C101.064 117.7 100.216 119.935 100.107 121.577C99.9971 123.218 100.061 127.551 100.107 129.512C100.061 130.698 100.572 133.398 102.98 134.711C105.388 136.025 108.27 137.448 109.41 137.995C108.179 140.504 105.443 146.122 104.348 148.53C102.98 151.54 102.159 157.287 102.022 161.118C101.885 164.949 101.748 183.146 108.042 189.03C114.336 194.913 126.239 196.281 134.038 187.661C140.277 180.766 139.648 163.809 138.553 156.192C138.143 153.228 136.419 146.834 132.807 144.973C128.292 142.647 126.924 142.784 124.598 141.142C122.272 139.5 121.998 139.363 120.219 138.953C118.441 138.542 117.893 139.5 116.799 140.595C115.704 141.689 112.42 142.647 110.642 143.468C109.219 144.125 107.495 145.657 106.811 146.341" stroke="black" stroke-width="0.3"/>
<path d="M111.873 135.259C112.785 133.48 115.184 129.622 117.483 128.418C120.356 126.912 121.861 128.418 122.408 129.102C122.956 129.786 125.282 134.027 127.06 134.301C125.09 134.52 117.3 135.031 113.652 135.259" stroke="black" stroke-width="0.3"/>
<path d="M114.746 138.542C115.43 138.406 116.963 137.776 117.62 136.353C118.441 134.575 121.04 135.532 121.587 137.037C122.025 138.241 123.868 138.999 124.734 139.227" stroke="black" stroke-width="0.3"/>
<path d="M110.505 135.806C111.554 134.073 114.117 130.059 115.977 127.87C118.303 125.134 121.998 125.818 124.187 127.87C125.938 129.512 132.122 139.865 134.996 144.836" stroke="black" stroke-width="0.3"/>
<path d="M134.859 142.921C135.042 142.419 136.282 141.361 139.785 141.142C144.163 140.868 151.278 141.005 152.646 134.985C154.014 128.965 153.467 120.892 153.056 116.104C152.646 111.315 150.867 108.715 143.068 108.442C143.287 104.173 143.342 100.916 143.342 99.8219C143.251 99.6851 142.904 99.3567 142.248 99.1378C141.591 98.9189 140.697 99.0466 140.332 99.1378C140.697 97.9064 140.907 95.1699 138.827 94.0753C138.827 92.9808 138.827 87.964 138.827 85.5924C138.097 85.2732 136.638 84.5526 136.638 84.2242C136.638 83.8137 136.912 80.2564 136.638 79.4355C136.364 78.6145 131.302 78.3409 130.07 78.2041C130.07 76.6717 129.797 75.4676 129.66 75.0572V73.8258C129.523 70.8613 129.715 64.7408 131.575 63.9746C133.436 63.2084 136.273 63.4729 137.459 63.701V59.1859C141.335 59.2771 149.253 59.2953 149.91 58.6386C150.73 57.8177 152.235 47.6929 149.499 46.8719C146.434 46.1057 141.472 46.0966 139.374 46.1878L140.058 42.4937C139.876 42.0832 139.347 41.1255 138.69 40.5782C138.28 36.6103 138.28 34.8317 136.911 34.2844C135.817 33.8465 134.54 34.8317 134.038 35.3789H132.67L138.69 31.4111C138.964 31.0007 139.621 29.9882 140.058 29.222C141.7 29.222 160.354 29.222 169.475 29.222L168.928 36.4735C168.882 37.112 169.065 38.4985 170.159 38.9363C171.254 39.3741 180.466 51.2502 184.936 57.1336C185.939 59.0947 187.809 63.2358 187.262 64.1115C186.578 65.206 196.976 68.4897 199.165 65.8901C200.917 63.8104 201.446 57.3616 201.491 54.3971L176.179 30.8638L177.821 21.9704C177.502 21.5144 176.727 20.6022 176.179 20.6022C175.632 20.6022 154.151 20.6022 143.479 20.6022C143.889 19.5989 144.738 17.0449 144.847 14.8557" stroke="black" stroke-width="0.3"/>
<path d="M55.092 117.883C60.0632 136.49 71.4833 173.733 77.3939 173.843C79.1453 173.843 79.127 168.005 78.899 165.086" stroke="black" stroke-width="0.3"/>
<path d="M66.4482 151.225C69.0022 158.203 74.7396 172.131 77.2571 172.021C78.1328 172.021 78.2605 169.103 78.2149 167.643" stroke="black" stroke-width="0.3"/>
<path d="M35.3896 123.219C37.6244 129.011 42.0118 141.936 41.6834 147.299C41.273 154.003 37.442 183.42 57.1443 176.305C64.5874 173.022 69.367 167.549 70.8264 165.223" stroke="black" stroke-width="0.3"/>
<path d="M42.957 159.981C42.7745 163.949 43.7505 172.486 49.1139 174.895C54.4773 177.303 62.7505 172.158 66.2166 169.285" stroke="black" stroke-width="0.3"/>
<path d="M110.915 58.2283H103.937L104.211 64.2484H111.326" stroke="black" stroke-width="0.3"/>
<path d="M111.736 70.4053H102.296V71.2262H100.38V74.0995H101.475C101.11 75.194 100.38 78.2862 100.38 81.8983C100.38 85.5104 101.11 86.687 101.475 86.8239H102.296C101.475 83.677 101.83 76.9453 109.821 75.194C110.259 74.6467 111.463 74.6923 112.01 74.7836" stroke="black" stroke-width="0.3"/>
<path d="M129.933 70.4053H139.374V71.2262H141.29V74.0995H140.195C140.56 75.194 141.29 78.2862 141.29 81.8983C141.29 85.5104 140.56 86.687 140.195 86.8239H139.374C140.195 83.677 139.839 76.9453 131.849 75.194C131.411 74.6467 130.207 74.6923 129.66 74.7836" stroke="black" stroke-width="0.3"/>
<circle cx="136.912" cy="10.2038" r="6.43061" fill="black"/>
<circle cx="110.368" cy="10.2038" r="6.43061" fill="black"/>
<path d="M56.8708 116.651C55.4479 116.87 54.3624 116.834 53.9976 116.788C52.6841 115.474 51.8996 113.048 51.6716 111.999C51.2611 111.954 50.276 111.561 49.6193 110.357C48.9625 109.153 49.8017 107.758 50.3034 107.21C50.577 103.015 51.1791 93.9114 51.398 91.0655C51.6169 88.2196 52.8574 85.2278 53.4503 84.0876C54.3624 82.5369 56.7066 79.2988 58.7863 78.7515C60.866 78.2043 62.9366 79.162 63.7119 79.7093C61.4316 81.5336 56.7887 85.62 56.4604 87.3713C56.1867 88.4659 55.6394 94.6228 55.6394 97.0856C55.6394 99.5484 56.3235 104.611 56.5972 106.253C56.8161 107.566 57.6918 110.175 58.1022 111.315L56.734 114.325C56.7796 114.599 56.8708 115.447 56.8708 116.651Z" fill="black"/>
<path d="M205.185 90.6549V88.1921H208.606L209.016 90.6549C210.065 96.219 211.917 108.278 210.932 111.999C210.932 113.313 210.567 114.827 210.384 115.42H208.195C207.876 114.69 207.237 112.984 207.237 111.999C205.377 105.103 205.094 94.8964 205.185 90.6549Z" fill="black"/>
<path d="M192.051 45.5039C191.275 36.5649 191.668 19.3983 199.439 22.2442C207.21 25.0901 208.424 67.8514 208.059 88.8763" stroke="black" stroke-width="0.3"/>
<path d="M194.787 25.2542C196.201 22.6545 199.795 19.8634 202.86 29.4956C205.924 39.1279 206.508 53.1202 206.417 58.9123" stroke="black" stroke-width="0.3"/>
<path d="M182.336 36.3367C181.88 28.9484 182.418 14.199 188.219 14.3085C194.02 14.4179 195.106 36.884 194.923 48.1034" stroke="black" stroke-width="0.3"/>
</svg>
