<svg width="276" height="184" viewBox="0 0 276 184" fill="none" xmlns="http://www.w3.org/2000/svg">
<path d="M60.6239 171.636C60.6155 172.147 61.5198 173.186 65.2038 173.246C68.8879 173.306 120.663 172.445 146.09 172.007C145.82 172.856 145.738 174.714 147.57 175.358C149.402 176.002 169.483 175.971 179.294 175.876C180.657 175.983 183.396 175.38 183.45 172.105C194.509 171.876 245.712 172.609 269.931 173.005C271.039 173.023 273.162 172.597 272.782 170.748C272.403 168.899 261.042 158.358 255.41 153.319" stroke="black" stroke-width="0.3"/>
<path d="M249.882 147.087C249.17 148.867 249.279 152.656 255.406 153.575" stroke="black" stroke-width="0.3"/>
<path d="M255.666 153.323C256.356 152.823 257.894 151.619 258.522 150.811C259.306 149.8 261.398 147.019 262.439 146.012C263.479 145.006 266.611 141.218 267.681 138.421C268.75 135.623 269.563 132.822 269.852 130.779C270.084 129.145 270.147 128.396 270.15 128.225" stroke="black" stroke-width="0.3"/>
<path d="M246.587 113.766C247.184 113.775 248.584 113.696 249.41 113.3C250.441 112.805 254.547 112.104 256.594 112.138C258.64 112.171 260.431 112.2 261.178 113.492C261.925 114.784 263.422 117.111 263.661 118.139C263.9 119.166 268.464 121.8 269.479 122.328C270.494 122.857 271.228 124.916 271.194 126.963C271.161 129.009 270.884 130.284 271.631 131.576C272.377 132.868 272.608 134.407 272.591 135.43C272.575 136.453 272.273 139.263 272.504 140.803C272.735 142.342 271.64 146.674 270.344 147.677C269.048 148.679 268.268 149.434 267.488 150.189C266.708 150.944 263.597 153.452 262.829 153.44C262.215 153.43 259.643 155.265 258.434 156.183" stroke="black" stroke-width="0.3"/>
<path d="M250.678 145.309C249.827 145.21 247.876 144.546 246.882 142.688C245.641 140.364 245.439 137.034 247.796 133.746C249.054 131.924 249.553 130.619 249.645 130.194C249.581 128.913 249.765 125.999 251.016 124.586C252.056 123.579 252.663 122.992 252.836 122.824" stroke="black" stroke-width="0.3"/>
<path d="M250.874 117.674C250.082 119.112 248.9 122.556 250.501 124.834" stroke="black" stroke-width="0.3"/>
<path d="M251.467 144.042C252.163 143.2 253.765 141.213 254.604 139.999C255.652 138.48 255.925 137.461 256.713 136.195C257.501 134.928 259.082 132.139 260.127 130.876C261.171 129.614 262.504 126.309 262.534 124.518C262.557 123.085 262.926 121.368 263.108 120.689" stroke="black" stroke-width="0.3"/>
<path d="M248.984 139.395C250.713 137.973 254.153 136.255 254.08 140.758" stroke="black" stroke-width="0.3"/>
<path d="M253.979 146.898C255.789 145.733 259.493 144.582 259.826 149.296" stroke="black" stroke-width="0.3"/>
<path d="M61.421 169.857L77.3318 151.436L78.1034 151.193" stroke="black" stroke-width="0.3"/>
<path d="M78.1199 150.169L80.9232 56.8103C80.8658 55.1034 81.5201 51.5997 84.5968 51.2404C87.6735 50.8812 185.559 48.1114 234.117 46.7714C235.57 46.6245 238.615 47.1519 239.176 50.4366C239.736 53.7214 245.858 106.162 248.849 131.972" stroke="black" stroke-width="0.3"/>
<path d="M78.1616 147.611L250.422 145.305" stroke="black" stroke-width="0.3"/>
<path d="M78.1031 151.193L249.836 149.901" stroke="black" stroke-width="0.3"/>
<path d="M122.946 163.184L120.774 170.826C120.77 171.082 120.966 171.597 121.785 171.61M251.434 161.699C251.693 161.532 252.059 161.044 251.455 160.42C250.851 159.796 244.996 153.746 242.144 150.799L87.5522 152.371C87.0405 152.362 85.9115 152.548 85.4888 153.36C85.0661 154.172 81.3008 159.093 79.471 161.451C79.3815 161.706 79.4065 162.269 80.2218 162.487C81.0371 162.705 194.703 162.052 251.434 161.699Z" stroke="black" stroke-width="0.3"/>
<path d="M205.095 162.99L208.308 169.952C208.471 170.381 208.593 171.287 207.771 171.478" stroke="black" stroke-width="0.3"/>
<path d="M147.638 171.265L181.152 171.812M60.6243 171.636C60.5154 173.084 60.6507 176.294 62.0633 177.545C63.8291 179.109 65.104 179.386 66.8907 179.671C68.32 179.899 202.612 179.242 269.579 178.885C271.03 178.823 273.753 177.161 273.034 171.008" stroke="black" stroke-width="0.3"/>
<path d="M2.00391 110.03C7.33887 112.42 11.8353 119.147 14.637 119.96C16.8783 120.611 27.8148 122.649 33.0029 123.587C34.3812 122.756 37.8082 120.799 40.4889 119.615C43.8398 118.134 47.409 118.96 48.4323 118.976C49.251 118.99 50.974 120.042 51.7331 120.566C53.4248 121.446 57.1663 123.213 58.5989 123.237C60.0316 123.26 61.5614 124.65 62.1472 125.342C63.33 126.044 65.9992 127.657 67.2138 128.496C68.7321 129.544 69.1979 132.366 69.9403 133.914C70.6828 135.462 71.9369 137.017 70.8843 138.792" stroke="black" stroke-width="0.3"/>
<path d="M51.6999 122.612C52.543 123.223 54.6359 124.605 56.2632 125.246C58.2974 126.047 59.3082 126.831 61.074 128.395C62.4866 129.647 68.8768 136.37 71.8953 139.576C72.6447 140.697 74.0849 143.399 73.8502 145.237C73.5567 147.536 72.2483 149.306 69.43 149.516C66.6116 149.726 64.3592 146.618 63.6084 145.582C62.8576 144.546 60.8527 141.954 59.3343 140.906C57.816 139.858 56.3061 138.298 53.5128 136.973C50.7195 135.647 46.1645 132.502 44.1596 129.91C42.1547 127.319 42.9639 124.773 43.249 122.986" stroke="black" stroke-width="0.3"/>
<path d="M42.1172 129.621C43.7124 131.183 47.3081 134.568 48.9287 135.618C50.9545 136.931 53.7395 138.768 56.0211 140.084C57.8464 141.138 62.676 145.226 64.8626 147.138" stroke="black" stroke-width="0.3"/>
<path d="M34.5474 138.71C36.0657 139.759 39.3548 142.064 40.3648 142.9C41.6272 143.944 48.468 148.15 52.2763 150.003C56.0846 151.857 63.2104 154.276 64.9804 155.585C66.7503 156.893 66.9644 159.456 66.4277 160.982C65.891 162.509 65.1068 163.52 60.7617 163.193C57.2857 162.932 51.3445 160.054 48.8085 158.648" stroke="black" stroke-width="0.3"/>
<path d="M27.9597 150.374C28.305 150.124 29.5559 149.786 31.7973 150.437C34.5989 151.25 35.3414 152.798 38.1389 153.867C40.9364 154.936 44.2455 156.014 46.5313 157.075C48.8171 158.136 49.3079 159.423 49.2829 160.958C49.2578 162.493 48.2053 164.268 45.3911 164.222C42.5769 164.176 38.7477 163.601 36.4577 162.796C34.1677 161.991 31.1436 159.127 28.8453 158.834C26.5469 158.54 23.502 156.955 22.0212 153.604" stroke="black" stroke-width="0.3"/>
<path d="M22.0209 153.604C22.0279 153.178 21.4798 152.265 19.2318 152.023C16.4218 151.721 4.93843 149.743 2.12842 149.441" stroke="black" stroke-width="0.3"/>
<path d="M22.7046 96.0369C21.0202 99.9333 17.4411 108.081 16.599 109.5C15.757 110.92 12.9157 115.667 11.6004 117.863" stroke="black" stroke-width="0.3"/>
<path d="M21.0986 100.361C21.328 101.986 22.187 105.804 23.7876 108.082C25.7883 110.93 27.575 111.215 28.0658 112.502C28.4584 113.532 29.9886 120.125 30.7046 123.293" stroke="black" stroke-width="0.3"/>
<path d="M150.645 2.6731C153.444 3.65709 159.348 5.68126 160.572 5.90597C162.103 6.18686 164.645 7.25196 165.387 8.7995C166.13 10.347 167.912 10.8879 169.657 13.7314C171.402 16.5748 174.951 18.6799 176.175 22.0267C177.4 25.3734 178.659 26.6734 181.418 30.0452C184.178 33.417 185.483 31.9029 185.915 36.7721C186.261 40.6675 187.307 45.5809 187.786 47.5506" stroke="black" stroke-width="0.3"/>
<path d="M83.572 145.396L83.6012 143.605L85.801 55.8663L234.302 51.1248L244.043 144.177L83.572 145.396Z" stroke="black" stroke-width="0.3"/>
<mask id="mask0_272_2020" style="mask-type:alpha" maskUnits="userSpaceOnUse" x="83" y="51" width="162" height="95">
<path d="M83.572 145.396L83.6012 143.605L85.801 55.8663L234.302 51.1248L244.043 144.177L83.572 145.396Z" fill="#D9D9D9"/>
</mask>
<g mask="url(#mask0_272_2020)">
<path d="M109.324 91.988C109.333 91.8998 109.341 91.8277 109.348 91.7736L109.461 91.7609L110.142 91.6847C110.739 91.6181 111.615 91.5205 112.73 91.3969C114.96 91.1497 118.15 90.7981 121.985 90.3809C129.656 89.5463 139.91 88.4491 150.246 87.3979C160.583 86.3468 171 85.3419 178.995 84.6921C182.993 84.3672 186.385 84.1312 188.857 84.0225C190.094 83.9681 191.098 83.9457 191.833 83.9597C192.201 83.9668 192.498 83.9829 192.722 84.0081C192.834 84.0207 192.925 84.0354 192.997 84.0517C193.07 84.0685 193.114 84.085 193.136 84.0975L193.136 84.0976C194.391 84.8056 195.267 86.3749 195.715 88.0109C195.938 88.8249 196.053 89.6462 196.057 90.3693C196.061 91.096 195.954 91.709 195.746 92.1166C195.712 92.1831 195.607 92.2813 195.391 92.4024C195.183 92.5191 194.898 92.6439 194.542 92.7749C193.831 93.0367 192.856 93.317 191.694 93.605C189.371 94.1806 186.318 94.7829 183.18 95.3253C180.042 95.8676 176.822 96.3496 174.166 96.6849C171.504 97.021 169.423 97.2075 168.553 97.1639C167.656 97.1189 165.907 97.2322 163.689 97.4357C161.468 97.6396 158.765 97.9351 155.955 98.2575C154.042 98.4769 152.079 98.7088 150.184 98.9327C146.509 99.3668 143.088 99.7709 140.773 99.9967L140.773 99.9967C133.767 100.683 116.324 100.075 112.225 99.6642C111.255 99.567 110.594 99.0388 110.14 98.2851C109.682 97.5256 109.44 96.5407 109.323 95.5538C109.206 94.569 109.216 93.5949 109.255 92.8656C109.275 92.5013 109.302 92.199 109.324 91.988Z" fill="white" stroke="black" stroke-width="0.3"/>
<path d="M196.918 100.721L196.877 100.695C196.852 100.679 196.822 100.66 196.785 100.637M196.918 100.721L103.632 101.834M196.918 100.721C195.134 102.319 173.349 121.796 170.508 122.023C167.546 122.26 122.747 115.367 119.457 113.732L196.918 100.721ZM196.785 100.637L196.866 100.565L196.902 100.533C195.944 99.9331 190.018 96.2654 186.996 95.5466C184.633 94.9825 158.093 96.3285 141.218 97.1844C134.57 97.5215 129.422 97.7826 127.844 97.8208M196.785 100.637L196.668 100.742C196.495 100.898 196.24 101.125 195.916 101.415C195.266 101.994 194.334 102.821 193.206 103.815C190.951 105.803 187.914 108.456 184.785 111.117C181.655 113.777 178.434 116.444 175.811 118.46C174.5 119.468 173.34 120.311 172.417 120.909C171.955 121.209 171.555 121.445 171.227 121.61C170.894 121.777 170.65 121.861 170.496 121.874C170.325 121.887 169.987 121.875 169.494 121.837C169.005 121.8 168.372 121.737 167.616 121.653C166.103 121.484 164.098 121.228 161.765 120.909C157.098 120.27 151.119 119.38 145.129 118.431C139.139 117.482 133.14 116.475 128.433 115.603C126.079 115.167 124.049 114.765 122.506 114.421C121.735 114.249 121.086 114.092 120.58 113.953C120.07 113.812 119.715 113.693 119.523 113.598L119.523 113.598C118.713 113.196 117.301 112.25 115.629 111.049C113.96 109.85 112.043 108.404 110.228 107.009C108.412 105.613 106.7 104.268 105.441 103.272C104.812 102.774 104.296 102.364 103.937 102.077C103.817 101.982 103.715 101.9 103.632 101.834M196.785 100.637C196.749 100.614 196.706 100.588 196.658 100.558C196.468 100.44 196.192 100.269 195.851 100.063C195.168 99.6493 194.224 99.09 193.177 98.5063C191.076 97.3354 188.584 96.0787 186.961 95.6925L186.961 95.6925C186.771 95.6472 186.396 95.6127 185.844 95.5909C185.297 95.5693 184.587 95.5605 183.738 95.563C182.039 95.568 179.785 95.6183 177.154 95.7011C171.891 95.8669 165.125 96.163 158.286 96.488C152.343 96.7703 146.344 97.0746 141.232 97.3339C134.58 97.6712 129.427 97.9325 127.847 97.9708L127.844 97.8208M127.844 97.8208C122.592 97.9507 105.486 101.313 103.479 101.711L103.523 101.746C103.555 101.771 103.591 101.801 103.632 101.834M127.844 97.8208L127.847 97.9708C125.07 98.0395 118.944 99.019 113.498 99.9846C110.778 100.467 108.233 100.945 106.367 101.302C105.434 101.481 104.671 101.63 104.142 101.733C103.935 101.774 103.764 101.808 103.632 101.834" fill="#080808" stroke="black" stroke-width="0.3"/>
<path d="M189.423 87.1868L189.423 87.1869C189.588 87.3903 189.76 87.8028 189.924 88.3969C190.087 88.9839 190.236 89.7268 190.367 90.5716C190.629 92.2608 190.816 94.3467 190.888 96.3854C190.959 98.425 190.914 100.411 190.715 101.901C190.615 102.648 190.477 103.261 190.3 103.693C190.118 104.138 189.919 104.332 189.73 104.357L189.73 104.357C188.621 104.503 187.61 104.574 186.843 104.457C186.075 104.339 185.608 104.045 185.482 103.508C185.414 103.213 185.385 102.53 185.383 101.65C185.381 100.778 185.407 99.7316 185.441 98.7233C185.475 97.7151 185.519 96.7462 185.554 96.0292C185.571 95.6707 185.586 95.3753 185.597 95.1695L185.61 94.9314L185.614 94.8691L185.614 94.8634L185.617 94.8512L185.639 94.7719C185.658 94.7025 185.687 94.6007 185.723 94.4718C185.796 94.2139 185.903 93.8474 186.035 93.4133C186.299 92.5448 186.667 91.4073 187.081 90.3283C187.496 89.2458 187.953 88.2351 188.394 87.6117C188.617 87.2961 188.819 87.1039 188.99 87.0351C189.071 87.0028 189.14 86.9996 189.203 87.0189C189.268 87.0388 189.342 87.0875 189.423 87.1868Z" fill="white" stroke="black" stroke-width="0.3"/>
<path d="M185.36 94.8337L185.36 94.8337L185.359 94.8428C185.348 95.0484 185.245 96.8904 185.181 98.8501C185.149 99.8468 185.126 100.873 185.13 101.729C185.134 102.592 185.165 103.263 185.235 103.564L185.36 94.8337ZM185.36 94.8337V94.8254M185.36 94.8337V94.8254M185.36 94.8254L185.36 94.8246L185.361 94.822L185.361 94.822M185.36 94.8254L185.361 94.822M185.361 94.822L185.363 94.8137M185.361 94.822L185.363 94.8137M185.363 94.8137C185.538 94.164 186.081 92.2155 186.775 90.3887C187.123 89.4747 187.506 88.5969 187.899 87.9288C188.095 87.5946 188.29 87.3179 188.481 87.1162C188.674 86.9124 188.85 86.7987 189.004 86.7656L189.004 86.7656M185.363 94.8137L189.004 86.7656M189.004 86.7656L189.005 86.7653M189.004 86.7656L189.005 86.7653M189.005 86.7653C189.084 86.7474 189.179 86.7434 189.28 86.7756C189.38 86.8075 189.496 86.8784 189.617 87.0263L189.617 87.0265M189.005 86.7653L189.617 87.0265M189.617 87.0265C189.767 87.2105 189.922 87.5543 190.073 88.0423C190.223 88.5252 190.364 89.1326 190.491 89.8293C190.745 91.2224 190.945 92.9621 191.062 94.7556C191.179 96.5489 191.212 98.3927 191.135 99.9938C191.057 101.6 190.868 102.945 190.548 103.752L190.548 103.752M189.617 87.0265L190.548 103.752M190.548 103.752C190.324 104.32 190.049 104.571 189.762 104.608L189.761 104.608M190.548 103.752L189.761 104.608M189.761 104.608C189.07 104.701 188.373 104.77 187.737 104.77C187.08 104.77 186.502 104.696 186.064 104.505M189.761 104.608L186.064 104.505M186.064 104.505C185.633 104.318 185.342 104.021 185.235 103.564L186.064 104.505ZM185.545 94.9235L185.562 94.9402C185.491 96.225 185.404 98.0997 185.361 99.7812C185.34 100.637 185.33 101.443 185.339 102.097C185.348 102.745 185.377 103.259 185.437 103.52L185.437 103.52C185.561 104.046 186.003 104.351 186.705 104.482C187.405 104.612 188.406 104.58 189.736 104.404L189.736 104.404C189.877 104.385 189.996 104.287 190.09 104.167C190.187 104.044 190.277 103.877 190.356 103.676C190.675 102.868 190.854 101.529 190.929 99.9684C191.004 98.402 190.974 96.5941 190.866 94.837C190.758 93.08 190.571 91.3704 190.332 90.0007C190.212 89.3161 190.079 88.7137 189.935 88.2316C189.793 87.7552 189.634 87.3776 189.456 87.1585L189.456 87.1584C189.376 87.0593 189.296 87.0012 189.216 86.9756C189.14 86.9513 189.077 86.9624 189.057 86.966C189.056 86.9663 189.054 86.9665 189.053 86.9667L189.053 86.9665L189.045 86.9683C188.875 87.0047 188.716 87.1292 188.57 87.2893C188.42 87.4531 188.268 87.6733 188.115 87.9334C187.809 88.4542 187.489 89.1543 187.178 89.9331C186.555 91.492 185.959 93.386 185.567 94.84L185.545 94.9235Z" fill="#080808" stroke="black" stroke-width="0.3"/>
<path d="M108.091 91.8719L108.093 91.8723L108.093 91.8723L108.091 91.8719ZM108.226 91.9561L108.233 91.9246C108.537 91.5049 108.865 91.2521 109.205 91.1268C109.553 90.9985 109.926 90.9985 110.318 91.1085C111.111 91.3306 111.966 91.9962 112.781 92.9066C114.409 94.7246 115.81 97.438 116.186 99.1883C116.553 100.901 115.759 102.367 114.849 103.42C114.395 103.945 113.917 104.361 113.552 104.647C113.369 104.789 113.216 104.899 113.108 104.972C113.054 105.009 113.012 105.037 112.983 105.055L112.964 105.067C112.952 105.069 112.936 105.071 112.913 105.074C112.85 105.081 112.743 105.091 112.57 105.1C112.224 105.118 111.619 105.133 110.586 105.122L110.586 105.122C110.139 105.118 109.69 104.81 109.259 104.268C108.833 103.731 108.448 102.994 108.127 102.198C107.806 101.405 107.551 100.561 107.381 99.8158C107.209 99.0674 107.127 98.4307 107.143 98.0475C107.179 97.2535 107.451 95.7231 107.717 94.38C107.849 93.7108 107.98 93.0919 108.077 92.6403C108.125 92.4145 108.165 92.2305 108.194 92.1031L108.226 91.9561Z" fill="white" stroke="black" stroke-width="0.3"/>
<path d="M109.297 104.696L109.298 104.696C109.732 105.157 110.165 105.371 110.586 105.376C110.586 105.376 110.586 105.376 110.586 105.376L110.584 105.526C110.827 105.529 111.048 105.529 111.247 105.529L109.297 104.696ZM109.297 104.696C108.578 103.936 107.961 102.604 107.529 101.28C107.097 99.956 106.863 98.6768 106.89 98.036C106.926 97.2391 107.189 95.7437 107.45 94.4136C107.712 93.0878 107.969 91.9409 107.99 91.8486L107.99 91.8487M109.297 104.696L107.99 91.8487M107.99 91.8487L107.991 91.8401M107.99 91.8487L107.991 91.8401M107.991 91.8401C107.992 91.8351 107.994 91.8278 108.006 91.8114C108.597 90.9732 109.36 90.649 110.211 90.8239C110.871 90.96 111.556 91.376 112.227 91.9799C112.897 92.5823 113.542 93.3625 114.12 94.2099C115.279 95.9073 116.156 97.8529 116.432 99.1375C116.814 100.92 116.031 102.428 115.111 103.516C114.191 104.604 113.152 105.251 113.072 105.299L113.072 105.299M107.991 91.8401L113.072 105.299M113.072 105.299L113.071 105.3M113.072 105.299L113.071 105.3M113.071 105.3C113.067 105.302 113.06 105.306 113.037 105.313M113.071 105.3L113.037 105.313M108.187 91.9131L108.205 91.8879C108.466 91.5293 108.757 91.2707 109.088 91.1236C109.421 90.9758 109.782 90.9459 110.171 91.0261C110.807 91.1564 111.465 91.5681 112.097 92.1374C112.731 92.7089 113.352 93.45 113.913 94.2586C115.033 95.8734 115.931 97.7784 116.231 99.1789C116.583 100.819 115.867 102.236 115.032 103.263C114.196 104.292 113.224 104.952 113.01 105.091L112.981 105.11L112.947 105.114C112.799 105.132 112.243 105.18 110.588 105.163L108.187 91.9131ZM108.187 91.9131L108.18 91.9434M108.187 91.9131L108.18 91.9434M108.18 91.9434C108.124 92.1949 107.87 93.3441 107.622 94.6166M108.18 91.9434L107.622 94.6166M113.037 105.313C112.994 105.321 112.651 105.379 111.247 105.379L113.037 105.313ZM107.622 94.6166C107.375 95.8846 107.131 97.2896 107.098 98.0455L107.622 94.6166ZM107.098 98.0456C107.069 98.7133 107.316 99.9765 107.732 101.241C108.149 102.506 108.748 103.811 109.447 104.549C109.814 104.938 110.199 105.159 110.588 105.163L107.098 98.0456Z" fill="#080808" stroke="black" stroke-width="0.3"/>
<mask id="path-34-inside-1_272_2020" fill="white">
<path fill-rule="evenodd" clip-rule="evenodd" d="M125.892 97.2405C125.892 97.2405 117.55 89.6569 116.464 91.7451C115.38 93.8334 116.054 101.758 116.332 102.809C116.61 103.863 119.783 106.662 120.836 106.414C121.886 106.166 126.221 102.564 126.505 101.115C126.791 99.6641 125.892 97.2405 125.892 97.2405Z"/>
</mask>
<path fill-rule="evenodd" clip-rule="evenodd" d="M125.892 97.2405C125.892 97.2405 117.55 89.6569 116.464 91.7451C115.38 93.8334 116.054 101.758 116.332 102.809C116.61 103.863 119.783 106.662 120.836 106.414C121.886 106.166 126.221 102.564 126.505 101.115C126.791 99.6641 125.892 97.2405 125.892 97.2405Z" fill="white"/>
<path d="M125.892 97.2405L126.174 97.1362L126.148 97.0677L126.094 97.0185L125.892 97.2405ZM116.464 91.7451L116.198 91.6067L116.198 91.6069L116.464 91.7451ZM116.332 102.809L116.622 102.733L116.622 102.732L116.332 102.809ZM120.836 106.414L120.904 106.706L120.904 106.706L120.836 106.414ZM126.505 101.115L126.21 101.057L126.21 101.058L126.505 101.115ZM125.892 97.2405C126.094 97.0185 126.094 97.0185 126.094 97.0184C126.094 97.0184 126.094 97.0182 126.094 97.0181C126.093 97.0179 126.093 97.0175 126.093 97.017C126.091 97.016 126.09 97.0146 126.088 97.0127C126.084 97.009 126.078 97.0035 126.07 96.9962C126.053 96.9817 126.03 96.9603 125.999 96.9325C125.937 96.877 125.846 96.7961 125.73 96.6939C125.499 96.4895 125.167 96.2001 124.766 95.8595C123.964 95.1787 122.882 94.2912 121.763 93.4681C120.649 92.6481 119.483 91.8799 118.518 91.4489C118.038 91.2349 117.58 91.0907 117.188 91.0818C116.781 91.0726 116.402 91.2134 116.198 91.6067L116.73 91.8836C116.797 91.7548 116.917 91.6758 117.174 91.6816C117.446 91.6878 117.818 91.7935 118.273 91.9968C119.177 92.4003 120.301 93.1365 121.408 93.9514C122.511 94.7632 123.582 95.641 124.378 96.3169C124.776 96.6546 125.104 96.9414 125.333 97.1436C125.448 97.2447 125.537 97.3247 125.598 97.3792C125.629 97.4065 125.652 97.4274 125.667 97.4415C125.675 97.4485 125.681 97.4538 125.685 97.4573C125.687 97.4591 125.688 97.4604 125.689 97.4613C125.69 97.4617 125.69 97.462 125.69 97.4622C125.69 97.4623 125.69 97.4624 125.691 97.4625C125.691 97.4625 125.691 97.4625 125.892 97.2405ZM116.198 91.6069C115.896 92.1876 115.733 93.1289 115.648 94.1829C115.562 95.2509 115.553 96.4819 115.587 97.6746C115.621 98.8682 115.698 100.029 115.784 100.958C115.869 101.877 115.965 102.595 116.042 102.886L116.622 102.732C116.56 102.498 116.467 101.831 116.381 100.903C116.297 99.9855 116.221 98.8375 116.187 97.6575C116.153 96.4766 116.162 95.2693 116.246 94.2312C116.331 93.1791 116.49 92.3468 116.73 91.8833L116.198 91.6069ZM116.042 102.886C116.088 103.063 116.188 103.253 116.311 103.441C116.436 103.632 116.596 103.838 116.778 104.049C117.143 104.469 117.611 104.921 118.101 105.33C118.59 105.738 119.111 106.111 119.584 106.367C119.82 106.495 120.052 106.598 120.267 106.661C120.478 106.723 120.7 106.754 120.904 106.706L120.767 106.122C120.707 106.136 120.601 106.133 120.435 106.085C120.274 106.038 120.083 105.955 119.87 105.84C119.443 105.608 118.955 105.261 118.485 104.869C118.016 104.478 117.572 104.048 117.231 103.655C117.061 103.459 116.919 103.275 116.813 103.113C116.705 102.947 116.645 102.819 116.622 102.733L116.042 102.886ZM120.904 106.706C121.08 106.664 121.293 106.563 121.517 106.435C121.748 106.303 122.013 106.131 122.298 105.93C122.867 105.527 123.525 105.001 124.157 104.439C124.789 103.877 125.401 103.273 125.875 102.714C126.113 102.434 126.319 102.161 126.477 101.907C126.633 101.657 126.753 101.406 126.799 101.173L126.21 101.058C126.185 101.187 126.108 101.365 125.968 101.59C125.83 101.811 125.644 102.06 125.418 102.325C124.967 102.857 124.377 103.44 123.758 103.991C123.14 104.541 122.499 105.052 121.951 105.44C121.677 105.634 121.429 105.795 121.221 105.913C121.006 106.036 120.854 106.101 120.767 106.122L120.904 106.706ZM126.799 101.174C126.956 100.379 126.787 99.3548 126.598 98.5638C126.501 98.1612 126.395 97.8056 126.314 97.5507C126.273 97.423 126.239 97.3203 126.214 97.249C126.201 97.2134 126.192 97.1857 126.185 97.1666C126.181 97.157 126.179 97.1497 126.177 97.1446C126.176 97.142 126.175 97.1401 126.175 97.1387C126.174 97.138 126.174 97.1374 126.174 97.137C126.174 97.1368 126.174 97.1366 126.174 97.1365C126.174 97.1365 126.174 97.1364 126.174 97.1364C126.174 97.1363 126.174 97.1362 125.892 97.2405C125.611 97.3448 125.611 97.3448 125.611 97.3448C125.611 97.3448 125.611 97.3447 125.611 97.3448C125.611 97.3448 125.611 97.3448 125.611 97.3449C125.611 97.3451 125.611 97.3454 125.612 97.3459C125.612 97.3469 125.612 97.3484 125.613 97.3505C125.615 97.3546 125.617 97.361 125.62 97.3696C125.626 97.3868 125.635 97.4125 125.647 97.446C125.67 97.5129 125.704 97.6108 125.743 97.7331C125.821 97.9779 125.922 98.3189 126.014 98.7037C126.202 99.4874 126.34 100.401 126.21 101.057L126.799 101.174Z" fill="black" mask="url(#path-34-inside-1_272_2020)"/>
<path d="M120.698 106.534L120.698 106.531C120.76 106.531 120.81 106.526 120.854 106.516L120.855 106.515C120.967 106.489 121.138 106.414 121.361 106.289C121.58 106.166 121.84 106 122.124 105.801C122.694 105.404 123.359 104.88 124.001 104.313C124.643 103.746 125.26 103.138 125.735 102.574C126.215 102.003 126.531 101.5 126.602 101.137L126.602 101.137C126.745 100.42 126.606 99.4688 126.418 98.6687C126.237 97.9013 126.018 97.2954 125.987 97.2108L120.698 106.534ZM120.698 106.534C120.398 106.532 119.988 106.378 119.522 106.109C119.057 105.842 118.557 105.472 118.088 105.067C117.62 104.663 117.185 104.226 116.852 103.826C116.514 103.421 116.295 103.071 116.233 102.838C116.164 102.58 116.067 101.889 115.979 100.953C115.891 100.021 115.813 98.8575 115.779 97.66C115.745 96.462 115.755 95.2327 115.845 94.1687C115.935 93.0981 116.103 92.2166 116.373 91.6987L116.373 91.6987C116.485 91.4829 116.674 91.3442 116.93 91.2982C117.167 91.2594 117.474 91.3005 117.844 91.418C118.212 91.5348 118.629 91.7229 119.076 91.9637C119.971 92.4451 120.974 93.1291 121.936 93.8475C123.859 95.2832 125.603 96.8445 125.957 97.1654C125.97 97.1772 125.979 97.1909 125.985 97.2057L120.698 106.534ZM116.973 91.5012L116.973 91.5013C117.03 91.4917 117.095 91.4851 117.163 91.4851H117.166C117.413 91.4851 117.703 91.5555 118.017 91.6729C118.333 91.791 118.683 91.9603 119.055 92.1665C119.799 92.5788 120.64 93.1445 121.48 93.7602C123.16 94.9921 124.849 96.4335 125.78 97.2758L125.808 97.3014L125.821 97.3374C125.886 97.5245 126.096 98.1402 126.257 98.867C126.418 99.5881 126.538 100.442 126.408 101.097M116.973 91.5012L126.26 101.067M116.973 91.5012L116.97 91.5018C116.881 91.5187 116.798 91.5483 116.726 91.5983C116.654 91.6488 116.599 91.7151 116.558 91.7948M116.973 91.5012L116.998 91.6492M126.408 101.097L126.26 101.067M126.408 101.097C126.408 101.097 126.408 101.097 126.408 101.097L126.26 101.067M126.408 101.097C126.371 101.284 126.265 101.499 126.12 101.725C125.974 101.954 125.78 102.205 125.554 102.468C125.102 102.994 124.515 103.574 123.907 104.12C123.298 104.665 122.664 105.179 122.117 105.572C121.844 105.768 121.59 105.936 121.372 106.063C121.157 106.187 120.964 106.279 120.814 106.314L120.813 106.315C120.663 106.349 120.487 106.32 120.309 106.262C120.127 106.204 119.924 106.108 119.712 105.988C119.287 105.747 118.806 105.399 118.348 105.016C117.89 104.633 117.451 104.212 117.108 103.822C116.937 103.627 116.788 103.438 116.673 103.265C116.56 103.094 116.473 102.929 116.434 102.783L116.434 102.783C116.364 102.519 116.273 101.825 116.191 100.917C116.108 100.003 116.033 98.8578 115.999 97.6812C115.965 96.5052 115.971 95.2951 116.051 94.2523C116.131 93.2173 116.284 92.3228 116.558 91.7948M126.26 101.067C126.008 102.347 121.796 105.929 120.78 106.168C119.892 106.371 116.84 103.728 116.579 102.744C116.315 101.747 115.658 93.8558 116.691 91.8634M116.558 91.7948C116.558 91.795 116.558 91.7951 116.558 91.7953L116.691 91.8634M116.558 91.7948C116.558 91.7946 116.558 91.7945 116.558 91.7943L116.691 91.8634M116.691 91.8634C116.753 91.7422 116.849 91.6774 116.998 91.6492M116.998 91.6492C117.048 91.6408 117.104 91.6351 117.163 91.6351H117.166C118.938 91.6351 123.823 95.7074 125.679 97.387L116.998 91.6492Z" fill="#080808" stroke="black" stroke-width="0.3"/>
<path d="M179.124 96.9137L179.128 96.9054L179.13 96.8968L178.985 96.8571L179.13 96.8967L179.13 96.8963L179.13 96.8949L179.132 96.889L179.139 96.8657L179.164 96.7744C179.187 96.6944 179.22 96.5771 179.263 96.4283C179.35 96.1308 179.476 95.7073 179.634 95.2041C179.951 94.1973 180.394 92.873 180.903 91.5999C181.414 90.3238 181.985 89.1103 182.556 88.3181C182.843 87.9202 183.119 87.6443 183.373 87.5129C183.498 87.4483 183.613 87.4211 183.719 87.4269C183.824 87.4325 183.932 87.471 184.044 87.5556C184.277 87.7319 184.52 88.1006 184.758 88.6432C184.993 89.18 185.215 89.8659 185.419 90.6525C185.825 92.2251 186.152 94.1849 186.358 96.1247C186.564 98.0648 186.65 99.9789 186.576 101.46C186.538 102.201 186.462 102.828 186.343 103.293C186.283 103.526 186.214 103.713 186.138 103.851C186.061 103.992 185.983 104.071 185.912 104.107C185.514 104.309 184.884 104.367 184.127 104.304C183.377 104.241 182.528 104.059 181.71 103.804C180.892 103.548 180.111 103.22 179.498 102.866C179.192 102.689 178.93 102.507 178.728 102.327C178.524 102.145 178.387 101.972 178.32 101.815C178.176 101.476 178.145 101.006 178.189 100.474C178.234 99.9462 178.352 99.3749 178.491 98.8453C178.63 98.3164 178.788 97.8329 178.912 97.4815C178.974 97.3059 179.027 97.1635 179.065 97.0653C179.084 97.0161 179.099 96.978 179.109 96.9523L179.12 96.9232L179.123 96.9159L179.124 96.9142L179.124 96.9138L179.124 96.9137Z" fill="white" stroke="black" stroke-width="0.3"/>
<path d="M180.971 103.976C182.147 104.407 183.551 104.728 184.68 104.728H184.682C185.241 104.728 185.733 104.65 186.098 104.464C186.541 104.238 186.819 103.463 186.94 102.091L180.971 103.976ZM180.971 103.976C180.201 103.694 178.362 102.936 177.952 101.97L180.971 103.976ZM181.022 103.835L181.022 103.835C180.641 103.695 179.998 103.439 179.401 103.099C179.102 102.929 178.819 102.741 178.587 102.538C178.354 102.335 178.18 102.124 178.09 101.911L178.09 101.911C177.94 101.559 177.9 101.088 177.934 100.56C177.968 100.036 178.075 99.4703 178.207 98.9391C178.47 97.877 178.829 96.9685 178.886 96.8291L178.889 96.8211L178.891 96.8128C179.027 96.321 179.658 94.0807 180.515 91.876C180.943 90.7732 181.427 89.6843 181.93 88.829C182.182 88.4013 182.437 88.0359 182.69 87.7573C182.944 87.4771 183.187 87.295 183.414 87.2176C183.689 87.1239 183.957 87.1657 184.198 87.3498L184.199 87.3502C184.399 87.5014 184.603 87.773 184.805 88.1583C185.005 88.5409 185.196 89.0233 185.376 89.5825C185.735 90.7007 186.044 92.1125 186.285 93.617C186.767 96.6278 186.976 99.9877 186.791 102.077L186.791 102.078C186.731 102.758 186.632 103.281 186.499 103.657C186.363 104.037 186.201 104.243 186.03 104.33L186.03 104.33C185.695 104.5 185.231 104.578 184.682 104.578H184.68C183.574 104.578 182.189 104.263 181.022 103.835ZM183.844 87.4031V87.3793H183.694C183.62 87.3793 183.547 87.3947 183.479 87.4186C183.249 87.4978 183.025 87.6782 182.811 87.9169C182.595 88.1579 182.378 88.4705 182.163 88.832C181.734 89.5552 181.305 90.4898 180.906 91.4785C180.107 93.4566 179.422 95.6697 179.088 96.8853L179.088 96.8853L179.087 96.8888L179.087 96.8891L179.087 96.8889L179.083 96.8991C178.885 97.3817 178.559 98.3099 178.344 99.2627C178.236 99.7392 178.155 100.226 178.133 100.668C178.111 101.107 178.145 101.518 178.28 101.834C178.348 101.992 178.473 102.15 178.635 102.303C178.798 102.457 179.006 102.613 179.248 102.767C179.734 103.074 180.37 103.379 181.093 103.643L181.093 103.643C182.084 104.005 183.072 104.239 183.918 104.331C184.757 104.422 185.484 104.376 185.935 104.15C186.029 104.102 186.153 103.98 186.271 103.682C186.39 103.381 186.51 102.886 186.584 102.065L186.584 102.064C186.779 99.8645 186.542 96.5338 186.069 93.6136C185.832 92.1526 185.535 90.7889 185.201 89.7165C185.035 89.1805 184.858 88.7138 184.673 88.3429C184.49 87.9761 184.291 87.6868 184.074 87.5227C184.002 87.4674 183.925 87.4262 183.844 87.4031Z" fill="#080808" stroke="black" stroke-width="0.3"/>
<path d="M179.063 103.888L179.063 103.888C179.024 103.925 178.952 103.968 178.842 104.014C178.734 104.06 178.597 104.105 178.434 104.148C178.108 104.234 177.687 104.312 177.202 104.379C176.232 104.513 175.015 104.604 173.805 104.644C172.594 104.683 171.393 104.67 170.455 104.597C169.985 104.561 169.585 104.51 169.284 104.445C169.133 104.412 169.011 104.376 168.919 104.339C168.823 104.3 168.775 104.265 168.756 104.242C168.689 104.164 168.596 103.975 168.484 103.676C168.374 103.385 168.254 103.009 168.128 102.579C167.875 101.717 167.603 100.642 167.351 99.5904C167.099 98.5391 166.869 97.5127 166.701 96.749C166.618 96.3672 166.55 96.0511 166.503 95.8305C166.479 95.7203 166.461 95.6339 166.448 95.575L166.442 95.5444C166.455 95.5237 166.472 95.4969 166.493 95.4644C166.548 95.379 166.628 95.2539 166.732 95.0958C166.939 94.7796 167.239 94.3314 167.607 93.8039C168.343 92.7484 169.352 91.3774 170.447 90.1114C171.545 88.8427 172.718 87.6911 173.781 87.0634C174.313 86.7495 174.804 86.5748 175.235 86.5707C175.658 86.5668 176.035 86.7263 176.354 87.1094C177.027 87.9179 177.595 89.3165 178.05 90.9949C178.503 92.6678 178.839 94.5986 179.06 96.4547C179.281 98.3106 179.386 100.088 179.378 101.452C179.374 102.134 179.342 102.71 179.282 103.139C179.252 103.354 179.217 103.528 179.176 103.658C179.133 103.795 179.091 103.862 179.063 103.888Z" fill="white" stroke="black" stroke-width="0.3"/>
<path d="M168.562 104.409L168.562 104.409C168.492 104.326 168.398 104.143 168.287 103.861C168.18 103.586 168.062 103.235 167.94 102.83C167.695 102.022 167.433 101.011 167.186 99.9989C166.694 97.9748 166.268 95.9511 166.183 95.5389L166.183 95.5389L166.182 95.5376C166.177 95.5147 166.181 95.4861 166.197 95.4587C166.319 95.2655 167.726 93.0336 169.523 90.8195C170.424 89.7089 171.421 88.607 172.399 87.7698C173.384 86.9276 174.325 86.3753 175.12 86.3206C175.701 86.2896 176.172 86.4899 176.551 86.9459L176.551 86.946C177.231 87.763 177.807 89.1816 178.269 90.8869C178.729 92.5867 179.071 94.5511 179.294 96.4426C179.516 98.334 179.618 100.148 179.601 101.547C179.592 102.246 179.554 102.838 179.486 103.282C179.452 103.504 179.412 103.685 179.366 103.822C179.318 103.964 179.271 104.041 179.235 104.074L179.235 104.074C179.172 104.132 179.064 104.195 178.905 104.258C178.748 104.32 178.552 104.379 178.322 104.433C177.862 104.542 177.278 104.633 176.627 104.705C175.325 104.848 173.77 104.917 172.432 104.917H172.429C171.791 104.917 171.205 104.9 170.719 104.872C169.761 104.813 169.233 104.712 168.937 104.618C168.79 104.57 168.704 104.526 168.653 104.491C168.604 104.459 168.582 104.433 168.563 104.409L168.562 104.409ZM166.275 95.7138H166.431C166.752 97.2405 167.194 99.1988 167.616 100.857C167.832 101.707 168.043 102.48 168.229 103.076C168.323 103.373 168.41 103.629 168.49 103.829C168.568 104.021 168.644 104.18 168.72 104.27C168.745 104.299 168.786 104.327 168.843 104.355C168.909 104.387 169.011 104.425 169.17 104.465C169.486 104.543 170.04 104.63 171.009 104.678L171.01 104.678C172.58 104.752 174.45 104.692 175.994 104.554C176.765 104.485 177.458 104.396 177.994 104.293C178.261 104.242 178.492 104.187 178.674 104.128C178.851 104.071 179.004 104.004 179.095 103.92L179.095 103.92L179.098 103.918C179.139 103.878 179.167 103.826 179.188 103.776C179.21 103.725 179.229 103.663 179.245 103.595C179.278 103.46 179.304 103.284 179.325 103.076C179.368 102.66 179.389 102.099 179.388 101.436C179.386 100.11 179.294 98.3661 179.093 96.5344C178.891 94.703 178.58 92.7802 178.139 91.0979C177.7 89.4209 177.127 87.9629 176.391 87.0782L176.391 87.078C176.055 86.6755 175.638 86.4975 175.133 86.5255L175.133 86.5255L175.131 86.5257C174.338 86.58 173.435 87.1339 172.534 87.9079C171.625 88.6878 170.692 89.7147 169.838 90.7593C168.127 92.849 166.716 95.0263 166.423 95.4828L166.275 95.7138Z" fill="#080808" stroke="black" stroke-width="0.3"/>
<path d="M180.729 116.822C180.642 116.828 180.519 116.836 180.362 116.845C180.022 116.867 179.524 116.897 178.888 116.933C177.617 117.005 175.799 117.101 173.609 117.197C169.229 117.389 163.364 117.578 157.425 117.571C151.484 117.563 145.473 117.358 140.799 116.761C138.461 116.462 136.464 116.067 134.98 115.552C134.238 115.294 133.629 115.009 133.172 114.695C132.778 114.424 132.503 114.138 132.347 113.836C132.419 113.814 132.512 113.786 132.625 113.752C132.907 113.667 133.312 113.547 133.799 113.407C134.774 113.128 136.079 112.769 137.403 112.453C138.729 112.137 140.068 111.865 141.111 111.756C141.634 111.702 142.075 111.689 142.399 111.73C142.561 111.75 142.687 111.782 142.777 111.824C142.866 111.866 142.909 111.912 142.929 111.954C143.248 112.656 143.854 113.435 144.371 114.032C144.631 114.333 144.871 114.59 145.046 114.772C145.134 114.863 145.205 114.936 145.255 114.986C145.28 115.01 145.299 115.03 145.313 115.043L145.328 115.058L145.332 115.062L145.333 115.063L145.333 115.063L145.333 115.063L145.438 114.955L145.333 115.063L145.438 115.165L145.542 115.063L145.542 115.063L145.543 115.063L145.544 115.061L145.55 115.056L145.574 115.033C145.595 115.013 145.628 114.983 145.67 114.945C145.756 114.869 145.883 114.76 146.047 114.628C146.377 114.364 146.856 114.012 147.455 113.657C148.654 112.947 150.323 112.233 152.221 112.2C152.623 112.193 153.282 112.269 154.141 112.387C154.442 112.429 154.766 112.475 155.111 112.524C155.745 112.614 156.448 112.715 157.197 112.812C159.513 113.111 162.298 113.384 164.984 113.257L164.984 113.257C168.431 113.092 171.828 112.565 174.473 112.154C174.555 112.141 174.636 112.129 174.716 112.116C176.058 111.908 177.189 111.736 178.022 111.663C178.439 111.626 178.774 111.616 179.019 111.636C179.142 111.646 179.237 111.664 179.305 111.687C179.376 111.71 179.406 111.735 179.417 111.75C179.66 112.065 179.868 112.545 180.042 113.1C180.215 113.652 180.351 114.267 180.455 114.842C180.559 115.417 180.631 115.95 180.677 116.34C180.7 116.535 180.716 116.694 180.727 116.804C180.728 116.81 180.728 116.816 180.729 116.822Z" fill="white" stroke="black" stroke-width="0.3"/>
<path d="M180.899 117.071C179.989 117.133 169.21 117.835 157.989 117.837L157.986 117.835H157.924C151.864 117.835 145.685 117.63 140.863 117.01C138.452 116.7 136.388 116.287 134.85 115.747C134.081 115.477 133.45 115.178 132.974 114.847C132.497 114.516 132.186 114.161 132.041 113.783L132.041 113.783L132.041 113.782C132.031 113.756 132.032 113.726 132.044 113.703L132.044 113.703L132.045 113.701C132.058 113.673 132.082 113.654 132.105 113.647L132.106 113.647C133.34 113.264 135.979 112.475 138.389 111.963C139.595 111.706 140.737 111.521 141.615 111.488C142.055 111.472 142.419 111.494 142.689 111.56C142.963 111.628 143.105 111.732 143.159 111.85C143.407 112.396 143.843 112.998 144.266 113.516C144.692 114.035 145.113 114.479 145.339 114.711L145.439 114.813L145.546 114.718C146.25 114.095 148.859 112.008 152.217 111.949C152.774 111.949 153.822 112.088 155.148 112.277L155.149 112.277C157.8 112.654 161.447 113.167 164.973 113.008L164.973 113.008C168.405 112.842 171.748 112.325 174.432 111.908L174.432 111.908C176.189 111.634 177.419 111.449 178.256 111.394C178.675 111.366 178.986 111.371 179.212 111.411C179.438 111.45 179.557 111.519 179.619 111.6C179.871 111.928 180.085 112.412 180.264 112.969C180.443 113.523 180.582 114.137 180.69 114.716C180.901 115.853 180.985 116.843 180.995 116.955L180.995 116.96C180.997 116.987 180.988 117.014 180.971 117.034L180.971 117.034L180.968 117.037C180.949 117.06 180.926 117.07 180.903 117.071L180.903 117.071L180.899 117.071ZM132.347 113.898V113.94L132.369 113.976C132.744 114.592 133.552 115.095 134.664 115.513C135.783 115.933 137.239 116.278 138.949 116.559C142.37 117.121 146.829 117.429 151.688 117.563C161.406 117.829 172.745 117.395 180.624 116.875L180.779 116.864L180.763 116.71C180.718 116.264 180.605 115.3 180.399 114.311C180.296 113.817 180.169 113.313 180.015 112.863C179.861 112.416 179.677 112.011 179.456 111.722L179.448 111.712L179.439 111.704C179.368 111.637 179.26 111.609 179.163 111.593C179.056 111.577 178.925 111.571 178.775 111.572C178.474 111.574 178.081 111.606 177.631 111.656C176.731 111.757 175.585 111.935 174.464 112.11L174.422 112.116C171.736 112.533 168.408 113.048 164.984 113.21L164.984 113.21C161.463 113.383 157.857 112.869 155.191 112.489L155.121 112.479L155.121 112.479L155.108 112.477C153.857 112.299 152.84 112.153 152.275 112.153H152.275H152.275H152.274H152.274H152.274H152.274H152.274H152.274H152.274H152.274H152.274H152.274H152.274H152.273H152.273H152.273H152.273H152.273H152.273H152.273H152.273H152.273H152.273H152.272H152.272H152.272H152.272H152.272H152.272H152.272H152.272H152.272H152.272H152.271H152.271H152.271H152.271H152.271H152.271H152.271H152.271H152.271H152.271H152.27H152.27H152.27H152.27H152.27H152.27H152.27H152.27H152.27H152.27H152.269H152.269H152.269H152.269H152.269H152.269H152.269H152.269H152.269H152.269H152.268H152.268H152.268H152.268H152.268H152.268H152.268H152.268H152.268H152.268H152.267H152.267H152.267H152.267H152.267H152.267H152.267H152.267H152.267H152.267H152.266H152.266H152.266H152.266H152.266H152.266H152.266H152.266H152.266H152.266H152.266H152.265H152.265H152.265H152.265H152.265H152.265H152.265H152.265H152.265H152.265H152.264H152.264H152.264H152.264H152.264H152.264H152.264H152.264H152.264H152.264H152.263H152.263H152.263H152.263H152.263H152.263H152.263H152.263H152.263H152.263H152.262H152.262H152.262H152.262H152.262H152.262H152.262H152.262H152.262H152.262H152.261H152.261H152.261H152.261H152.261H152.261H152.261H152.261H152.261H152.261H152.26H152.26H152.26H152.26H152.26H152.26H152.26H152.26H152.26H152.26H152.259H152.259H152.259H152.259H152.259H152.259H152.259H152.259H152.259H152.259H152.259H152.258H152.258H152.258H152.258H152.258H152.258H152.258H152.258H152.258H152.258H152.257H152.257H152.257H152.257H152.257H152.257H152.257H152.257H152.257H152.257H152.256H152.256H152.256H152.256H152.256H152.256H152.256H152.256H152.256H152.256H152.255H152.255H152.255H152.255H152.255H152.255H152.255H152.255H152.255H152.255H152.254H152.254H152.254H152.254H152.254H152.254H152.254H152.254H152.254H152.254H152.253H152.253H152.253H152.253H152.253H152.253H152.253H152.253H152.253H152.253H152.252H152.252H152.252H152.252H152.252H152.252H152.252H152.252H152.252H152.252H152.251H152.251H152.251H152.251H152.251H152.251H152.251H152.251H152.251H152.251H152.251H152.25H152.25H152.25H152.25H152.25H152.25H152.25H152.25H152.25H152.25H152.249H152.249H152.249H152.249H152.249H152.249H152.249H152.249H152.249H152.249H152.248H152.248H152.248H152.248H152.248H152.248H152.248H152.248H152.248H152.248H152.247H152.247H152.247H152.247H152.247H152.247H152.247H152.247H152.247H152.247H152.246H152.246H152.246H152.246H152.246H152.246H152.246H152.246H152.246H152.246H152.245H152.245H152.245H152.245H152.245H152.245H152.245H152.245H152.245H152.245H152.244H152.244H152.244H152.244H152.244H152.244H152.244H152.244H152.244H152.244H152.243H152.243H152.243H152.243H152.243H152.243H152.243H152.243H152.243H152.243H152.243H152.242H152.242H152.242H152.242H152.242H152.242H152.242H152.242H152.242H152.242H152.241H152.241H152.241H152.241H152.241H152.241H152.241H152.241H152.241H152.241H152.24H152.24H152.24H152.24H152.24H152.24H152.24H152.24H152.24H152.24H152.239H152.239H152.239H152.239H152.239H152.239H152.239H152.239H152.239H152.239H152.238H152.238H152.238H152.238H152.238H152.238H152.238H152.238H152.238H152.238H152.237H152.237H152.237H152.237H152.237H152.237H152.237H152.237H152.237H152.237H152.236H152.236H152.236H152.236H152.236H152.236H152.236H152.236H152.236H152.236H152.236H152.235H152.235H152.235H152.235H152.235H152.235H152.235H152.235H152.235H152.235H152.234H152.234H152.234H152.234H152.234H152.234H152.234H152.234H152.234H152.234H152.233H152.233H152.233H152.233H152.233H152.233H152.233H152.233H152.233H152.233H152.232H152.232H152.232H152.232H152.232H152.232H152.232H152.232H152.232H152.232H152.231H152.231H152.231H152.231H152.231H152.231H152.231H152.231H152.231H152.231H152.23H152.23H152.23H152.23H152.23H152.23H152.23H152.23H152.23H152.23H152.229H152.229H152.229H152.229H152.229H152.229H152.229H152.229H152.229H152.229H152.228H152.228H152.228H152.228H152.228H152.228H152.228H152.228H152.228H152.228H152.228H152.227H152.227H152.227H152.227H152.227H152.227H152.227H152.227H152.227H152.227H152.226H152.226H152.226H152.226H152.226H152.226H152.226H152.226H152.226H152.226H152.225H152.225H152.225H152.225H152.225H152.225H152.225H152.225H152.225H152.225H152.224H152.224L152.224 112.153L152.222 112.153C150.325 112.186 148.654 112.9 147.459 113.604C146.282 114.297 145.556 114.986 145.513 115.028C145.473 115.067 145.408 115.067 145.368 115.028L145.368 115.028C145.334 114.994 144.888 114.56 144.374 113.961C143.857 113.36 143.281 112.606 142.974 111.931L142.974 111.931C142.936 111.847 142.866 111.791 142.791 111.753C142.716 111.715 142.626 111.689 142.527 111.672C142.328 111.637 142.066 111.631 141.758 111.647C141.138 111.678 140.297 111.8 139.321 111.989C137.368 112.366 134.856 113.013 132.452 113.752L132.347 113.785V113.896V113.898Z" fill="#080808" stroke="black" stroke-width="0.3"/>
<path d="M103.938 103.857C102.702 102.661 101.665 101.647 100.885 100.88C101.235 101.139 101.63 101.428 102.066 101.742C103.926 103.083 106.519 104.875 109.448 106.679C112.377 108.482 115.645 110.299 118.855 111.689C122.062 113.077 125.224 114.043 127.937 114.136C133.129 114.313 139.759 115.107 146.284 115.888C146.498 115.914 146.713 115.939 146.927 115.965C153.652 116.77 160.211 117.539 164.881 117.574C173.827 117.645 179.077 114.084 182.234 111.943C182.382 111.842 182.527 111.744 182.666 111.65L182.582 111.526L182.666 111.65C183.451 111.121 184.402 110.314 185.411 109.427C185.695 109.178 185.984 108.921 186.275 108.663C187.021 108.001 187.784 107.325 188.527 106.703C189.561 105.838 190.548 105.087 191.389 104.635C191.809 104.408 192.184 104.261 192.504 104.209C192.822 104.157 193.073 104.2 193.263 104.335C193.363 104.406 193.495 104.538 193.653 104.737C193.809 104.933 193.986 105.186 194.176 105.49C194.558 106.099 194.991 106.909 195.427 107.869C196.298 109.789 197.174 112.303 197.657 115.007C198.623 120.422 198.008 126.551 192.695 130.242C190.026 132.096 186.029 133.497 181.347 134.478C176.668 135.458 171.319 136.015 165.96 136.187C160.601 136.358 155.235 136.144 150.521 135.584C145.804 135.024 141.751 134.118 139.012 132.911C136.275 131.702 132.423 129.001 128.176 125.617C123.933 122.237 119.307 118.184 115.025 114.282C110.743 110.381 106.805 106.631 103.938 103.857Z" fill="white" stroke="black" stroke-width="0.3"/>
<path d="M139.423 98.962L139.426 98.9668L139.343 99.1157C139.262 99.2602 139.146 99.4674 139.004 99.7184C138.719 100.22 138.331 100.897 137.917 101.595C137.502 102.294 137.062 103.014 136.674 103.602C136.479 103.896 136.299 104.156 136.141 104.364C135.982 104.574 135.853 104.722 135.761 104.799L135.761 104.8C135.677 104.87 135.531 104.944 135.322 105.015C135.116 105.084 134.861 105.147 134.57 105.203C133.988 105.314 133.272 105.394 132.535 105.442C131.055 105.54 129.517 105.511 128.82 105.37L128.82 105.37C128.506 105.307 128.187 105.082 127.879 104.754C127.574 104.428 127.294 104.017 127.055 103.609C126.817 103.202 126.623 102.804 126.488 102.506C126.421 102.358 126.369 102.235 126.333 102.149C126.315 102.107 126.302 102.073 126.293 102.051L126.288 102.037C126.262 101.711 126.175 100.924 126.061 99.9083C125.967 99.0642 125.855 98.0619 125.747 97.0344C125.504 94.7309 125.281 92.303 125.307 91.1962L125.307 91.196C125.312 90.9531 125.397 90.7646 125.542 90.6149C125.691 90.4618 125.911 90.3421 126.196 90.256C126.768 90.0832 127.56 90.0584 128.43 90.1299C130.166 90.2728 132.146 90.7935 133.129 91.1881C133.355 91.2789 133.627 91.4647 133.934 91.7319C134.239 91.9973 134.571 92.3358 134.916 92.7228C135.606 93.4967 136.342 94.4561 137.018 95.3934C137.694 96.3302 138.308 97.2424 138.753 97.9206C138.975 98.2596 139.155 98.54 139.28 98.7356C139.342 98.8334 139.39 98.9099 139.423 98.962Z" fill="white" stroke="black" stroke-width="0.3"/>
<path d="M126.229 101.864H126.17L126.25 102.069C126.423 102.508 126.776 103.279 127.222 103.968C127.445 104.313 127.693 104.642 127.957 104.9C128.218 105.156 128.507 105.355 128.811 105.416C129.557 105.567 131.103 105.584 132.544 105.488C133.268 105.44 133.972 105.363 134.543 105.258C134.829 105.206 135.084 105.146 135.294 105.079C135.499 105.013 135.676 104.934 135.791 104.837L135.791 104.837C135.972 104.686 136.236 104.336 136.536 103.895C136.84 103.448 137.193 102.887 137.552 102.298C138.269 101.118 139.012 99.8154 139.44 99.0463L139.483 98.9684L139.435 98.8931C139.133 98.4161 138.015 96.6675 136.753 94.9491C136.122 94.0902 135.453 93.2361 134.831 92.5515C134.52 92.2092 134.218 91.9073 133.937 91.6677C133.658 91.4295 133.392 91.2462 133.151 91.1492L133.15 91.1491C132.213 90.7746 130.695 90.376 129.248 90.178C128.524 90.079 127.813 90.0295 127.199 90.0598C126.59 90.0898 126.053 90.199 125.695 90.4361C125.557 90.5268 125.449 90.6347 125.375 90.7648C125.301 90.8953 125.266 91.0402 125.263 91.1979L125.413 91.201M126.229 101.864L126.174 99.9513M126.229 101.864C126.194 101.484 126.119 100.808 126.024 99.9681M126.229 101.864L133.095 91.2883C131.247 90.55 127.069 89.7045 125.778 90.5613C125.533 90.7219 125.418 90.9276 125.413 91.201M125.413 91.201C125.373 92.813 125.873 97.2826 126.174 99.9513M125.413 91.201L125.263 91.1973C125.223 92.8226 125.725 97.3065 126.024 99.9681M126.174 99.9513L126.024 99.9681M126.174 99.9513L126.024 99.9681M125.814 99.9939L125.814 99.9938C125.513 97.3038 125.013 92.829 125.052 91.1962C125.062 90.8074 125.24 90.4884 125.58 90.2636L125.58 90.2635C125.948 90.0188 126.506 89.8907 127.179 89.8559C127.849 89.8214 128.615 89.8799 129.383 89.9918C130.922 90.2158 132.453 90.6505 133.221 90.9597L133.221 90.9598C133.455 91.0534 133.732 91.2389 134.041 91.5025C134.348 91.7647 134.681 92.0977 135.025 92.4783C135.715 93.2395 136.447 94.1834 137.123 95.1138C138.473 96.9698 139.591 98.761 139.686 98.9136C139.706 98.948 139.706 98.9882 139.689 99.0176L139.688 99.0195C139.54 99.2892 138.804 100.613 137.999 101.958C137.597 102.631 137.178 103.308 136.807 103.861C136.621 104.138 136.448 104.382 136.296 104.579C136.142 104.777 136.015 104.92 135.921 104.999C135.785 105.113 135.531 105.224 135.172 105.323C134.819 105.42 134.383 105.501 133.902 105.565C132.94 105.694 131.809 105.756 130.816 105.756C129.951 105.756 129.203 105.708 128.769 105.621C128.424 105.551 128.081 105.319 127.756 104.987C127.433 104.656 127.138 104.238 126.887 103.821C126.387 102.989 126.07 102.178 126.044 102.111C126.041 102.102 126.038 102.09 126.036 102.078C126.015 101.796 125.94 101.124 125.842 100.244C125.833 100.162 125.824 100.079 125.814 99.9939Z" fill="#080808" stroke="black" stroke-width="0.3"/>
<path d="M139.836 103.692C139.738 103.641 139.67 103.593 139.626 103.551L139.621 103.538C139.612 103.516 139.599 103.483 139.581 103.439C139.547 103.351 139.497 103.221 139.437 103.054C139.315 102.72 139.15 102.237 138.974 101.647C138.621 100.464 138.228 98.8491 138.061 97.1151C137.727 93.6361 138.308 89.7424 141.872 87.8389C142.761 87.3643 143.591 87.2125 144.36 87.3058C145.131 87.3992 145.854 87.7399 146.524 88.2695C147.868 89.3317 148.986 91.1407 149.832 93.161C150.677 95.1779 151.244 97.3881 151.497 99.2344C151.623 100.158 151.671 100.986 151.636 101.651C151.602 102.325 151.484 102.803 151.305 103.051C151.118 103.309 150.816 103.534 150.414 103.725C150.013 103.915 149.521 104.066 148.967 104.183C147.859 104.415 146.519 104.504 145.196 104.489C143.874 104.473 142.575 104.354 141.551 104.174C141.038 104.083 140.598 103.978 140.259 103.865C140.089 103.808 139.947 103.75 139.836 103.692Z" fill="white" stroke="black" stroke-width="0.3"/>
<path d="M146.674 104.716C146.327 104.732 145.967 104.743 145.601 104.744L145.598 104.742H145.536C144.224 104.742 142.826 104.638 141.684 104.45C141.112 104.357 140.608 104.243 140.212 104.112C139.808 103.979 139.542 103.836 139.42 103.698L139.42 103.698L139.414 103.692C139.414 103.692 139.413 103.691 139.41 103.686C139.407 103.682 139.404 103.676 139.401 103.668C139.362 103.574 138.134 100.536 137.823 97.0315C137.509 93.4953 138.131 89.5497 141.757 87.6133L141.757 87.6133C142.813 87.0489 143.849 86.8969 144.841 87.1368C145.835 87.3772 146.802 88.0156 147.711 89.0616C149.387 90.9927 150.647 94.1102 151.33 96.9731C151.671 98.4025 151.866 99.7611 151.898 100.867C151.915 101.421 151.89 101.908 151.824 102.307C151.757 102.709 151.65 103.009 151.512 103.2C151.134 103.724 150.391 104.084 149.489 104.323C148.593 104.56 147.572 104.67 146.674 104.716ZM139.573 103.541L139.585 103.573L139.611 103.596C139.694 103.672 139.818 103.74 139.965 103.803C140.114 103.866 140.298 103.929 140.511 103.988C140.936 104.107 141.485 104.218 142.119 104.309C143.387 104.49 145.002 104.591 146.661 104.506C147.85 104.445 148.87 104.289 149.665 104.051C150.453 103.814 151.044 103.49 151.343 103.074C151.494 102.865 151.59 102.548 151.645 102.167C151.7 101.781 151.717 101.312 151.696 100.784C151.655 99.7269 151.466 98.4175 151.139 97.0335C150.485 94.2696 149.273 91.1798 147.553 89.1975C146.69 88.2031 145.776 87.5768 144.816 87.3392C143.852 87.1009 142.859 87.2583 141.851 87.7967C138.373 89.6543 137.743 93.4274 138.001 96.7787C138.26 100.137 139.412 103.136 139.573 103.541Z" fill="#080808" stroke="black" stroke-width="0.3"/>
<path d="M153.27 104.825L153.247 104.812C153.201 104.78 153.141 104.717 153.073 104.612C152.995 104.493 152.914 104.333 152.832 104.134C152.667 103.736 152.502 103.196 152.352 102.55C152.051 101.26 151.808 99.5626 151.723 97.7696C151.639 95.9763 151.712 94.093 152.04 92.4284C152.369 90.7603 152.949 89.331 153.863 88.4248C155.697 86.6052 158.425 86.4115 160.939 87.4045C163.453 88.3972 165.723 90.5667 166.617 93.4217C167.521 96.3096 167.846 99.0024 167.83 101.017C167.822 102.025 167.728 102.858 167.582 103.458C167.508 103.759 167.423 103.996 167.331 104.166C167.237 104.34 167.148 104.423 167.08 104.451C167.036 104.469 166.949 104.492 166.813 104.519C166.68 104.544 166.51 104.571 166.308 104.599C165.902 104.655 165.371 104.713 164.754 104.77C163.519 104.884 161.943 104.993 160.352 105.064C158.76 105.136 157.155 105.171 155.858 105.138C155.21 105.122 154.641 105.089 154.192 105.036C153.734 104.982 153.423 104.909 153.27 104.825Z" fill="white" stroke="black" stroke-width="0.3"/>
<path d="M159.839 87.0004L159.839 87.0004C163.014 87.7936 165.692 90.3057 166.662 93.4082C167.603 96.4162 167.901 99.0908 167.88 101.051C167.869 102.03 167.779 102.834 167.648 103.415C167.582 103.704 167.505 103.943 167.42 104.121C167.378 104.21 167.332 104.288 167.281 104.35C167.231 104.412 167.171 104.466 167.098 104.495C167.098 104.495 167.098 104.495 167.098 104.495L167.041 104.356C166.21 104.695 154.72 105.506 153.319 104.734L159.839 87.0004ZM159.839 87.0004C157.521 86.4266 155.319 86.9198 153.832 88.3921L153.831 88.3922M159.839 87.0004L153.831 88.3922M153.831 88.3922C152.649 89.564 152.037 91.5765 151.786 93.783M153.831 88.3922L151.786 93.783M151.786 93.783C151.534 95.9969 151.643 98.4385 151.933 100.502L151.786 93.783ZM157.128 105.418V105.415H156.978C156.045 105.415 155.203 105.389 154.531 105.329C154.196 105.299 153.905 105.26 153.668 105.213C153.429 105.165 153.256 105.109 153.147 105.05C153.019 104.98 152.875 104.805 152.727 104.514C152.583 104.229 152.446 103.859 152.32 103.432C152.069 102.58 151.866 101.523 151.727 100.531L151.727 100.531C151.434 98.4286 151.329 95.9393 151.599 93.6804C151.869 91.4147 152.512 89.411 153.686 88.2473L153.686 88.2472C155.212 86.732 157.466 86.2028 159.89 86.8012C163.133 87.6088 165.869 90.1804 166.861 93.3484C167.747 96.1775 168.098 98.9223 168.08 101.016C168.072 102.064 167.971 102.943 167.802 103.586C167.717 103.908 167.617 104.165 167.506 104.353C167.395 104.542 167.281 104.648 167.175 104.691L167.232 104.83L167.176 104.691C167.114 104.716 166.973 104.749 166.749 104.787C166.531 104.825 166.247 104.864 165.91 104.905C165.235 104.985 164.351 105.07 163.361 105.146C161.43 105.294 159.098 105.412 157.128 105.418Z" fill="#080808" stroke="black" stroke-width="0.3"/>
<path d="M201.049 77.2664C201.069 77.2831 201.087 77.2977 201.101 77.3101C201.098 77.3335 201.094 77.3622 201.09 77.3959C201.074 77.5037 201.047 77.6633 201.005 77.868C200.92 78.2774 200.77 78.867 200.513 79.5836C199.998 81.0165 199.053 82.9566 197.33 84.977C195.63 86.9694 193.239 87.6276 190.366 87.981C189.458 88.0927 188.5 88.1739 187.504 88.2583C185.363 88.4396 183.043 88.6361 180.65 89.1835L180.65 89.1835C179.035 89.5541 176.039 89.8935 172.199 90.1884C168.361 90.483 163.69 90.7327 158.73 90.9257C148.809 91.3117 137.736 91.4709 129.871 91.3103C121.983 91.1493 112.544 92.8791 105.085 94.6461C101.353 95.5299 98.1143 96.4238 95.808 97.0967C94.6549 97.4332 93.7348 97.7145 93.1029 97.9117C92.7869 98.0103 92.543 98.0879 92.3779 98.1408C92.3716 98.1429 92.3654 98.1449 92.3593 98.1468C92.9469 94.7131 95.6106 91.5446 99.5405 88.7042C103.557 85.8011 108.871 83.2596 114.557 81.1434C125.931 76.9107 138.765 74.3918 145.618 74.0756C151.235 73.8175 155.583 74.6703 159.543 75.4471C160.412 75.6175 161.262 75.7842 162.102 75.9348C166.778 76.7721 171.151 77.1038 176.769 74.7432C184.066 71.679 190.165 72.3376 194.439 73.7588C196.577 74.4697 198.26 75.3719 199.407 76.0958C199.98 76.4578 200.42 76.775 200.715 77.0012C200.863 77.1143 200.975 77.2046 201.049 77.2664Z" fill="white" stroke="black" stroke-width="0.3"/>
<path d="M192.884 86.2724C193.024 86.2836 193.128 86.4076 193.117 86.5457M192.884 86.2724C191.974 86.2075 188.532 86.7233 184.182 87.3912M192.884 86.2724L192.872 86.4219C192.872 86.4219 192.872 86.4219 192.872 86.4219M192.884 86.2724L192.873 86.422C192.873 86.422 192.873 86.4219 192.872 86.4219M193.117 86.5457L92.169 98.0293C92.4857 97.9185 117.234 89.2658 129.885 89.7133C142.346 90.1699 165.202 89.5724 171.609 89.0764M193.117 86.5457C193.106 86.6866 192.985 86.774 192.845 86.7768M193.117 86.5457L129.871 90.2206M184.182 87.3912C179.788 88.0647 174.804 88.8284 171.609 89.0764M184.182 87.3912L184.205 87.5394C179.814 88.2126 174.823 88.9774 171.621 89.226L171.609 89.0764M184.182 87.3912L184.205 87.5394C186.38 87.2054 188.327 86.9097 189.843 86.7056C190.601 86.6036 191.251 86.5246 191.766 86.4752C192.285 86.4256 192.659 86.4068 192.872 86.4219M171.609 89.0764L171.621 89.226C165.207 89.7224 142.346 90.32 129.88 89.8632C123.571 89.6401 114.224 91.691 106.409 93.8154C98.6208 95.9324 92.3755 98.116 92.2185 98.1709L92.2173 98.1713L92.2163 98.1716C92.1673 98.1884 92.1358 98.2465 92.1552 98.3049M192.872 86.4219C192.929 86.4268 192.972 86.4778 192.967 86.5336L192.967 86.5338C192.965 86.5614 192.954 86.5813 192.935 86.5965C192.916 86.612 192.886 86.6245 192.849 86.6266M192.849 86.6266C192.617 86.6068 192.222 86.6287 191.71 86.679C191.186 86.7304 190.526 86.8129 189.764 86.9174C188.363 87.1098 186.614 87.3778 184.731 87.6663L184.238 87.7417L184.238 87.7417C179.833 88.4185 174.848 89.1838 171.64 89.4313L171.651 89.5809M192.849 86.6266C192.852 86.6268 192.855 86.6271 192.858 86.6274L192.845 86.7768M192.849 86.6266C192.846 86.6267 192.844 86.6268 192.842 86.6268L192.845 86.7768M171.651 89.5809L171.64 89.4313C165.23 89.9268 142.346 90.5186 129.876 90.0707M171.651 89.5809C165.235 90.0769 142.346 90.6687 129.871 90.2206M171.651 89.5809C174.866 89.3329 179.858 88.5663 184.261 87.89L184.753 87.8146C188.684 87.2124 192.022 86.701 192.845 86.7768M129.876 90.0707C123.536 89.8415 114.194 91.8981 106.421 94.016C98.6418 96.1355 92.4117 98.323 92.2863 98.3673L92.2862 98.3672L92.2804 98.3696C92.2771 98.3709 92.2703 98.3729 92.2521 98.3729C92.2096 98.3729 92.17 98.3463 92.1552 98.3049M129.876 90.0707L129.871 90.2206M129.876 90.0707C129.876 90.0707 129.876 90.0707 129.876 90.0707L129.871 90.2206M92.1552 98.3049C92.1553 98.3051 92.1554 98.3053 92.1554 98.3056L92.0134 98.3538L92.155 98.3042C92.1551 98.3044 92.1551 98.3047 92.1552 98.3049Z" fill="#080808" stroke="black" stroke-width="0.3"/>
<path d="M176.553 78.2985C176.342 78.552 176.248 78.7873 176.263 78.9996L176.553 78.2985ZM176.553 78.2985C176.762 78.0459 177.076 77.7895 177.469 77.5406M176.553 78.2985L177.469 77.5406M177.469 77.5406C178.255 77.0433 179.333 76.5919 180.451 76.2658M177.469 77.5406L180.451 76.2658M180.451 76.2658C181.569 75.9397 182.716 75.7423 183.638 75.746M180.451 76.2658L183.638 75.746M183.638 75.746C184.099 75.7479 184.496 75.8001 184.803 75.9066M183.638 75.746L184.803 75.9066M184.803 75.9066C185.109 76.0131 185.31 76.168 185.407 76.3653M184.803 75.9066L185.407 76.3653M185.407 76.3653C185.495 76.5437 185.467 76.7399 185.299 76.9694C185.128 77.2032 184.826 77.4494 184.418 77.6943C183.606 78.1823 182.424 78.6375 181.2 78.9732C179.977 79.3089 178.725 79.5214 177.777 79.5311C177.301 79.536 176.914 79.4895 176.648 79.3906C176.383 79.292 176.274 79.1579 176.263 78.9997L185.407 76.3653Z" fill="white" stroke="black" stroke-width="0.3"/>
<path d="M189.067 75.9775L189.067 75.9771C189.107 75.7414 189.321 75.5019 189.669 75.3056C190.012 75.113 190.453 74.9808 190.882 74.944C191.315 74.9071 191.715 74.9685 191.989 75.1387C192.124 75.2225 192.228 75.3321 192.294 75.4706C192.36 75.6095 192.392 75.7863 192.37 76.0105C192.326 76.4486 192.098 76.7232 191.778 76.8823C191.449 77.0453 191.018 77.0885 190.586 77.0341C190.155 76.9798 189.741 76.8305 189.452 76.6292C189.159 76.4245 189.03 76.1951 189.067 75.9775Z" fill="white" stroke="black" stroke-width="0.3"/>
<path d="M95.5958 97.1855C95.8741 97.0844 96.1713 96.9772 96.4861 96.8646C98.6966 96.0743 101.776 95.0194 105.251 93.9615C112.206 91.8442 120.728 89.7205 127.045 89.6714C139.722 89.5728 158.508 89.4178 165.094 89.0822C168.398 88.9139 175.724 87.6687 182.212 86.4685C185.458 85.8679 188.498 85.2779 190.727 84.8379C191.842 84.618 192.753 84.4355 193.386 84.3081C193.676 84.2497 193.908 84.2029 194.073 84.1692L192.139 88.0783L191.984 88.0987C191.83 88.1189 191.605 88.1484 191.317 88.1859C190.741 88.261 189.913 88.3681 188.909 88.4965C186.901 88.7532 184.186 89.0948 181.358 89.4341C178.53 89.7735 175.589 90.1106 173.13 90.3584C170.667 90.6066 168.698 90.7641 167.805 90.7467C165.993 90.7114 162.114 90.7742 158.348 90.839C158.091 90.8434 157.835 90.8478 157.58 90.8522C154.091 90.9125 150.83 90.9688 149.551 90.944C146.801 90.8904 127.899 90.8563 123.465 91.2178L123.465 91.2178C119.87 91.512 112.209 93.1815 105.46 94.7736C102.083 95.5703 98.9293 96.3486 96.6202 96.9278C96.2571 97.0188 95.9148 97.105 95.5958 97.1855Z" fill="#080808" stroke="black" stroke-width="0.3"/>
<path d="M143.358 124.385L143.358 124.385C143.368 124.101 143.564 123.87 143.988 123.697C144.411 123.523 145.024 123.425 145.776 123.395C147.276 123.335 149.275 123.547 151.28 123.906C153.285 124.266 155.286 124.77 156.789 125.291C157.542 125.552 158.163 125.814 158.597 126.062C158.814 126.186 158.978 126.304 159.087 126.41C159.199 126.52 159.234 126.601 159.237 126.652L159.237 126.652C159.239 126.69 159.223 126.741 159.132 126.805C159.039 126.871 158.888 126.933 158.676 126.987C158.254 127.095 157.636 127.157 156.88 127.176C155.371 127.216 153.346 127.085 151.318 126.831C149.289 126.577 147.265 126.202 145.756 125.756C145.001 125.532 144.382 125.293 143.959 125.046C143.747 124.923 143.591 124.802 143.49 124.686C143.391 124.571 143.354 124.471 143.358 124.385Z" fill="white" stroke="black" stroke-width="0.3"/>
<path d="M162.746 130.076L162.746 130.076C162.747 129.833 162.931 129.643 163.31 129.523C163.684 129.406 164.193 129.378 164.711 129.435C165.229 129.491 165.738 129.629 166.11 129.827C166.491 130.03 166.678 130.266 166.669 130.503C166.661 130.733 166.473 130.923 166.092 131.045C165.719 131.165 165.214 131.198 164.701 131.149C164.189 131.099 163.686 130.968 163.316 130.773C162.94 130.573 162.745 130.332 162.746 130.076Z" fill="white" stroke="black" stroke-width="0.3"/>
<path d="M230.904 128.393C230.931 128.653 230.952 128.864 230.967 129.016L226.814 126.679L225.337 111.774L225.338 111.764L225.346 111.713C225.353 111.668 225.364 111.603 225.377 111.519C225.405 111.353 225.446 111.116 225.5 110.836C225.608 110.276 225.767 109.545 225.971 108.855C226.177 108.16 226.423 107.527 226.7 107.15C226.839 106.96 226.971 106.856 227.089 106.824C227.194 106.795 227.32 106.816 227.478 106.954L227.478 106.955C227.543 107.012 227.627 107.143 227.723 107.367C227.816 107.585 227.912 107.872 228.011 108.22C228.208 108.916 228.41 109.844 228.611 110.925C229.014 113.086 229.414 115.848 229.767 118.572C230.121 121.295 230.428 123.978 230.647 125.98C230.756 126.981 230.844 127.812 230.904 128.393Z" fill="#080808" stroke="black" stroke-width="0.3"/>
<path d="M231.203 129.381C231.193 129.388 231.182 129.392 231.171 129.395H231.146C231.128 129.395 231.111 129.39 231.101 129.383L231.101 129.383L231.096 129.38L226.626 126.864L226.626 126.864L226.624 126.862C226.597 126.848 226.576 126.818 226.572 126.782C226.572 126.782 226.572 126.782 226.572 126.782L225.085 111.778V111.778V111.777V111.777V111.777V111.777V111.777V111.777V111.777V111.777V111.777V111.776V111.776V111.776V111.776V111.776V111.776V111.776V111.776V111.775V111.775V111.775V111.775V111.775V111.775V111.775V111.775V111.774V111.774V111.774V111.774V111.774V111.774V111.774V111.774V111.774V111.773V111.773V111.773V111.773V111.773V111.773V111.773V111.773V111.772V111.772V111.772V111.772V111.772V111.772V111.772V111.772V111.771V111.771V111.771V111.771V111.771V111.771V111.771V111.771V111.77V111.77V111.77V111.77V111.77V111.77V111.77V111.77V111.77V111.769V111.769V111.769V111.769V111.769V111.769V111.769V111.769V111.768V111.768V111.768V111.768V111.768V111.768V111.768V111.768V111.767V111.767V111.767V111.767V111.767V111.767V111.767V111.767V111.766V111.766V111.766V111.766V111.766V111.766V111.766V111.766V111.765V111.765V111.765V111.765V111.765V111.765V111.765V111.765V111.764V111.764V111.764V111.764V111.764V111.764V111.764V111.764V111.764V111.763V111.763V111.763V111.763V111.763V111.763V111.763V111.763V111.762V111.762V111.762V111.762V111.762V111.762V111.762V111.762V111.761V111.761V111.761V111.761V111.761V111.761V111.761V111.761V111.76V111.76V111.76V111.76V111.76V111.76V111.76V111.76V111.759V111.759V111.759V111.759V111.759V111.759V111.759V111.759V111.758V111.758V111.758V111.758V111.758V111.758V111.758V111.758V111.757V111.757V111.757V111.757V111.757V111.757V111.757V111.757V111.756V111.756V111.756V111.756V111.756V111.756V111.756V111.756V111.755V111.755V111.755V111.755V111.755V111.755V111.755V111.755V111.754V111.754V111.754V111.754V111.754V111.754V111.754V111.754V111.754V111.753V111.753V111.753V111.753V111.753V111.753V111.753V111.753V111.752V111.752V111.752V111.752V111.752V111.752V111.752V111.752V111.751V111.751V111.751V111.751V111.751V111.751V111.751V111.751V111.75V111.75V111.75V111.75V111.75V111.75V111.75V111.75V111.749V111.749V111.749V111.749V111.749V111.749V111.749V111.749V111.748V111.748V111.748V111.748V111.748V111.748V111.748V111.748V111.747V111.747V111.747V111.747V111.747V111.747V111.747V111.747V111.746V111.746V111.746V111.746V111.746V111.746V111.746V111.746V111.745V111.745V111.745V111.745V111.745V111.745V111.745V111.745V111.744V111.744V111.744V111.744V111.744V111.744V111.744V111.744V111.743V111.743V111.743V111.743V111.743V111.743V111.743V111.743V111.743V111.742V111.742V111.742V111.742V111.742V111.742V111.742V111.742V111.741V111.741V111.741V111.741V111.741V111.741V111.741V111.741V111.74V111.74V111.74V111.74V111.74V111.74V111.74V111.74V111.739V111.739V111.739V111.739V111.739V111.739V111.739V111.739V111.738V111.738V111.738V111.738V111.738V111.738V111.738V111.738V111.738V111.737V111.737V111.737V111.737V111.737V111.737V111.737V111.737V111.736V111.736V111.736V111.736V111.736V111.736V111.736V111.736V111.735V111.735V111.735V111.735V111.735V111.735V111.735V111.735V111.734V111.734V111.734V111.734V111.734V111.734C225.146 111.325 225.335 110.14 225.658 108.999C225.821 108.423 226.017 107.865 226.245 107.425C226.476 106.978 226.723 106.688 226.972 106.597C227.051 106.568 227.148 106.549 227.259 106.566C227.368 106.583 227.5 106.636 227.646 106.765L227.647 106.766C227.716 106.827 227.802 106.955 227.897 107.164C227.991 107.369 228.087 107.636 228.185 107.96C228.381 108.607 228.58 109.465 228.778 110.469C229.174 112.477 229.563 115.055 229.911 117.661C230.609 122.873 231.144 128.191 231.252 129.28C231.255 129.319 231.237 129.358 231.204 129.38L231.203 129.381ZM227.74 107.267C227.671 107.121 227.595 106.998 227.508 106.921C227.408 106.832 227.313 106.785 227.225 106.771C227.137 106.757 227.072 106.779 227.037 106.792C226.918 106.837 226.812 106.929 226.72 107.04C226.625 107.153 226.536 107.298 226.45 107.463C226.279 107.793 226.116 108.224 225.969 108.7C225.673 109.652 225.429 110.804 225.289 111.743L225.287 111.761L225.288 111.78L226.762 126.632L226.776 126.767H226.875L230.772 128.96L231.024 129.101L230.995 128.814C230.569 124.583 229.962 119.353 229.336 115.07C229.022 112.929 228.703 111.021 228.399 109.593C228.247 108.879 228.098 108.281 227.955 107.832C227.883 107.608 227.811 107.418 227.74 107.267Z" fill="#080808" stroke="black" stroke-width="0.3"/>
<path d="M191.707 91.6223C193.772 78.7549 204.539 69.8291 215.724 71.6335C226.908 73.4407 234.34 85.3102 232.275 98.1777C230.21 111.045 219.442 119.974 208.258 118.167C197.076 116.359 189.642 104.49 191.707 91.6223Z" fill="white" stroke="black" stroke-width="0.3"/>
<path d="M208.219 118.417L208.219 118.417C196.913 116.587 189.372 104.565 191.457 91.5799C193.541 78.5974 204.463 69.5696 215.766 71.3825C227.072 73.2124 234.612 85.2343 232.528 98.2198C230.625 110.082 221.347 118.652 211.14 118.652H211.137C210.171 118.652 209.196 118.577 208.219 118.417ZM191.66 91.6141L191.66 91.6141C189.603 104.448 197.022 116.398 208.252 118.212L208.252 118.212C219.483 120.009 230.265 111.017 232.324 98.1856C234.381 85.3518 226.963 73.405 215.732 71.588L215.732 71.588C204.496 69.7852 193.72 78.7829 191.66 91.6141Z" fill="#080808" stroke="black" stroke-width="0.3"/>
<path d="M191.62 92.1924H191.617C193.73 79.5183 203.658 70.6582 213.82 72.3013C224.026 73.9518 230.698 85.5883 228.651 98.358C226.603 111.128 216.628 120.073 206.422 118.423C196.216 116.772 189.544 105.136 191.592 92.3662L191.62 92.1924Z" fill="white" stroke="black" stroke-width="0.3"/>
<path d="M206.38 118.674L206.379 118.674C196.052 117.004 189.272 105.212 191.341 92.327L191.341 92.3269C192.339 86.1008 195.23 80.5644 199.476 76.7372C203.737 72.8968 208.845 71.2361 213.859 72.0507L213.859 72.0507C218.877 72.8598 223.206 76.0435 226.051 81.0316L226.181 80.9573L226.051 81.0317C228.888 86.0039 229.9 92.1687 228.9 98.3948C226.999 110.249 218.272 118.869 208.849 118.872H208.846C208.026 118.872 207.202 118.808 206.38 118.674ZM199.612 76.8948L199.612 76.8949C195.397 80.6937 192.532 86.1875 191.545 92.3612C189.507 105.07 196.144 116.808 206.413 118.468L206.413 118.468C216.705 120.121 226.656 111.07 228.696 98.3635L228.548 98.3397L228.696 98.3635C229.687 92.1926 228.686 86.073 225.871 81.1367C223.066 76.2164 218.79 73.0592 213.826 72.2562C213.006 72.1224 212.181 72.0598 211.362 72.0598C207.215 72.0598 203.12 73.734 199.612 76.8948Z" fill="#080808" stroke="black" stroke-width="0.3"/>
<path d="M229.556 124.458L229.556 124.458C231.818 124.202 233.856 125.836 234.111 128.105L238.566 167.877L238.716 167.86L238.567 167.877C238.821 170.148 237.192 172.193 234.933 172.449L233.319 172.632C233.319 172.632 233.319 172.632 233.319 172.632C231.057 172.887 229.02 171.254 228.765 168.985L224.306 129.213L224.306 129.213C224.051 126.941 225.68 124.897 227.939 124.641L227.966 124.638L227.971 124.635L229.556 124.458Z" fill="white" stroke="black" stroke-width="0.3"/>
<path d="M229.551 124.414L229.551 124.414C229.708 124.396 229.865 124.387 230.02 124.387C232.112 124.387 233.92 125.969 234.159 128.1L234.01 128.116L234.159 128.1L238.615 167.875L238.615 167.875C238.871 170.166 237.223 172.236 234.942 172.493L233.328 172.676C233.328 172.676 233.328 172.677 233.328 172.677L233.328 172.677L233.311 172.528C232.246 172.654 231.196 172.347 230.36 171.674L229.551 124.414ZM229.551 124.414L227.939 124.597L229.551 124.414ZM232.847 172.91L232.847 172.913C231.864 172.912 230.917 172.58 230.136 171.954C229.224 171.221 228.648 170.177 228.518 169.013L228.369 169.03L228.518 169.013L224.059 129.241C224.059 129.241 224.059 129.241 224.059 129.241C223.929 128.074 224.26 126.93 224.988 126.011C225.718 125.093 226.758 124.518 227.917 124.385C227.917 124.385 227.917 124.385 227.917 124.385L229.528 124.202C231.935 123.959 234.092 125.669 234.363 128.074L238.819 167.849C238.819 167.849 238.819 167.849 238.819 167.849C239.088 170.256 237.358 172.43 234.962 172.7L234.962 172.7L233.347 172.883L233.347 172.883C233.182 172.902 233.014 172.91 232.847 172.91Z" fill="#080808" stroke="black" stroke-width="0.3"/>
<path d="M138.07 77.6515L137.95 77.7414C137.996 77.8028 138.002 77.8568 137.978 77.9204C137.95 77.9955 137.877 78.0907 137.741 78.2022C137.47 78.4237 137.007 78.6639 136.396 78.9083C135.18 79.395 133.431 79.8785 131.615 80.2631C129.8 80.6475 127.927 80.9312 126.464 81.021C125.732 81.0659 125.11 81.0618 124.652 80.9997C124.422 80.9686 124.241 80.9238 124.11 80.8676C123.977 80.8103 123.915 80.7497 123.892 80.6995L123.892 80.6994C123.885 80.6839 123.876 80.6518 123.926 80.5801C123.978 80.5059 124.077 80.4151 124.23 80.311C124.535 80.1046 125.013 79.8744 125.618 79.6355C126.827 79.1588 128.513 78.66 130.26 78.252C132.006 77.8441 133.806 77.5285 135.243 77.4161C135.962 77.3599 136.584 77.3551 137.061 77.4128C137.299 77.4417 137.495 77.4857 137.647 77.5438C137.801 77.6024 137.897 77.671 137.95 77.7417L138.07 77.6515ZM138.07 77.6515C139.292 79.2832 124.489 82.3381 123.756 80.7628C123.147 79.4552 136.846 76.0226 138.07 77.6515Z" fill="white" stroke="black" stroke-width="0.3"/>
<path d="M217.781 95.624L209.447 86.5923C208.27 85.3177 206.14 86.0421 205.985 87.7696L204.68 102.283C204.536 103.891 206.257 104.998 207.661 104.2L217.3 98.7189C218.419 98.0825 218.654 96.57 217.781 95.624Z" stroke="black" stroke-width="0.3"/>
</g>
</svg>
