<svg width="1240" height="779" viewBox="0 0 1240 779" fill="none" xmlns="http://www.w3.org/2000/svg">
<mask id="mask0_731_2" style="mask-type:alpha" maskUnits="userSpaceOnUse" x="0" y="0" width="1240" height="779">
<rect width="1240" height="779" fill="#D9D9D9"/>
</mask>
<g mask="url(#mask0_731_2)">
<g filter="url(#filter0_f_731_2)">
<g filter="url(#filter1_f_731_2)">
<path d="M91.8712 692.148C24.7135 788.286 -108.044 856.166 -97.6351 916.14L61.4721 1027.29L564.566 307.096L324.055 139.086C295.337 159.179 224.231 224.45 169.555 324.789C101.209 450.213 159.029 596.01 91.8712 692.148Z" fill="#0B1664"/>
</g>
<g filter="url(#filter2_f_731_2)">
<path d="M104.122 700.706C36.9639 796.844 -97.6242 863.445 -86.0931 924.203L78.0919 1038.9L581.186 318.706L332.999 145.334C303.966 165.207 232.313 230.096 177.967 330.666C110.035 456.379 171.279 604.568 104.122 700.706Z" fill="#162595"/>
<path d="M104.122 700.706C36.9639 796.844 -97.6242 863.445 -86.0931 924.203L78.0919 1038.9L581.186 318.706L332.999 145.334C303.966 165.207 232.313 230.096 177.967 330.666C110.035 456.379 171.279 604.568 104.122 700.706Z" fill="#162595"/>
</g>
<g filter="url(#filter3_f_731_2)">
<path d="M137.361 723.926C70.2037 820.064 -64.3845 886.665 -52.8534 947.423L111.332 1062.12L614.426 341.926L366.239 168.554C337.206 188.427 265.553 253.316 211.207 353.886C143.274 479.599 204.519 627.788 137.361 723.926Z" fill="#3C879F"/>
</g>
<g filter="url(#filter4_f_731_2)">
<path d="M176.141 751.015C108.983 847.153 -25.6049 913.754 -14.0738 974.513L150.111 1089.21L653.205 369.016L405.019 195.643C375.985 215.516 304.332 280.405 249.986 380.976C182.054 506.688 243.299 654.877 176.141 751.015Z" fill="#3C879F"/>
</g>
<g filter="url(#filter5_f_731_2)">
<path d="M203.84 770.365C136.683 866.503 2.09452 933.104 13.6256 993.862L177.811 1108.55L680.905 388.365L432.718 214.993C403.685 234.866 332.032 299.755 277.686 400.325C209.753 526.038 270.998 674.227 203.84 770.365Z" fill="#2C3C93"/>
</g>
<g filter="url(#filter6_f_731_2)">
<path d="M214.92 778.105C147.762 874.242 13.1739 940.844 24.705 1001.6L188.89 1116.29L691.984 396.105L443.797 222.732C414.764 242.606 343.111 307.495 288.765 408.065C220.833 533.778 282.078 681.967 214.92 778.105Z" fill="#6FA9FF"/>
</g>
</g>
<g opacity="0.5" filter="url(#filter7_f_731_2)">
<g filter="url(#filter8_f_731_2)">
<path d="M58.6314 668.928C-8.5264 765.066 -141.284 832.946 -130.875 892.92L28.2322 1004.07L531.326 283.876L290.816 115.866C262.097 135.959 190.991 201.23 136.315 301.569C67.969 426.993 125.789 572.79 58.6314 668.928Z" fill="#0B1664"/>
</g>
<g filter="url(#filter9_f_731_2)">
<path d="M93.0418 692.965C25.884 789.103 -108.704 855.704 -97.1731 916.463L67.0119 1031.16L570.106 310.966L321.919 137.593C292.886 157.466 221.233 222.356 166.887 322.926C98.9548 448.638 160.2 596.828 93.0418 692.965Z" fill="#162595"/>
<path d="M93.0418 692.965C25.884 789.103 -108.704 855.704 -97.1731 916.463L67.0119 1031.16L570.106 310.966L321.919 137.593C292.886 157.466 221.233 222.356 166.887 322.926C98.9548 448.638 160.2 596.828 93.0418 692.965Z" fill="#162595"/>
</g>
<g filter="url(#filter10_f_731_2)">
<path d="M112.431 706.51C45.2731 802.648 -89.315 869.249 -77.7839 930.007L86.4011 1044.7L589.495 324.511L341.309 151.138C312.275 171.011 240.622 235.9 186.276 336.47C118.344 462.183 179.589 610.372 112.431 706.51Z" fill="#3C879F"/>
</g>
<g filter="url(#filter11_f_731_2)">
<path d="M156.751 737.47C89.593 833.607 -44.9952 900.209 -33.4641 960.967L130.721 1075.66L633.815 355.47L385.628 182.098C356.595 201.971 284.942 266.86 230.596 367.43C162.664 493.143 223.908 641.332 156.751 737.47Z" fill="#3C879F"/>
</g>
<g filter="url(#filter12_f_731_2)">
<path d="M178.91 752.95C111.753 849.087 -22.8357 915.689 -11.3046 976.447L152.88 1091.14L655.975 370.95L407.788 197.578C378.755 217.451 307.101 282.34 252.756 382.91C184.823 508.623 246.068 656.812 178.91 752.95Z" fill="#2C3C93"/>
</g>
</g>
</g>
<defs>
<filter id="filter0_f_731_2" x="-207.343" y="29.9556" width="1008.46" height="1195.47" filterUnits="userSpaceOnUse" color-interpolation-filters="sRGB">
<feFlood flood-opacity="0" result="BackgroundImageFix"/>
<feBlend mode="normal" in="SourceGraphic" in2="BackgroundImageFix" result="shape"/>
<feGaussianBlur stdDeviation="54.5649" result="effect1_foregroundBlur_731_2"/>
</filter>
<filter id="filter1_f_731_2" x="-116.76" y="120.538" width="699.873" height="925.294" filterUnits="userSpaceOnUse" color-interpolation-filters="sRGB">
<feFlood flood-opacity="0" result="BackgroundImageFix"/>
<feBlend mode="normal" in="SourceGraphic" in2="BackgroundImageFix" result="shape"/>
<feGaussianBlur stdDeviation="9.27348" result="effect1_foregroundBlur_731_2"/>
</filter>
<filter id="filter2_f_731_2" x="-105.336" y="126.787" width="705.069" height="930.656" filterUnits="userSpaceOnUse" color-interpolation-filters="sRGB">
<feFlood flood-opacity="0" result="BackgroundImageFix"/>
<feBlend mode="normal" in="SourceGraphic" in2="BackgroundImageFix" result="shape"/>
<feGaussianBlur stdDeviation="9.27348" result="effect1_foregroundBlur_731_2"/>
</filter>
<filter id="filter3_f_731_2" x="-72.0965" y="150.007" width="705.069" height="930.656" filterUnits="userSpaceOnUse" color-interpolation-filters="sRGB">
<feFlood flood-opacity="0" result="BackgroundImageFix"/>
<feBlend mode="normal" in="SourceGraphic" in2="BackgroundImageFix" result="shape"/>
<feGaussianBlur stdDeviation="9.27348" result="effect1_foregroundBlur_731_2"/>
</filter>
<filter id="filter4_f_731_2" x="-33.317" y="177.096" width="705.069" height="930.656" filterUnits="userSpaceOnUse" color-interpolation-filters="sRGB">
<feFlood flood-opacity="0" result="BackgroundImageFix"/>
<feBlend mode="normal" in="SourceGraphic" in2="BackgroundImageFix" result="shape"/>
<feGaussianBlur stdDeviation="9.27348" result="effect1_foregroundBlur_731_2"/>
</filter>
<filter id="filter5_f_731_2" x="-5.61751" y="196.446" width="705.069" height="930.656" filterUnits="userSpaceOnUse" color-interpolation-filters="sRGB">
<feFlood flood-opacity="0" result="BackgroundImageFix"/>
<feBlend mode="normal" in="SourceGraphic" in2="BackgroundImageFix" result="shape"/>
<feGaussianBlur stdDeviation="9.27348" result="effect1_foregroundBlur_731_2"/>
</filter>
<filter id="filter6_f_731_2" x="5.46183" y="204.185" width="705.069" height="930.656" filterUnits="userSpaceOnUse" color-interpolation-filters="sRGB">
<feFlood flood-opacity="0" result="BackgroundImageFix"/>
<feBlend mode="normal" in="SourceGraphic" in2="BackgroundImageFix" result="shape"/>
<feGaussianBlur stdDeviation="9.27348" result="effect1_foregroundBlur_731_2"/>
</filter>
<filter id="filter7_f_731_2" x="-267.865" y="-20.5466" width="1060.25" height="1248.1" filterUnits="userSpaceOnUse" color-interpolation-filters="sRGB">
<feFlood flood-opacity="0" result="BackgroundImageFix"/>
<feBlend mode="normal" in="SourceGraphic" in2="BackgroundImageFix" result="shape"/>
<feGaussianBlur stdDeviation="68.2062" result="effect1_foregroundBlur_731_2"/>
</filter>
<filter id="filter8_f_731_2" x="-150" y="97.3188" width="699.873" height="925.294" filterUnits="userSpaceOnUse" color-interpolation-filters="sRGB">
<feFlood flood-opacity="0" result="BackgroundImageFix"/>
<feBlend mode="normal" in="SourceGraphic" in2="BackgroundImageFix" result="shape"/>
<feGaussianBlur stdDeviation="9.27348" result="effect1_foregroundBlur_731_2"/>
</filter>
<filter id="filter9_f_731_2" x="-116.416" y="119.046" width="705.069" height="930.656" filterUnits="userSpaceOnUse" color-interpolation-filters="sRGB">
<feFlood flood-opacity="0" result="BackgroundImageFix"/>
<feBlend mode="normal" in="SourceGraphic" in2="BackgroundImageFix" result="shape"/>
<feGaussianBlur stdDeviation="9.27348" result="effect1_foregroundBlur_731_2"/>
</filter>
<filter id="filter10_f_731_2" x="-97.0271" y="132.591" width="705.069" height="930.656" filterUnits="userSpaceOnUse" color-interpolation-filters="sRGB">
<feFlood flood-opacity="0" result="BackgroundImageFix"/>
<feBlend mode="normal" in="SourceGraphic" in2="BackgroundImageFix" result="shape"/>
<feGaussianBlur stdDeviation="9.27348" result="effect1_foregroundBlur_731_2"/>
</filter>
<filter id="filter11_f_731_2" x="-52.7072" y="163.551" width="705.069" height="930.656" filterUnits="userSpaceOnUse" color-interpolation-filters="sRGB">
<feFlood flood-opacity="0" result="BackgroundImageFix"/>
<feBlend mode="normal" in="SourceGraphic" in2="BackgroundImageFix" result="shape"/>
<feGaussianBlur stdDeviation="9.27348" result="effect1_foregroundBlur_731_2"/>
</filter>
<filter id="filter12_f_731_2" x="-30.5477" y="179.031" width="705.069" height="930.656" filterUnits="userSpaceOnUse" color-interpolation-filters="sRGB">
<feFlood flood-opacity="0" result="BackgroundImageFix"/>
<feBlend mode="normal" in="SourceGraphic" in2="BackgroundImageFix" result="shape"/>
<feGaussianBlur stdDeviation="9.27348" result="effect1_foregroundBlur_731_2"/>
</filter>
</defs>
</svg>
