<svg width="101" height="110" viewBox="0 0 101 110" fill="none" xmlns="http://www.w3.org/2000/svg">
<g clip-path="url(#clip0_488_1133)">
<g opacity="0.9">
<path d="M99.1498 32.4931C93.1366 20.0913 66.4196 20.6311 39.4756 33.6986C12.5317 46.7661 -4.43611 67.413 1.57705 79.8147C7.59021 92.2164 34.3072 91.6767 61.2512 78.6092C88.1952 65.5417 105.163 44.8948 99.1498 32.4931Z" stroke="#080808" stroke-width="0.8" stroke-miterlimit="10"/>
<path d="M95.9929 31.0065C89.6108 19.1729 63.5895 20.8245 37.8727 34.6954C12.1559 48.5663 -3.51794 69.4039 2.86414 81.2375C9.24622 93.071 35.2675 91.4195 60.9843 77.5486C86.7011 63.6777 102.375 42.8401 95.9929 31.0065Z" stroke="#080808" stroke-width="0.8" stroke-miterlimit="10"/>
<path d="M60.737 76.4931C85.225 61.8203 99.6027 40.7907 92.8505 29.5221C86.0982 18.2536 60.7729 21.0133 36.2848 35.6861C11.7968 50.359 -2.58089 71.3886 4.17139 82.6572C10.9237 93.9257 36.2489 91.166 60.737 76.4931Z" stroke="#080808" stroke-width="0.8" stroke-miterlimit="10"/>
<path d="M60.488 75.4297C83.7454 59.9556 96.8245 38.7336 89.7009 28.0291C82.5774 17.3246 57.9488 21.1911 34.6914 36.6652C11.4339 52.1393 -1.64516 73.3613 5.47838 84.0659C12.6019 94.7704 37.2305 90.9039 60.488 75.4297Z" stroke="#080808" stroke-width="0.8" stroke-miterlimit="10"/>
<path d="M60.219 74.3691C82.2491 58.0941 94.035 36.6828 86.5436 26.5456C79.0522 16.4084 55.1203 21.384 33.0902 37.659C11.0601 53.934 -0.725835 75.3453 6.76558 85.4825C14.257 95.6197 38.1889 90.6441 60.219 74.3691Z" stroke="#080808" stroke-width="0.8" stroke-miterlimit="10"/>
<path d="M59.9602 73.3153C80.7643 56.2366 91.2568 34.6326 83.3959 25.0614C75.535 15.4902 52.2975 21.5762 31.4934 38.6549C10.6893 55.7336 0.196726 77.3376 8.05761 86.9088C15.9185 96.4801 39.1561 90.394 59.9602 73.3153Z" stroke="#080808" stroke-width="0.8" stroke-miterlimit="10"/>
<path d="M59.7062 72.2555C79.2794 54.3754 88.4742 32.5807 80.2432 23.5756C72.0123 14.5706 49.4726 21.7652 29.8994 39.6453C10.3262 57.5254 1.13147 79.3201 9.3624 88.3251C17.5933 97.3302 40.133 90.1356 59.7062 72.2555Z" stroke="#080808" stroke-width="0.8" stroke-miterlimit="10"/>
<path d="M59.4536 71.1989C77.8003 52.5163 85.6997 30.5277 77.0974 22.0861C68.495 13.6445 46.6485 21.9465 28.3017 40.6291C9.955 59.3118 2.05561 81.3003 10.6579 89.7419C19.2603 98.1835 41.1068 89.8816 59.4536 71.1989Z" stroke="#080808" stroke-width="0.8" stroke-miterlimit="10"/>
<path d="M59.1975 70.1275C76.3119 50.6411 82.9114 28.4607 73.9379 20.5861C64.9644 12.7116 43.8158 22.1249 26.7014 41.6113C9.58691 61.0977 2.98739 83.2781 11.9609 91.1527C20.9345 99.0272 42.083 89.6139 59.1975 70.1275Z" stroke="#080808" stroke-width="0.8" stroke-miterlimit="10"/>
<path d="M58.9316 69.0703C74.8196 48.7812 80.1276 26.4103 70.7873 19.1034C61.447 11.7964 40.9955 22.3206 25.1076 42.6096C9.21959 62.8987 3.91162 85.2696 13.2519 92.5765C22.5921 99.8834 43.0436 89.3593 58.9316 69.0703Z" stroke="#080808" stroke-width="0.8" stroke-miterlimit="10"/>
<path d="M58.6687 68.0134C73.3291 46.9241 77.3423 24.3622 67.6323 17.62C57.9224 10.8778 38.1664 22.5084 23.506 43.5978C8.84555 64.6871 4.83238 87.2491 14.5423 93.9913C24.2522 100.733 44.0083 89.1028 58.6687 68.0134Z" stroke="#080808" stroke-width="0.8" stroke-miterlimit="10"/>
<path d="M58.4203 66.9536C71.8501 45.061 74.5655 22.3073 64.4852 16.1317C54.405 9.95617 35.3463 22.6974 21.9165 44.5899C8.48664 66.4825 5.77126 89.2363 15.8515 95.4118C25.9317 101.587 44.9904 88.8462 58.4203 66.9536Z" stroke="#080808" stroke-width="0.8" stroke-miterlimit="10"/>
<path d="M58.1559 65.8972C70.3591 43.2029 71.781 20.2576 61.332 14.6473C50.8829 9.03697 32.5197 22.8863 20.3165 45.5805C8.11332 68.2748 6.69134 91.2202 17.1404 96.8304C27.5895 102.441 45.9527 88.5914 58.1559 65.8972Z" stroke="#080808" stroke-width="0.8" stroke-miterlimit="10"/>
<path d="M57.8948 64.8227C68.8673 41.3229 68.9918 18.1846 58.1731 13.1417C47.3543 8.0988 29.689 23.061 18.7165 46.5608C7.74405 70.0605 7.61949 93.1989 18.4383 98.2418C29.2571 103.285 46.9224 88.3224 57.8948 64.8227Z" stroke="#080808" stroke-width="0.8" stroke-miterlimit="10"/>
<path d="M57.6445 63.7707C67.3891 39.4682 66.2189 16.1375 55.0307 11.6601C43.8425 7.18278 26.8731 23.2542 17.1285 47.5567C7.38394 71.8592 8.55419 95.1899 19.7424 99.6673C30.9306 104.145 47.8999 88.0732 57.6445 63.7707Z" stroke="#080808" stroke-width="0.8" stroke-miterlimit="10"/>
<path d="M57.3803 62.7162C65.8964 37.6138 63.4296 14.0926 51.8706 10.18C40.3115 6.26743 24.0374 23.4451 15.5213 48.5475C7.00522 73.6498 9.47202 97.171 21.0311 101.084C32.5901 104.996 48.8643 87.8185 57.3803 62.7162Z" stroke="#080808" stroke-width="0.8" stroke-miterlimit="10"/>
<path d="M57.1254 61.6535C64.4123 35.7468 60.649 12.0325 48.72 8.68611C36.791 5.33973 21.2134 23.6285 13.9265 49.5352C6.63961 75.4418 10.4028 99.1561 22.3319 102.503C34.2609 105.849 49.8385 87.5602 57.1254 61.6535Z" stroke="#080808" stroke-width="0.8" stroke-miterlimit="10"/>
<path d="M56.874 60.5887C62.9324 33.879 57.8734 9.97228 45.5743 7.1915C33.2751 4.41072 18.3934 23.809 12.335 50.5187C6.27656 77.2284 11.3356 101.135 23.6347 103.916C35.9339 106.697 50.8156 87.2985 56.874 60.5887Z" stroke="#080808" stroke-width="0.8" stroke-miterlimit="10"/>
<path d="M56.6082 59.5349C61.4392 32.0238 55.0869 7.92584 42.42 5.71047C29.7532 3.49511 15.5684 24.0013 10.7374 51.5123C5.90649 79.0233 12.2588 103.121 24.9256 105.337C37.5925 107.552 51.7773 87.0459 56.6082 59.5349Z" stroke="#080808" stroke-width="0.8" stroke-miterlimit="10"/>
<path d="M56.3394 58.4729C59.9406 30.1619 52.2935 5.87446 39.2591 4.22534C26.2248 2.57622 12.739 24.1899 9.13775 52.5009C5.53655 80.8119 13.1836 105.099 26.218 106.748C39.2524 108.398 52.7382 86.7839 56.3394 58.4729Z" stroke="#080808" stroke-width="0.8" stroke-miterlimit="10"/>
<path d="M56.0964 57.4107C58.4687 28.2977 49.523 3.81828 36.1155 2.73451C22.7081 1.65074 9.91599 24.373 7.54361 53.4861C5.17124 82.5991 14.1169 107.079 27.5244 108.162C40.9319 109.246 53.724 86.5238 56.0964 57.4107Z" stroke="#080808" stroke-width="0.8" stroke-miterlimit="10"/>
<path d="M55.8373 56.3616C56.9855 26.4445 46.7492 1.77021 32.9738 1.25015C19.1984 0.730097 7.10036 24.5612 5.95212 54.4783C4.80388 84.3955 15.0402 109.07 28.8156 109.59C42.591 110.11 54.689 86.2788 55.8373 56.3616Z" stroke="#080808" stroke-width="0.8" stroke-miterlimit="10"/>
</g>
</g>
<defs>
<clipPath id="clip0_488_1133">
<rect width="101" height="110" fill="white"/>
</clipPath>
</defs>
</svg>
