<svg width="104" height="104" viewBox="0 0 104 104" fill="none" xmlns="http://www.w3.org/2000/svg">
<g clip-path="url(#clip0_487_1059)">
<g opacity="0.9">
<g style="mix-blend-mode:multiply" opacity="0.1">
<path d="M53.0334 104L52.8879 91.0704L52.7978 78.1478L52.7285 52.2884L52.7978 26.4291L52.881 13.4995L53.0334 0.569824L53.1859 13.4995L53.269 26.4291L53.3453 52.2884L53.269 78.1478L53.1859 91.0704L53.0334 104Z" fill="#080808"/>
<path d="M55.4589 102.777L54.6967 90.473L54.0037 78.1616L52.7009 53.539L51.5437 28.9095L51.017 16.5982L50.5527 4.27295L51.315 16.5773L52.0149 28.8886L53.3107 53.5112L54.468 78.1408L54.9946 90.4591L55.4589 102.777Z" fill="#080808"/>
<path d="M57.8907 101.555L56.5117 89.8755L55.202 78.1825L52.6727 54.7966L50.2889 31.3967L49.1455 19.6899L48.0645 7.97607L49.4434 19.6551L50.7532 31.3481L53.2825 54.734L55.6663 78.1339L56.8097 89.8407L57.8907 101.555Z" fill="#080808"/>
<path d="M60.3164 100.332L58.3276 89.278L56.4011 78.2103L52.6522 56.0541L49.0349 33.884L47.2748 22.7816L45.584 11.6792L47.5659 22.733L49.4923 33.8006L53.2482 55.9568L56.8585 78.1339L58.6186 89.2293L60.3164 100.332Z" fill="#080808"/>
<path d="M62.7412 99.109L60.1426 88.6805L57.6064 78.2311L52.624 57.3116L47.7801 36.3644L45.4102 25.8803L43.0957 15.3823L45.6943 25.8108L48.2306 36.2601L53.213 57.1796L58.0568 78.1269L60.4267 88.611L62.7412 99.109Z" fill="#080808"/>
<path d="M65.1669 97.8862L61.9585 88.083L58.8125 78.252L52.6035 58.5761L46.5331 38.8516L43.5395 28.979L40.6152 19.0854L43.8237 28.8886L46.9697 38.7127L53.1787 58.3955L59.249 78.12L62.2357 87.9927L65.1669 97.8862Z" fill="#080808"/>
<path d="M67.5987 96.6634L63.7805 87.4855L60.0177 78.2798L52.5891 59.8337L45.2853 41.3389L41.6749 32.0707L38.127 22.7886L41.9452 31.9665L45.708 41.1722L53.1365 59.6113L60.4404 78.1061L64.0438 87.3743L67.5987 96.6634Z" fill="#080808"/>
<path d="M70.0235 95.4405L65.5955 86.8879L61.2229 78.3005L52.5678 61.098L44.0374 43.8261L39.8103 35.1692L35.6387 26.4846L40.0667 35.0442L44.4393 43.6246L53.0944 60.834L61.6317 78.099L65.8519 86.7558L70.0235 95.4405Z" fill="#080808"/>
<path d="M72.4492 94.2177L67.4183 86.2904L62.4359 78.3283L52.5543 62.3556L42.7904 46.3133L37.9466 38.2679L33.1582 30.1877L38.1891 38.1151L43.1715 46.0771L53.0532 62.0499L62.8171 78.0921L67.6609 86.1375L72.4492 94.2177Z" fill="#080808"/>
<path d="M74.8741 92.9949L69.2403 85.6929L63.6481 78.3561L52.5399 63.62L41.5425 48.8006L36.082 41.3666L30.6699 33.8909L36.3106 41.1929L41.9029 48.5297L53.0041 63.2657L64.0015 78.0851L69.462 85.5192L74.8741 92.9949Z" fill="#080808"/>
<path d="M77.3067 91.7721L71.0631 85.0954L64.8611 78.3769L52.5333 64.8776L40.3025 51.2879L34.2252 44.4583L28.1895 37.594L34.4331 44.2707L40.6351 50.9891L52.9629 64.4885L65.1868 78.0782L71.271 84.9008L77.3067 91.7721Z" fill="#080808"/>
<path d="M79.7316 90.5493L72.8851 84.4979L66.0732 78.3978L52.5258 66.1351L39.0615 53.7752L32.3606 47.557L25.7012 41.2971L32.5546 47.3486L39.3595 53.4417L52.9069 65.7113L66.3712 78.0713L73.0722 84.2894L79.7316 90.5493Z" fill="#080808"/>
<path d="M82.1573 89.3265L74.7079 83.8934L67.2932 78.4186L52.5192 67.3927L37.8215 56.2555L30.5038 50.6487L23.2207 45.0002L30.6701 50.4264L38.0848 55.9012L52.8588 66.9341L67.5565 78.0643L74.8742 83.6711L82.1573 89.3265Z" fill="#080808"/>
<path d="M84.5841 88.1037L76.5318 83.2959L68.5073 78.4395L52.5137 68.6432L36.5825 58.7358L28.6411 53.7404L20.7344 48.7034L28.7866 53.5042L36.8111 58.3607L52.8117 68.1569L68.736 78.0643L76.6773 83.0597L84.5841 88.1037Z" fill="#080808"/>
<path d="M87.0147 86.8811L78.3527 82.6916L69.7253 78.4535L52.5051 69.8939L35.3404 61.2163L26.7823 56.8323L18.252 52.3997L26.9071 56.5891L35.5345 60.8272L52.7546 69.3868L69.9193 78.0644L78.4774 82.4484L87.0147 86.8811Z" fill="#080808"/>
<path d="M89.4415 85.6583L80.1835 82.0872L70.9394 78.4674L52.4996 71.1376L34.1014 63.6897L24.9266 59.924L15.7656 56.1028L25.0236 59.6739L34.2678 63.2936L52.7075 70.6165L71.0988 78.0714L80.2805 81.837L89.4415 85.6583Z" fill="#080808"/>
<path d="M91.8672 84.4355L82.0064 81.4827L72.1594 78.4813L52.493 72.3882L32.8614 66.17L23.0629 63.0157L13.2852 59.8059L23.146 62.7517L32.993 65.7601L52.6594 71.8532L72.2841 78.0714L82.0826 81.2256L91.8672 84.4355Z" fill="#080808"/>
<path d="M94.2921 83.2127L83.8283 80.8783L73.3715 78.4883L52.4856 73.6318L31.6204 68.6434L21.2052 66.1005L10.7969 63.509L21.2676 65.8365L31.7175 68.2265L52.6103 73.0899L73.4685 78.0783L83.8907 80.6142L94.2921 83.2127Z" fill="#080808"/>
<path d="M96.7238 81.9899L85.6503 80.2738L74.5836 78.5022L52.4712 74.8685L30.3795 71.1168L19.3406 69.1922L8.30859 67.2122L19.3822 68.9213L30.4488 70.693L52.5613 74.3266L74.6529 78.0853L85.6919 80.0098L96.7238 81.9899Z" fill="#080808"/>
<path d="M99.1496 80.7602L87.4662 79.6624L75.7967 78.5091L52.4576 76.1122L29.1325 73.5832L17.4768 72.277L5.82812 70.9153L17.5046 72.013L29.181 73.1663L52.5131 75.5633L75.8382 78.0923L87.5008 79.3984L99.1496 80.7602Z" fill="#080808"/>
<path d="M101.574 79.5374L89.2881 79.058L77.0088 78.5161L52.4433 77.3489L27.8915 76.0566L15.6122 75.3618L3.33984 74.6184L15.6261 75.0978L27.9123 75.6397L52.471 76.8069L77.0296 78.0992L89.302 78.794L101.574 79.5374Z" fill="#080808"/>
<path d="M104 78.3146L91.111 78.4466L78.2149 78.523L52.4297 78.5855L26.6446 78.523L13.7485 78.4466L0.859375 78.3146L13.7485 78.1825L26.6446 78.1061L52.4297 78.0505L78.2149 78.1131L91.111 78.1825L104 78.3146Z" fill="#080808"/>
</g>
<path d="M52.174 103.43L52.0285 90.5006L51.9384 77.571L51.8691 51.7117L51.9384 25.8593L52.0285 12.9297L52.174 0L52.3265 12.9297L52.4166 25.8593L52.4859 51.7117L52.4097 77.571L52.3265 90.5006L52.174 103.43Z" fill="#080808"/>
<path d="M54.6065 102.207L53.8442 89.9031L53.1443 77.5918L51.8415 52.9692L50.6843 28.3396L50.1576 16.0214L49.6934 3.70312L50.4556 16.0075L51.1555 28.3188L52.4514 52.9414L53.6086 77.571L54.1422 89.8892L54.6065 102.207Z" fill="#080808"/>
<path d="M57.0313 100.985L55.6592 89.2987L54.3426 77.6127L51.8202 54.2267L49.4295 30.8269L48.2861 19.1201L47.2051 7.40625L48.5841 19.0853L49.8938 30.7713L52.4231 54.1642L54.8069 77.564L55.9503 89.2709L57.0313 100.985Z" fill="#080808"/>
<path d="M59.457 99.7619L57.4682 88.7012L55.5487 77.6335L51.7928 55.4843L48.1756 33.3073L46.4224 22.2118L44.7246 11.1094L46.7134 22.1632L48.6399 33.2308L52.3888 55.387L56.0061 77.5571L57.7593 88.6526L59.457 99.7619Z" fill="#080808"/>
<path d="M61.8819 98.539L59.2832 88.1036L56.747 77.6612L51.7715 56.7417L46.9277 35.7944L44.5508 25.3103L42.2363 14.8054L44.8349 25.2409L47.3781 35.6902L52.3536 56.6027L57.1974 77.55L59.5743 88.041L61.8819 98.539Z" fill="#080808"/>
<path d="M64.3145 97.3162L61.1061 87.5061L57.9531 77.682L51.7511 57.9992L45.6738 38.2817L42.6871 28.4021L39.7559 18.5085L42.9643 28.3187L46.1103 38.1427L52.3193 57.8255L58.3897 77.5431L61.3833 87.4227L64.3145 97.3162Z" fill="#080808"/>
<path d="M66.7393 96.0934L62.9211 86.9086L59.1583 77.7029L51.7297 59.2637L44.4259 40.769L40.8156 31.5007L37.2676 22.2117L41.0858 31.3965L44.8486 40.5953L52.2772 59.0414L59.581 77.5361L63.1914 86.8044L66.7393 96.0934Z" fill="#080808"/>
<path d="M69.165 94.8706L64.737 86.3111L60.3713 77.7307L51.7093 60.5213L43.1789 43.2562L38.9518 34.5994L34.7871 25.9148L39.2082 34.4674L43.5808 43.0548L52.2359 60.2572L60.7732 77.5292L64.9934 86.186L69.165 94.8706Z" fill="#080808"/>
<path d="M71.5899 93.6478L66.559 85.7136L61.5765 77.7585L51.6949 61.7857L41.931 45.7435L37.0872 37.6981L32.2988 29.6179L37.3367 37.5452L42.3122 45.5073L52.1938 61.48L61.9577 77.5223L66.8015 85.5677L71.5899 93.6478Z" fill="#080808"/>
<path d="M74.0225 92.4251L68.3818 85.1161L62.7896 77.7793L51.6814 63.0433L40.684 48.2308L35.2235 40.7898L29.8184 33.321L35.4522 40.6231L41.0444 47.9598L52.1526 62.6959L63.1499 77.5153L68.6105 84.9493L74.0225 92.4251Z" fill="#080808"/>
<path d="M76.4474 91.2023L70.2037 84.5186L64.0017 77.8071L51.6739 64.3078L39.4431 50.7181L33.3658 43.8885L27.3301 37.0242L33.5737 43.7009L39.7757 50.4124L52.1035 63.9117L64.3343 77.5084L70.4116 84.331L76.4474 91.2023Z" fill="#080808"/>
<path d="M78.8722 89.9726L72.0257 83.9212L65.2208 77.8281L51.6664 65.5654L38.2021 53.1985L31.5012 46.9873L24.8418 40.7205L31.6952 46.7788L38.5001 52.872L52.0545 65.1346L65.5118 77.5015L72.2128 83.7128L78.8722 89.9726Z" fill="#080808"/>
<path d="M81.2979 88.7499L73.8485 83.3237L66.4338 77.8489L51.6598 66.816L36.9621 55.6858L29.6444 50.079L22.3613 44.4236L29.8107 49.8567L37.2254 55.3315L51.9994 66.3575L66.6972 77.4946L74.0148 83.1014L81.2979 88.7499Z" fill="#080808"/>
<path d="M83.7316 87.5271L75.6724 82.7193L67.6548 77.8628L51.6543 68.0735L35.7231 58.1661L27.7886 53.1707L19.875 48.1267L27.9342 52.9345L35.9518 57.791L51.9523 67.5872L67.8835 77.4946L75.818 82.483L83.7316 87.5271Z" fill="#080808"/>
<path d="M86.1554 86.3043L77.5002 82.1218L68.8659 77.8837L51.6458 69.3241L34.488 60.6465L25.923 56.2625L17.3926 51.8298L26.0477 56.0123L34.682 60.2574L51.9022 68.8169L69.06 77.4946L77.6181 81.8717L86.1554 86.3043Z" fill="#080808"/>
<path d="M88.5822 85.0815L79.3242 81.5173L70.0869 77.8976L51.6403 70.5678L33.249 63.1198L24.0672 59.3542L14.9062 55.533L24.1712 59.0971L33.4084 62.7169L51.8481 70.0467L70.2463 77.4946L79.4212 81.2603L88.5822 85.0815Z" fill="#080808"/>
<path d="M91.0079 83.8587L81.147 80.9129L71.3 77.9045L51.6337 71.8114L32.0089 65.5932L22.2035 62.4459L12.4258 59.2361L22.2867 62.1819L32.1337 65.1833L51.8 71.2834L71.4247 77.5016L81.2302 80.6558L91.0079 83.8587Z" fill="#080808"/>
<path d="M93.4396 82.6359L82.9689 80.3084L72.5121 77.9184L51.6262 73.0551L30.7611 68.0666L20.3458 65.5307L9.9375 62.9392L20.4082 65.2667L30.865 67.6567L51.7509 72.5201L72.6091 77.5085L83.0313 80.0444L93.4396 82.6359Z" fill="#080808"/>
<path d="M95.8653 81.413L84.7918 79.6969L73.7252 77.9253L51.6127 74.2986L29.521 70.5399L18.4821 68.6153L7.45703 66.6353L18.5306 68.3513L29.5903 70.123L51.7028 73.7566L73.7944 77.5153L84.8334 79.4329L95.8653 81.413Z" fill="#080808"/>
<path d="M98.2902 80.1902L86.6137 79.0925L74.9373 77.9392L51.5983 75.5353L28.28 73.0132L16.6175 71.7071L4.96875 70.3384L16.6452 71.4361L28.3216 72.5964L51.6606 74.9933L74.9789 77.5223L86.6415 78.8285L98.2902 80.1902Z" fill="#080808"/>
<path d="M100.716 78.9674L88.4296 78.4811L76.1503 77.9461L51.5848 76.7789L27.0331 75.4797L14.7607 74.7919L2.48828 74.0415L14.7676 74.5278L27.0538 75.0628L51.6125 76.237L76.1711 77.5292L88.4435 78.2171L100.716 78.9674Z" fill="#080808"/>
<path d="M103.148 77.7446L90.2516 77.8766L77.3555 77.953L51.5704 78.0156L25.7852 77.953L12.8961 77.8766L0 77.7446L12.8961 77.6126L25.7852 77.5362L51.5704 77.4736L77.3555 77.5362L90.2516 77.6126L103.148 77.7446Z" fill="#080808"/>
</g>
</g>
<defs>
<clipPath id="clip0_487_1059">
<rect width="104" height="104" fill="white"/>
</clipPath>
</defs>
</svg>
