<svg width="258" height="310" viewBox="0 0 258 310" fill="none" xmlns="http://www.w3.org/2000/svg">
<g clip-path="url(#clip0_1059_279)">
<path d="M144.728 144.706C144.728 142.216 146.388 138.76 149.707 134.337C153.026 129.917 157.174 126.039 162.152 122.721C162.702 122.17 165.742 119.961 171.279 116.083C182.336 108.066 190.291 101.561 195.132 96.5872C199.968 91.609 202.391 86.2182 202.391 80.4058C202.391 75.7071 200.452 71.9712 196.583 69.207C192.705 66.4473 187.314 65.0585 180.401 65.0585C161.589 65.0585 142.652 66.7179 123.569 70.0367L120.25 16.9357C141.268 6.42467 167.818 1.16693 199.902 1.16693C225.063 1.16693 244.293 6.63321 257.568 17.5525C270.843 28.4806 277.481 44.174 277.481 64.637C277.481 81.2311 276.651 94.0892 274.992 103.22C273.332 112.347 270.355 119.956 266.074 126.035C261.783 132.122 255.079 138.343 245.952 144.706C237.376 149.963 230.809 155.15 226.248 160.261C221.687 165.382 219.402 171.669 219.402 179.136V190.752H162.565C150.67 179.966 144.724 164.614 144.724 144.701L144.728 144.706ZM150.536 205.274H227.282V285.755H150.536V205.274Z" fill="black"/>
<path d="M25.6894 263.744C25.6894 261.254 27.3488 257.798 30.6676 253.374C33.9864 248.955 38.1349 245.077 43.1132 241.759C43.6633 241.208 46.7026 238.999 52.2399 235.121C63.2967 227.104 71.2521 220.599 76.0928 215.625C80.929 210.647 83.3516 205.256 83.3516 199.444C83.3516 194.745 81.4126 191.009 77.5436 188.245C73.6658 185.485 68.2749 184.097 61.3622 184.097C42.5497 184.097 23.6129 185.756 4.52975 189.075L1.21094 135.974C22.2242 125.467 48.7747 120.209 80.8624 120.209C106.024 120.209 125.254 125.676 138.529 136.595C151.804 147.523 158.442 163.216 158.442 183.679C158.442 200.273 157.612 213.132 155.953 222.263C154.293 231.39 151.316 238.999 147.035 245.077C142.744 251.165 136.04 257.385 126.913 263.748C118.337 269.006 111.77 274.193 107.209 279.304C102.648 284.424 100.363 290.711 100.363 298.178V309.794H43.5258C31.6304 299.008 25.685 283.656 25.685 263.744H25.6894ZM31.4973 324.312H108.243V404.793H31.4973V324.312Z" fill="#394ACB"/>
<path d="M25.6894 263.744C25.6894 261.254 27.3488 257.798 30.6676 253.374C33.9864 248.955 38.1349 245.077 43.1132 241.759C43.6633 241.208 46.7026 238.999 52.2399 235.121C63.2967 227.104 71.2521 220.599 76.0928 215.625C80.929 210.647 83.3516 205.256 83.3516 199.444C83.3516 194.745 81.4126 191.009 77.5436 188.245C73.6658 185.485 68.2749 184.097 61.3622 184.097C42.5497 184.097 23.6129 185.756 4.52975 189.075L1.21094 135.974C22.2242 125.467 48.7747 120.209 80.8624 120.209C106.024 120.209 125.254 125.676 138.529 136.595C151.804 147.523 158.442 163.216 158.442 183.679C158.442 200.273 157.612 213.132 155.953 222.263C154.293 231.39 151.316 238.999 147.035 245.077C142.744 251.165 136.04 257.385 126.913 263.748C118.337 269.006 111.77 274.193 107.209 279.304C102.648 284.424 100.363 290.711 100.363 298.178V309.794H43.5258C31.6304 299.008 25.685 283.656 25.685 263.744H25.6894ZM31.4973 324.312H108.243V404.793H31.4973V324.312Z" stroke="#231F20" stroke-width="0.7" stroke-miterlimit="10"/>
<path d="M43.1933 246.24C43.1933 243.751 44.8527 240.294 48.1715 235.871C51.4903 231.452 55.6389 227.574 60.6171 224.255C61.1672 223.705 64.2065 221.495 69.7438 217.617C80.8006 209.6 88.756 203.095 93.5967 198.122C98.4329 193.143 100.855 187.752 100.855 181.94C100.855 177.241 98.9165 173.506 95.0475 170.741C91.1697 167.982 85.7788 166.593 78.8661 166.593C60.0536 166.593 41.1168 168.252 22.0337 171.571L18.7148 118.47C39.7281 107.963 66.2786 102.706 98.3663 102.706C123.528 102.706 142.758 108.172 156.033 119.091C169.308 130.019 175.946 145.713 175.946 166.176C175.946 182.77 175.116 195.628 173.457 204.759C171.797 213.886 168.82 221.495 164.539 227.574C160.248 233.661 153.544 239.882 144.417 246.244C135.841 251.502 129.274 256.689 124.713 261.8C120.152 266.92 117.867 273.208 117.867 280.675V292.291H61.0341C49.1388 281.505 43.1933 266.153 43.1933 246.24ZM49.0012 306.808H125.747V387.289H49.0012V306.808Z" fill="#394ACB"/>
<path d="M43.1933 246.24C43.1933 243.751 44.8527 240.294 48.1715 235.871C51.4903 231.452 55.6389 227.574 60.6171 224.255C61.1672 223.705 64.2065 221.495 69.7438 217.617C80.8006 209.6 88.756 203.095 93.5967 198.122C98.4329 193.143 100.855 187.752 100.855 181.94C100.855 177.241 98.9165 173.506 95.0475 170.741C91.1697 167.982 85.7788 166.593 78.8661 166.593C60.0536 166.593 41.1168 168.252 22.0337 171.571L18.7148 118.47C39.7281 107.963 66.2786 102.706 98.3663 102.706C123.528 102.706 142.758 108.172 156.033 119.091C169.308 130.019 175.946 145.713 175.946 166.176C175.946 182.77 175.116 195.628 173.457 204.759C171.797 213.886 168.82 221.495 164.539 227.574C160.248 233.661 153.544 239.882 144.417 246.244C135.841 251.502 129.274 256.689 124.713 261.8C120.152 266.92 117.867 273.207 117.867 280.675V292.291H61.0341C49.1388 281.505 43.1933 266.153 43.1933 246.24ZM49.0012 306.808H125.747V387.289H49.0012V306.808Z" stroke="#231F20" stroke-width="0.7" stroke-miterlimit="10"/>
<path d="M60.7011 228.732C60.7011 226.243 62.3605 222.786 65.6793 218.363C68.9981 213.944 73.1467 210.066 78.1249 206.747C78.6751 206.197 81.7143 203.987 87.2516 200.109C98.3084 192.092 106.264 185.587 111.104 180.614C115.941 175.635 118.363 170.244 118.363 164.432C118.363 159.733 116.424 155.997 112.555 153.233C108.677 150.474 103.287 149.085 96.3739 149.085C77.5614 149.085 58.6246 150.744 39.5415 154.063L36.2227 100.962C57.2359 90.4554 83.7864 85.1976 115.874 85.1976C141.036 85.1976 160.265 90.6639 173.541 101.583C186.816 112.511 193.454 128.205 193.454 148.668C193.454 165.262 192.624 178.12 190.965 187.251C189.305 196.378 186.328 203.987 182.046 210.066C177.756 216.153 171.052 222.374 161.925 228.736C153.348 233.994 146.782 239.181 142.221 244.292C137.659 249.412 135.374 255.699 135.374 263.167V274.783H78.5375C66.6421 263.996 60.6967 248.645 60.6967 228.732H60.7011ZM66.509 289.3H143.254V369.781H66.509V289.3Z" fill="#394ACB"/>
<path d="M60.7011 228.732C60.7011 226.243 62.3605 222.786 65.6793 218.363C68.9982 213.944 73.1467 210.066 78.1249 206.747C78.6751 206.197 81.7143 203.987 87.2516 200.109C98.3084 192.092 106.264 185.587 111.104 180.614C115.941 175.635 118.363 170.244 118.363 164.432C118.363 159.733 116.424 155.997 112.555 153.233C108.677 150.474 103.287 149.085 96.3739 149.085C77.5614 149.085 58.6246 150.744 39.5415 154.063L36.2227 100.962C57.2359 90.4554 83.7864 85.1976 115.874 85.1976C141.036 85.1976 160.265 90.6639 173.541 101.583C186.816 112.511 193.454 128.205 193.454 148.668C193.454 165.262 192.624 178.12 190.965 187.251C189.305 196.378 186.328 203.987 182.046 210.066C177.756 216.153 171.052 222.374 161.925 228.736C153.348 233.994 146.782 239.181 142.221 244.292C137.659 249.412 135.374 255.699 135.374 263.167V274.783H78.5375C66.6421 263.996 60.6967 248.645 60.6967 228.732H60.7011ZM66.509 289.3H143.254V369.781H66.509V289.3Z" stroke="#231F20" stroke-width="0.7" stroke-miterlimit="10"/>
<path d="M78.2031 211.228C78.2031 208.739 79.8625 205.283 83.1813 200.859C86.5001 196.44 90.6486 192.562 95.6268 189.243C96.177 188.693 99.2163 186.484 104.754 182.606C115.81 174.588 123.766 168.084 128.606 163.11C133.443 158.132 135.865 152.741 135.865 146.928C135.865 142.23 133.926 138.494 130.057 135.73C126.179 132.97 120.789 131.581 113.876 131.581C95.0634 131.581 76.1266 133.241 57.0434 136.559L53.7246 83.4584C74.7378 72.9518 101.288 67.694 133.376 67.694C158.538 67.694 177.767 73.1603 191.043 84.0796C204.318 95.0077 210.956 110.701 210.956 131.164C210.956 147.758 210.126 160.616 208.466 169.748C206.807 178.874 203.83 186.484 199.548 192.562C195.258 198.65 188.554 204.87 179.427 211.233C170.85 216.49 164.284 221.677 159.723 226.789C155.161 231.909 152.876 238.196 152.876 245.663V257.279H96.0439C84.1485 246.493 78.2031 231.141 78.2031 211.228ZM84.011 271.797H160.756V352.278H84.011V271.797Z" fill="#394ACB"/>
<path d="M78.2031 211.228C78.2031 208.739 79.8625 205.283 83.1813 200.859C86.5001 196.44 90.6486 192.562 95.6268 189.243C96.177 188.693 99.2163 186.484 104.754 182.606C115.81 174.588 123.766 168.084 128.606 163.11C133.443 158.132 135.865 152.741 135.865 146.928C135.865 142.23 133.926 138.494 130.057 135.73C126.179 132.97 120.789 131.581 113.876 131.581C95.0634 131.581 76.1266 133.241 57.0434 136.559L53.7246 83.4584C74.7378 72.9518 101.288 67.694 133.376 67.694C158.538 67.694 177.767 73.1603 191.043 84.0796C204.318 95.0077 210.956 110.701 210.956 131.164C210.956 147.758 210.126 160.616 208.466 169.748C206.807 178.874 203.83 186.484 199.548 192.562C195.258 198.65 188.554 204.87 179.427 211.233C170.85 216.49 164.284 221.677 159.723 226.789C155.161 231.909 152.876 238.196 152.876 245.663V257.279H96.0439C84.1485 246.493 78.2031 231.141 78.2031 211.228ZM84.011 271.797H160.756V352.278H84.011V271.797Z" stroke="#231F20" stroke-width="0.7" stroke-miterlimit="10"/>
<path d="M95.7148 193.72C95.7148 191.231 97.3742 187.775 100.693 183.351C104.012 178.932 108.16 175.054 113.139 171.735C113.689 171.185 116.728 168.976 122.265 165.098C133.322 157.08 141.277 150.576 146.118 145.602C150.954 140.624 153.377 135.233 153.377 129.42C153.377 124.722 151.438 120.986 147.569 118.222C143.691 115.462 138.3 114.073 131.388 114.073C112.575 114.073 93.6383 115.733 74.5551 119.051L71.2363 65.9503C92.2496 55.4437 118.8 50.186 150.888 50.186C176.05 50.186 195.279 55.6523 208.554 66.5715C221.83 77.4996 228.467 93.193 228.467 113.656C228.467 130.25 227.638 143.108 225.978 152.239C224.319 161.366 221.342 168.976 217.06 175.054C212.769 181.142 206.065 187.362 196.939 193.725C188.362 198.982 181.795 204.169 177.234 209.28C172.673 214.401 170.388 220.688 170.388 228.155V239.771H113.551C101.656 228.985 95.7104 213.633 95.7104 193.72H95.7148ZM101.523 254.289H178.268V334.77H101.523V254.289Z" fill="#394ACB"/>
<path d="M95.7148 193.72C95.7148 191.231 97.3742 187.775 100.693 183.351C104.012 178.932 108.16 175.054 113.139 171.735C113.689 171.185 116.728 168.976 122.265 165.098C133.322 157.08 141.277 150.576 146.118 145.602C150.954 140.624 153.377 135.233 153.377 129.42C153.377 124.722 151.438 120.986 147.569 118.222C143.691 115.462 138.3 114.073 131.388 114.073C112.575 114.073 93.6383 115.733 74.5551 119.051L71.2363 65.9503C92.2496 55.4437 118.8 50.186 150.888 50.186C176.05 50.186 195.279 55.6523 208.554 66.5715C221.83 77.4996 228.467 93.193 228.467 113.656C228.467 130.25 227.638 143.108 225.978 152.239C224.319 161.366 221.342 168.976 217.06 175.054C212.769 181.142 206.065 187.362 196.939 193.725C188.362 198.982 181.795 204.169 177.234 209.28C172.673 214.401 170.388 220.688 170.388 228.155V239.771H113.551C101.656 228.985 95.7104 213.633 95.7104 193.72H95.7148ZM101.523 254.289H178.268V334.77H101.523V254.289Z" stroke="#231F20" stroke-width="0.7" stroke-miterlimit="10"/>
<path d="M113.217 176.217C113.217 173.727 114.876 170.271 118.195 165.848C121.514 161.428 125.662 157.55 130.641 154.232C131.191 153.681 134.23 151.472 139.767 147.594C150.824 139.577 158.779 133.072 163.62 128.098C168.456 123.12 170.879 117.729 170.879 111.917C170.879 107.218 168.94 103.482 165.071 100.718C161.193 97.9583 155.802 96.5695 148.89 96.5695C130.077 96.5695 111.136 98.2289 92.0571 101.548L88.7383 48.4467C109.752 37.9401 136.302 32.6824 168.39 32.6824C193.552 32.6824 212.781 38.1486 226.056 49.0679C239.332 59.996 245.969 75.6894 245.969 96.1525C245.969 112.747 245.14 125.605 243.48 134.736C241.821 143.863 238.844 151.472 234.562 157.55C230.271 163.638 223.567 169.858 214.441 176.221C205.864 181.479 199.297 186.666 194.736 191.777C190.175 196.897 187.89 203.184 187.89 210.651V222.267H131.053C119.158 211.481 113.212 196.129 113.212 176.217H113.217ZM119.025 236.785H195.77V317.266H119.025V236.785Z" fill="#394ACB"/>
<path d="M113.217 176.217C113.217 173.727 114.876 170.271 118.195 165.848C121.514 161.428 125.662 157.55 130.641 154.232C131.191 153.681 134.23 151.472 139.767 147.594C150.824 139.577 158.779 133.072 163.62 128.098C168.456 123.12 170.879 117.729 170.879 111.917C170.879 107.218 168.94 103.482 165.071 100.718C161.193 97.9583 155.802 96.5695 148.89 96.5695C130.077 96.5695 111.136 98.2289 92.0571 101.548L88.7383 48.4467C109.752 37.9401 136.302 32.6824 168.39 32.6824C193.552 32.6824 212.781 38.1486 226.056 49.0679C239.332 59.996 245.969 75.6894 245.969 96.1525C245.969 112.747 245.14 125.605 243.48 134.736C241.821 143.863 238.844 151.472 234.562 157.55C230.271 163.638 223.567 169.858 214.441 176.221C205.864 181.479 199.297 186.666 194.736 191.777C190.175 196.897 187.89 203.184 187.89 210.651V222.267H131.053C119.158 211.481 113.212 196.129 113.212 176.217H113.217ZM119.025 236.785H195.77V317.266H119.025V236.785Z" stroke="#231F20" stroke-width="0.7" stroke-miterlimit="10"/>
<path d="M130.725 158.708C130.725 156.219 132.384 152.763 135.703 148.339C139.022 143.92 143.17 140.042 148.148 136.724C148.698 136.173 151.738 133.964 157.275 130.086C168.332 122.068 176.287 115.564 181.128 110.59C185.964 105.612 188.387 100.221 188.387 94.4087C188.387 89.71 186.448 85.9741 182.579 83.2099C178.701 80.4502 173.31 79.0614 166.397 79.0614C147.585 79.0614 128.648 80.7208 109.565 84.0396L106.246 30.9386C127.259 20.432 153.81 15.1743 185.898 15.1743C211.059 15.1743 230.289 20.6405 243.564 31.5598C256.839 42.4879 263.477 58.1813 263.477 78.6443C263.477 95.2384 262.647 108.097 260.988 117.228C259.329 126.354 256.351 133.964 252.07 140.042C247.779 146.13 241.075 152.35 231.948 158.713C223.372 163.971 216.805 169.157 212.244 174.269C207.683 179.389 205.398 185.676 205.398 193.143V204.759H148.561C136.666 193.973 130.72 178.621 130.72 158.708H130.725ZM136.532 219.277H213.278V299.758H136.532V219.277Z" fill="#394ACB"/>
<path d="M130.725 158.708C130.725 156.219 132.384 152.763 135.703 148.339C139.022 143.92 143.17 140.042 148.148 136.724C148.698 136.173 151.738 133.964 157.275 130.086C168.332 122.068 176.287 115.564 181.128 110.59C185.964 105.612 188.387 100.221 188.387 94.4087C188.387 89.71 186.448 85.9741 182.579 83.2099C178.701 80.4502 173.31 79.0614 166.397 79.0614C147.585 79.0614 128.648 80.7208 109.565 84.0396L106.246 30.9386C127.259 20.432 153.81 15.1743 185.898 15.1743C211.059 15.1743 230.289 20.6405 243.564 31.5598C256.839 42.4879 263.477 58.1813 263.477 78.6443C263.477 95.2384 262.647 108.097 260.988 117.228C259.329 126.354 256.351 133.964 252.07 140.042C247.779 146.13 241.075 152.35 231.948 158.713C223.372 163.971 216.805 169.157 212.244 174.269C207.683 179.389 205.398 185.676 205.398 193.143V204.759H148.561C136.666 193.973 130.72 178.621 130.72 158.708H130.725ZM136.532 219.277H213.278V299.758H136.532V219.277Z" stroke="#231F20" stroke-width="0.7" stroke-miterlimit="10"/>
<path d="M144.728 144.706C144.728 142.216 146.388 138.76 149.707 134.337C153.026 129.917 157.174 126.039 162.152 122.721C162.702 122.17 165.742 119.961 171.279 116.083C182.336 108.066 190.291 101.561 195.132 96.5872C199.968 91.609 202.391 86.2182 202.391 80.4058C202.391 75.7071 200.452 71.9712 196.583 69.207C192.705 66.4473 187.314 65.0585 180.401 65.0585C161.589 65.0585 142.652 66.7179 123.569 70.0367L120.25 16.9357C141.268 6.42467 167.818 1.16693 199.902 1.16693C225.063 1.16693 244.293 6.63321 257.568 17.5525C270.843 28.4806 277.481 44.174 277.481 64.637C277.481 81.2311 276.651 94.0892 274.992 103.22C273.332 112.347 270.355 119.956 266.074 126.035C261.783 132.122 255.079 138.343 245.952 144.706C237.376 149.963 230.809 155.15 226.248 160.261C221.687 165.382 219.402 171.669 219.402 179.136V190.752H162.565C150.67 179.966 144.724 164.614 144.724 144.701L144.728 144.706ZM150.536 205.274H227.282V285.755H150.536V205.274Z" fill="#2B39A8"/>
<path d="M144.728 144.706C144.728 142.216 146.388 138.76 149.707 134.337C153.026 129.917 157.174 126.039 162.152 122.721C162.702 122.17 165.742 119.961 171.279 116.083C182.336 108.066 190.291 101.561 195.132 96.5872C199.968 91.609 202.391 86.2182 202.391 80.4058C202.391 75.7071 200.452 71.9712 196.583 69.207C192.705 66.4473 187.314 65.0585 180.401 65.0585C161.589 65.0585 142.652 66.7179 123.569 70.0367L120.25 16.9357C141.268 6.42467 167.818 1.16693 199.902 1.16693C225.063 1.16693 244.293 6.63321 257.568 17.5525C270.843 28.4806 277.481 44.1739 277.481 64.637C277.481 81.2311 276.651 94.0893 274.992 103.22C273.332 112.347 270.355 119.956 266.074 126.035C261.783 132.122 255.079 138.343 245.952 144.706C237.376 149.963 230.809 155.15 226.248 160.261C221.687 165.382 219.402 171.669 219.402 179.136V190.752H162.565C150.67 179.966 144.724 164.614 144.724 144.701L144.728 144.706ZM150.536 205.274H227.282V285.755H150.536V205.274Z" stroke="#231F20" stroke-width="0.7" stroke-miterlimit="10"/>
</g>
<defs>
<clipPath id="clip0_1059_279">
<rect width="278.647" height="405.96" fill="white"/>
</clipPath>
</defs>
</svg>
